<svg id="Слой_2" data-name="Слой 2" xmlns="http://www.w3.org/2000/svg" viewBox="0 0 578.5 300"><defs><style>.cls-1{fill:#ea5e20;}.cls-2{fill:#2a3141;}</style></defs><title>404</title><path class="cls-1" d="M575.5,277.07V292H560.59V277.07H575.5m3-3H557.59V295H578.5V274.07Z"/><rect class="cls-1" x="557.59" y="3.54" width="20.91" height="262.52"/><polygon class="cls-2" points="443.98 201.62 540.82 53.86 549.25 39.23 549.25 4.54 549.21 4.54 414.63 208.21 414.63 221.78 549.25 221.78 549.25 201.62 443.98 201.62"/><path class="cls-1" d="M160.73,6.54V21.45H145.82V6.54h14.91m3-3H142.82V24.45h20.91V3.54Z"/><rect class="cls-2" x="142.82" y="32.46" width="20.91" height="262.52"/><polygon class="cls-1" points="29.35 201.62 126.19 53.86 134.62 39.23 134.62 4.54 134.58 4.54 0 208.21 0 221.78 134.62 221.78 134.62 201.62 29.35 201.62"/><path class="cls-1" d="M230.39,119.91v14.91H215.48V119.91h14.91m3-3H212.48v20.91h20.91V116.91Z"/><path class="cls-2" d="M365.83,35.24C351.13,12.18,328,0,299,0c-28.55,0-51.44,11.89-66.21,34.4-12,18.28-18.51,42.71-19.9,74.39h20.92q2-40.77,16.47-62.92,16.35-24.93,48.72-25,32.94,0,49.22,25.56T364.47,122v55.9q-.18,49.72-16.67,75.48t-48.42,25.76q-32.16,0-49-26.36t-16.88-76.07V145.79H212.57v30.87c0,37.59,6.6,66.16,20.18,87.35,15.08,23.55,38.12,36,66.63,36s51.22-12.24,66-35.4c13.3-20.79,19.83-49.14,20-86.67V122C385.38,84.25,379,55.89,365.83,35.24Z"/></svg>