<svg id="Слой_1" data-name="Слой 1" xmlns="http://www.w3.org/2000/svg" viewBox="0 0 15.08 20"><defs><style>.cls-1{fill:#2b3240;}.cls-2{fill:#ea5e20;}</style></defs><title>Адрес доставки</title><path class="cls-1" d="M7.62,0H7.47A7.48,7.48,0,0,0,0,7.37c0,3.91,6.68,11.64,7,12l.59.67.57-.67c.29-.32,7-8.07,7-12A7.47,7.47,0,0,0,7.62,0ZM1.41,7.37l.13,0A5.9,5.9,0,0,1,7.43,1.54h.22a5.9,5.9,0,0,1,5.9,5.83c0,2.23-3.21,6.9-6,10.27-2.8-3.36-6-8-6-10.27Zm0,0Z"/><path class="cls-2" d="M7.55,3.48a3.78,3.78,0,1,0,3.77,3.78A3.78,3.78,0,0,0,7.55,3.48ZM9.79,7.26A2.25,2.25,0,1,1,7.55,5,2.25,2.25,0,0,1,9.79,7.26Z"/></svg>