<svg id="Layer_1" data-name="Layer 1" xmlns="http://www.w3.org/2000/svg" viewBox="0 0 89.9 120"><defs><style>.cls-1{fill:#ea5e20;}.cls-2{fill:#2f416f;}</style></defs><title>03 Доставка до двери по всей России и СНГ</title><path class="cls-1" d="M76.4,69.75a3.76,3.76,0,0,1-.53-3.35c.33-1.13,1.11-2.11,1.4-3.21a25.71,25.71,0,0,0,.49-3.49c.15-1.25-.35-2.18-.39-3.35s.72-2.17,1-3.36a35.17,35.17,0,0,0,.73-3.65c.18-1.61,0-1.82-.9-3a4,4,0,0,1-1-3.22c.19-.92,1.13-2.36.28-3.19-1,.93-1.81-.2-2.69-.58-1.1-.48-1.24.23-2.3.74a14.85,14.85,0,0,1-2.93.83A2.62,2.62,0,0,1,67,40.13a54.68,54.68,0,0,1-3.71-4.4,13.93,13.93,0,0,1-.66-1.43c-.26-.48-.95-.82-1.15-1.22-.46-.93.74-2.13.87-3.25.25-2-1.56-4.58-.67-6.39.37-.75,1.59-1.18,1.79-2.12.14-.66-.48-.84,0-1.54.26-.41.66-.44,1-.65,1.4-.81,4.88-2.83,6.4-1.58.39.32.28.91.72,1.23s1.09.11,1.51.34c.88.49,1.33,1.31,2.34,1.63.21-1.77,4.33.92,2.65-2.47A3.83,3.83,0,0,0,74.32,16c.11.13.21.51.42.68-1.37,1.09-1.31-.13-1.87-1a5.31,5.31,0,0,0-2.31-1.52c.07.47.46.84.37,1.36-.83.08-1.22-1-1.82-1.48a2.46,2.46,0,0,0-2.06-.73c-2.1.26-.72,2.81-2.55,3.46a2.77,2.77,0,0,1-3.6-2.48c0-1.2,1.19-.6,1.4-1.54.17-.76-.86-1.27-1.37-1.57.93-2.12-3.41-1.81-3.49-3.74,0-1.29,1.51-.66,2-.1.38.41,1.22,2.1,2,.81s-1.15-1.37-1.76-1.58c-1.06-.36-1.43-1.09-2-1.91-.27-.38-.55-.72-.81-1.06A43.19,43.19,0,0,0,46.48,2.09c.16.52-.26.82-.93,1.37s-2.74,3.06-3.49,2.66c-.5-.26-.1-.75-.27-1.14s-.49-.55-.67-.86a10.76,10.76,0,0,1-.92-1.77c-1.12.13-2.23.29-3.33.5a.13.13,0,0,0,0,0c.1.15.51.51.59.66.3.6.67,1-.14,1.57-1.42,1.08-2.24-.78-3.39-.56S32.28,6.21,30.9,6.39c-1.23.15-3,.29-3,1.93a7.59,7.59,0,0,0,1.35.32,5.4,5.4,0,0,1-.1,2c1.63.28,1.21-.5,1.65-1.51s1.56-.84,2.14-1.65.35-1.91,1.74-1.39c.83.32,1,1.11,2.11,1a2.08,2.08,0,0,1,0,1.35c1.3,0,1.46.67,2.07,1.59.36.54,1.47,2.15-.14,2.21-.84,0-.5-.49-1.08-.88s-.5-.2-1.26-.07c-1,.17-2.42,0-1.43,1.11.78.9,2,1.09.28,1.78a12.9,12.9,0,0,1-1.38.56c-.84.19-.53-.2-1.16-.24-1.79-.12-.19,1.37-1.4,2.17-.79.53-1.67.46-2.44,1.18s-1.41,1.34-2,2c-.79.87-.89,1.9-1.53,2.8S23.86,23.58,24,25c.05.82.36,2.35-.84,2.63-.12-1,.4-1.87,0-2.77A2,2,0,0,0,21,23.69a10,10,0,0,0-4.49,2.9c-.7,1-1.92,4.19-1.12,5.34,1.21,1.74,2.77-2.28,4.2-2.21.71,1.51-1,2.49-.79,3.86,1.37.47,2.62.61,1.93,2.53l.28.56c-.11,1.73.22,2.45,2.09,2.1a11.5,11.5,0,0,0,3.46-1.29,6.57,6.57,0,0,1,1.6-.92c.71-.1,1.43.43,2.09.5s1.22-.24,1.92-.25,1.3.41,2.07.45c.28.71,1.49,1.41,2.11,1.81a9.25,9.25,0,0,0,1.54.85,15.91,15.91,0,0,1,1.65.41c1,.55,1.36,2.18,1.42,3.18.06.82-1.12,2.5-.73,3.11.69,1.09,1.84-.62,2.66-.63.55,0,.49.32,1,.45s.92-.07,1.53,0c1,.13,1.93.86,2.93,1.13,1.32.34,1.84.08,2.83,1.07,2,2,1.3,3.77-.35,5.86a14.23,14.23,0,0,0-2.62,6c-.22,1.24.27,2.2-.94,3.11-.93.7-1.88.7-2.55,1.77s-.51,2.2-1.07,3.11a17.48,17.48,0,0,1-2.17,2.3A5.94,5.94,0,0,1,40.35,72c-.75.38-1.12-.22-1.09,1,0,1,.58.72-.13,1.63-.37.47-.86.85-1.22,1.32a4,4,0,0,0-.74,3.74c.15.77-.05,1.51,0,2.23s.93,1.42.78,2.21c-2.1.35-3.55-2.2-3.92-3.88-.48-2.24-1.16-4.39-1.5-6.7S31.32,69.41,31.32,67s.11-4.49-1.54-6.14c-1.26-1.26-3-1.81-3.8-3.46-.5-1-.29-2-.56-3.1s-1.22-1.53-2.1-2.2c-1.71-1.29-1.61-4-.91-5.76.48-1.23,3.15-4.81,2-6.18-.71-.82-1.95.24-2.7.05a13.72,13.72,0,0,1-1.92-1.29c-.15-1.25-.83-1.43-2-1.67-.61-1.41-1.21-2.07-2.67-2.24s-1.87-1-2.69-2.17c-1-1.49-.7-1.92-.52-3.66.13-1.27.44-3.43,0-4.59-1.47.16-.71,3.27-2.46,2.75-.15-1.46.65-2.2,1.09-3.46.35-1,.2-2.19.45-3.19a9.27,9.27,0,0,1,1.33-3c.67-.89,1.74-1.27,2.38-2.23a5.14,5.14,0,0,0,.59-1.33l-.59.56a43.1,43.1,0,1,0,61,61c3.78-3.78,2-3.36,1.42-5.43A1.24,1.24,0,0,1,76.4,69.75Z"/><path class="cls-2" d="M45,0A45,45,0,0,0,0,45C0,69.77,35.42,120,45,120c8.78,0,45-50.23,45-75A45,45,0,0,0,45,0Zm-.18,86.78A41.64,41.64,0,1,1,86.41,45.14,41.64,41.64,0,0,1,44.77,86.78Z"/></svg>