<svg id="Layer_1" data-name="Layer 1" xmlns="http://www.w3.org/2000/svg" viewBox="0 0 108.49 120"><defs><style>.cls-1{fill:#ea5e20;}.cls-2{fill:#2f416f;}</style></defs><title>01 Собственная испытательная лаборатория</title><path class="cls-1" d="M84.86,40.11H82.71v-10a.81.81,0,0,0-1.62,0v10H78.93l-1.62,8.65h9.17Z"/><path class="cls-1" d="M104.43,40.11h-2.15v-10a.81.81,0,1,0-1.62,0v10H98.51l-1.62,8.65h9.17Z"/><path class="cls-2" d="M106.87,50.62H96.07a1.62,1.62,0,1,0,0,3.24H97l1.56,40.66h1.33a22.53,22.53,0,0,1-44.9,2.42h3.38l.11,0a12.68,12.68,0,0,0,25.07-2.4h1.36l1.56-40.66h.88a1.62,1.62,0,0,0,0-3.24H76.49a1.62,1.62,0,0,0,0,3.24h.88l1.56,40.66h1.33A9.44,9.44,0,0,1,61.56,96a6.45,6.45,0,0,0,3.24-5.59v-84A6.48,6.48,0,0,0,58.32,0H6.48A6.48,6.48,0,0,0,0,6.48v84a6.49,6.49,0,0,0,6.48,6.49H51.67a25.78,25.78,0,0,0,51.41-2.42h1.35L106,53.86h.88a1.62,1.62,0,0,0,0-3.24ZM55.69,71.77a1.62,1.62,0,0,1,.56-3.19,1.62,1.62,0,1,1-.56,3.19Zm-4,5.41a1.62,1.62,0,1,1,.59,2.21A1.62,1.62,0,0,1,51.73,77.18Zm.59-24.53a1.62,1.62,0,1,1-.59,2.21A1.61,1.61,0,0,1,52.32,52.65Zm7.44,34.18a2.42,2.42,0,0,1,1.62,4.23v-1.8a1.62,1.62,0,0,0-3.24,0v1.8a2.38,2.38,0,0,1-.81-1.8A2.43,2.43,0,0,1,59.76,86.83ZM57.57,61.58a1.62,1.62,0,1,1-3.19.56,1.61,1.61,0,0,1,1.31-1.87A1.63,1.63,0,0,1,57.57,61.58ZM9.8,13.09H55V33.16H9.8ZM49,48.73a1.62,1.62,0,1,1-.2-2.28A1.62,1.62,0,0,1,49,48.73Zm-6.92-4.65a1.62,1.62,0,1,1-1-2.07A1.61,1.61,0,0,1,42.11,44.08Zm-8.09-2a1.62,1.62,0,0,1-3.24,0,1.63,1.63,0,0,1,1.63-1.62A1.61,1.61,0,0,1,34,42.09Zm-9.25,3a1.62,1.62,0,1,1-1.1-3,1.61,1.61,0,0,1,2.07,1A1.62,1.62,0,0,1,24.77,45.05Zm-6.71,3.87a1.62,1.62,0,1,1,.2-2.27A1.61,1.61,0,0,1,18.06,48.92ZM9.11,60.27a1.62,1.62,0,1,1-1.87,1.31A1.61,1.61,0,0,1,9.11,60.27ZM7.24,70.45a1.61,1.61,0,1,1,1.87,1.32A1.61,1.61,0,0,1,7.24,70.45Zm5.24,8.94a1.61,1.61,0,1,1,.6-2.21A1.61,1.61,0,0,1,12.48,79.39Zm.59-24.53a1.61,1.61,0,1,1-.58-2.21A1.61,1.61,0,0,1,13.07,54.86Zm5.19,30.53a1.62,1.62,0,1,1-.2-2.28A1.62,1.62,0,0,1,18.26,85.39Zm7.48,3.68a1.62,1.62,0,1,1-1-2.08A1.63,1.63,0,0,1,25.74,89.07Zm6.66,2.5A1.62,1.62,0,1,1,34,90,1.62,1.62,0,0,1,32.4,91.57ZM41.14,90a1.62,1.62,0,1,1,1-2.07A1.61,1.61,0,0,1,41.14,90Zm7.69-4.44a1.62,1.62,0,1,1-2.08-2.48,1.62,1.62,0,0,1,2.08,2.48Zm-16.43-2a17.54,17.54,0,0,1-5.75-34.12V47.79a3.24,3.24,0,0,1,3.24-3.24h5a3.25,3.25,0,0,1,3.24,3.24v1.66A17.55,17.55,0,0,1,32.4,83.57Zm20.74,4.07a1.63,1.63,0,0,0-1.62,1.62v1.8a2.43,2.43,0,1,1,4-1.8,2.38,2.38,0,0,1-.81,1.8v-1.8A1.62,1.62,0,0,0,53.14,87.64Z"/><rect class="cls-1" x="32.06" y="28.45" width="1.62" height="1.62"/><path class="cls-1" d="M30.34,17.22c0-.08.05-.16,0-.23l-.17-.21c-.11-.14-.23-.25-.32-.35s-.31-.3-.31-.3l-.3-.31c-.1-.09-.21-.2-.35-.31l-.21-.17c-.07-.08-.15,0-.23,0H23.63c-.08,0-.16-.05-.24,0l-.21.18a3.6,3.6,0,0,0-.34.32c-.19.18-.3.31-.3.31s-.13.11-.31.3-.2.21-.31.35-.11.14-.18.21,0,.15,0,.23V22c0,.08-.06.16,0,.23l.18.22.31.34c.19.19.32.3.32.3s.13-.11.31-.3.21-.21.32-.34l.17-.22c.06-.07,0-.15,0-.23V17.22c0-.08.06-.16,0-.23s-.12-.15-.18-.21a1.71,1.71,0,0,0-.21-.24l.24.22.21.18c.08.06.16,0,.24,0h4.81c.08,0,.16.06.23,0l.21-.18.24-.21a2.73,2.73,0,0,0-.22.24l-.18.21c-.06.07,0,.15,0,.23V22c0,.08-.06.16,0,.23l.18.22.31.34.31.3.3-.3a3.6,3.6,0,0,0,.31-.34l.18-.22c.08-.07,0-.15,0-.23V17.22Z"/><path class="cls-1" d="M41.68,23.77a2,2,0,0,0-.18.21c-.06.07,0,.15,0,.23V29c0,.08-.06.16,0,.23l.18.22.22.24a2.8,2.8,0,0,0-.25-.22l-.21-.19c-.07-.05-.15,0-.24,0h-4.8c-.08,0-.16-.06-.24,0l-.21.17-.23.22.21-.24.18-.22c.06-.07,0-.15,0-.23V24.21c0-.08.06-.16,0-.23a2,2,0,0,0-.18-.21c-.1-.13-.22-.25-.31-.35l-.3-.3s-.13.11-.31.3l-.31.35a2,2,0,0,0-.18.21c-.07.07,0,.15,0,.23V29c0,.08-.06.16,0,.23l.18.22.31.34c.19.19.32.3.32.3l.3.31.34.31a1.68,1.68,0,0,1,.21.18c.08.07.16,0,.24,0h4.8c.09,0,.17.06.24,0l.21-.18c.14-.11.25-.22.35-.31s.3-.32.3-.32l.3-.3c.09-.1.21-.21.31-.34l.18-.22c.08-.07,0-.15,0-.23V24.21c0-.08.05-.16,0-.23a2,2,0,0,0-.18-.21c-.1-.13-.22-.25-.31-.35s-.31-.3-.31-.3-.13.11-.32.3Z"/><path class="cls-1" d="M28.9,23.77a2,2,0,0,0-.18.21c-.06.07,0,.15,0,.23V29c0,.08-.06.16,0,.23l.18.22.22.24a2.8,2.8,0,0,0-.25-.22l-.21-.19c-.07-.05-.15,0-.23,0H23.63c-.08,0-.16-.06-.24,0l-.21.17-.23.22.22-.24.17-.22c.06-.07,0-.15,0-.23V24.21c0-.08.06-.16,0-.23a2,2,0,0,0-.18-.21c-.1-.13-.22-.25-.31-.35s-.3-.3-.3-.3-.13.11-.31.3l-.31.35-.18.21c-.07.07,0,.15,0,.23V29c0,.08-.06.16,0,.23l.18.22.31.34c.19.19.32.3.32.3l.3.31.34.31a1.68,1.68,0,0,1,.21.18c.08.07.16,0,.24,0h4.81c.08,0,.16.06.23,0l.21-.18c.14-.11.25-.22.35-.31s.3-.32.3-.32l.3-.3c.09-.1.21-.21.31-.34l.18-.22c.08-.07,0-.15,0-.23V24.21c0-.08.05-.16,0-.23l-.17-.21-.32-.35c-.18-.19-.31-.3-.31-.3s-.13.11-.32.3Z"/><path class="cls-1" d="M43.12,17.22c0-.08.05-.16,0-.23s-.12-.15-.18-.21a3.82,3.82,0,0,0-.31-.35c-.18-.19-.31-.3-.31-.3l-.3-.31c-.1-.09-.21-.2-.35-.31l-.21-.17c-.07-.08-.15,0-.24,0h-4.8c-.08,0-.16-.05-.24,0L36,15.5a3.6,3.6,0,0,0-.34.32c-.19.18-.3.31-.3.31s-.13.11-.31.3-.2.21-.31.35-.12.14-.18.21,0,.15,0,.23V22c0,.08-.06.16,0,.23l.18.22.31.34c.19.19.32.3.32.3s.13-.11.31-.3a3.6,3.6,0,0,0,.31-.34l.18-.22c.06-.07,0-.15,0-.23V17.22c0-.08.06-.16,0-.23s-.12-.15-.18-.21a1.71,1.71,0,0,0-.21-.24l.24.22.21.18c.08.06.16,0,.24,0h4.8c.09,0,.17.06.24,0l.21-.18.24-.21a1.74,1.74,0,0,0-.22.24c-.06.06-.12.14-.18.21s0,.15,0,.23V22c0,.08-.06.16,0,.23l.18.22.31.34c.18.19.31.3.31.3l.3-.3a3.6,3.6,0,0,0,.31-.34l.18-.22c.08-.07,0-.15,0-.23V17.22Z"/><path class="cls-1" d="M34.92,46.17H33.21v8.5H31.59v-8.5h-1.7a1.61,1.61,0,0,0-1.62,1.62v19.5a1.62,1.62,0,0,0,1.62,1.62h5a1.63,1.63,0,0,0,1.62-1.62V47.79A1.62,1.62,0,0,0,34.92,46.17Z"/><path class="cls-1" d="M51.33,23.77l-.18.21c-.06.07,0,.15,0,.23V29c0,.08-.06.16,0,.23l.18.22.22.24a2.8,2.8,0,0,0-.25-.22l-.21-.19c-.07-.05-.15,0-.23,0H46.06c-.08,0-.16-.06-.23,0l-.22.17-.23.22.22-.24.18-.22c.06-.07,0-.15,0-.23V24.21c0-.08.06-.16,0-.23l-.18-.21-.31-.35-.31-.3-.31.3-.31.35-.18.21c-.07.07,0,.15,0,.23V29c0,.08-.06.16,0,.23l.18.22c.11.13.22.24.32.34s.31.3.31.3l.3.31.34.31.22.18c.07.07.15,0,.23,0h4.81c.08,0,.16.06.23,0l.21-.18c.14-.11.25-.22.35-.31s.3-.32.3-.32l.31-.3.31-.34.18-.22c.07-.07,0-.15,0-.23V24.21c0-.08.06-.16,0-.23l-.18-.21-.32-.35c-.18-.19-.31-.3-.31-.3s-.13.11-.31.3Z"/><path class="cls-1" d="M52.77,17.22c0-.08.06-.16,0-.23s-.13-.15-.18-.21a3.81,3.81,0,0,0-.32-.35c-.18-.19-.31-.3-.31-.3l-.3-.31c-.1-.09-.21-.2-.35-.31l-.21-.17c-.07-.08-.15,0-.23,0H46.06c-.08,0-.16-.05-.23,0l-.22.18c-.13.11-.24.22-.34.32s-.3.31-.3.31l-.31.3c-.09.1-.2.21-.31.35s-.11.14-.18.21,0,.15,0,.23V22c0,.08-.06.16,0,.23l.18.22a3.6,3.6,0,0,0,.32.34c.18.19.31.3.31.3s.13-.11.32-.3l.31-.34.18-.22c.06-.07,0-.15,0-.23V17.22c0-.08.06-.16,0-.23s-.13-.15-.18-.21a2.73,2.73,0,0,0-.22-.24l.24.22.22.18c.07.06.15,0,.23,0h4.81c.08,0,.16.06.23,0l.21-.18.24-.21a2.73,2.73,0,0,0-.22.24c0,.06-.11.14-.18.21s0,.15,0,.23V22c0,.08-.06.16,0,.23l.18.22.31.34.31.3.31-.3.31-.34.18-.22c.07-.07,0-.15,0-.23V17.22Z"/></svg>