<svg id="Layer_1" data-name="Layer 1" xmlns="http://www.w3.org/2000/svg" viewBox="0 0 120 120"><defs><style>.cls-1{fill:#2f416f;}.cls-2{fill:#ea5e20;}</style></defs><title>04 Низкие цены и гибкая ценовая политика</title><path class="cls-1" d="M60,4A56,56,0,1,1,4,60,56.06,56.06,0,0,1,60,4m0-4a60,60,0,1,0,60,60A60,60,0,0,0,60,0Z"/><path class="cls-2" d="M64.82,36.2H50.5V60H64.24c4.33,0,7.69-1,10-3.08s3.42-4.87,3.42-8.68-1.1-6.51-3.36-8.64S68.86,36.3,64.82,36.2Z"/><path class="cls-2" d="M60,7.93A52.07,52.07,0,1,0,112.07,60,52.08,52.08,0,0,0,60,7.93ZM79.72,61.84c-3.61,3.22-8.77,4.87-15.35,4.89H50.5v3.39H65.3v6.79H50.5V90.59H43V76.91H34.78V70.12H43V66.73H34.78V60H43V29.41H64.24c6.47,0,11.63,1.69,15.34,5s5.64,8,5.64,13.7S83.37,58.58,79.72,61.84Z"/></svg>