<svg id="Слой_3" data-name="Слой 3" xmlns="http://www.w3.org/2000/svg" viewBox="0 0 12 12"><defs><style>.cls-1{fill:#ea5e20;}</style></defs><title>Задать вопрос</title><path class="cls-1" d="M6,12a6,6,0,1,1,6-6A6,6,0,0,1,6,12ZM6,1a5,5,0,1,0,5,5A5,5,0,0,0,6,1Z"/><path class="cls-1" d="M5.65,6.64A2.66,2.66,0,0,1,5.91,6a5.63,5.63,0,0,1,.4-.59L6.59,5a1.27,1.27,0,0,0,.17-.35,1.16,1.16,0,0,0,.07-.42h0a.85.85,0,0,0-.2-.6.72.72,0,0,0-.56-.22.68.68,0,0,0-.57.27,1.26,1.26,0,0,0-.2.75H4.37a2.39,2.39,0,0,1,.23-1,1.48,1.48,0,0,1,.57-.64,1.7,1.7,0,0,1,.89-.22,2,2,0,0,1,.92.2,1.39,1.39,0,0,1,.58.57,1.94,1.94,0,0,1,.2.91h0a2.08,2.08,0,0,1-.08.58,2,2,0,0,1-.21.44c-.08.13-.19.28-.32.46s-.27.36-.37.51a2.35,2.35,0,0,0-.23.53,2.63,2.63,0,0,0-.09.72H5.54A2.72,2.72,0,0,1,5.65,6.64ZM5.52,8.2h1v1h-1Z"/><path class="cls-1" d="M6.53,9.21H5.47V8.15H6.53Zm-1-.1h.86V8.25H5.57ZM6.5,7.53h-1v0a3.21,3.21,0,0,1,.11-.86h0A2.75,2.75,0,0,1,5.86,6c.11-.17.24-.36.41-.59s.21-.29.28-.41a1.53,1.53,0,0,0,.16-.34,1.05,1.05,0,0,0,.07-.4.84.84,0,0,0-.19-.58.69.69,0,0,0-.52-.2.62.62,0,0,0-.53.25,1.25,1.25,0,0,0-.19.73v0h-1v0a2.49,2.49,0,0,1,.23-1,1.48,1.48,0,0,1,.6-.66,1.76,1.76,0,0,1,.91-.23,2.1,2.1,0,0,1,.94.2,1.45,1.45,0,0,1,.6.6,1.91,1.91,0,0,1,.21.93,1.78,1.78,0,0,1-.09.59,1.5,1.5,0,0,1-.21.46c-.07.12-.18.27-.32.46a5,5,0,0,0-.36.51,2.09,2.09,0,0,0-.23.52,2.46,2.46,0,0,0-.1.7Zm-.91-.1h.82a2.38,2.38,0,0,1,.09-.68,2.83,2.83,0,0,1,.24-.55,5.25,5.25,0,0,1,.37-.51c.14-.19.25-.34.32-.46a1.91,1.91,0,0,0,.2-.43,1.89,1.89,0,0,0,.08-.56,1.89,1.89,0,0,0-.2-.89A1.29,1.29,0,0,0,7,2.8a2,2,0,0,0-.89-.19,1.69,1.69,0,0,0-.86.21,1.47,1.47,0,0,0-.56.62,2.46,2.46,0,0,0-.22.95h.83a1.28,1.28,0,0,1,.21-.74.74.74,0,0,1,.61-.29.81.81,0,0,1,.6.23.91.91,0,0,1,.21.64,1.5,1.5,0,0,1-.07.44A1.82,1.82,0,0,1,6.63,5l-.28.41A7,7,0,0,0,6,6a3.31,3.31,0,0,0-.26.62h0A3.08,3.08,0,0,0,5.59,7.43Z"/></svg>