<svg id="_1" data-name="1" xmlns="http://www.w3.org/2000/svg" viewBox="0 0 90 20"><defs><style>.cls-1{fill:#c0004a;}.cls-2{fill:#fff;}.cls-2,.cls-3{fill-rule:evenodd;}.cls-3{fill:#abce37;}</style></defs><title>Boxberry</title><rect class="cls-1" width="90" height="20"/><path class="cls-2" d="M78.33,7.35l-.1.28c-.11.28-.18.44-.28.66l-.23.55L75.6,14.25a2.16,2.16,0,0,1-2,1.51,2.55,2.55,0,0,1-.89-.18l-.2-.09.09-.19c.29-.65.48-.86,1.1-.91.23,0,.49-.3.66-.74l.1-.23L72.51,8.83c-.11-.24-.19-.43-.26-.62L72,7.64l-.12-.29h1a.9.9,0,0,1,1,.72L75,11a4.92,4.92,0,0,1,.17.67h0a5.67,5.67,0,0,1,.15-.67c.08-.25,1-2.89,1-2.89a.94.94,0,0,1,1-.73Z"/><path class="cls-2" d="M66.51,7.27a1.82,1.82,0,0,0-1.61,1.3V8.14c0-.39-.22-.79-.93-.79h-.52v6.3h1.49V11a3.28,3.28,0,0,1,.13-1A1.55,1.55,0,0,1,66.48,8.8a1.4,1.4,0,0,1,.28,0l.25.05V7.33l-.17,0A2.39,2.39,0,0,0,66.51,7.27Z"/><path class="cls-2" d="M70.85,7.27a1.82,1.82,0,0,0-1.61,1.3V8.14c0-.39-.22-.79-.93-.79h-.53v6.3h1.5V11a3.28,3.28,0,0,1,.13-1,1.54,1.54,0,0,1,1.4-1.24,1.44,1.44,0,0,1,.29,0l.24.05V7.33l-.16,0A2.39,2.39,0,0,0,70.85,7.27Z"/><path class="cls-2" d="M39.42,7.42a3.2,3.2,0,0,0-3.26,3.28A3.21,3.21,0,0,0,39.42,14a3.27,3.27,0,0,0,3.29-3.31,3.21,3.21,0,0,0-3.29-3.28Zm0,5.2a1.8,1.8,0,0,1-1.75-1.92,1.76,1.76,0,1,1,3.51,0A1.8,1.8,0,0,1,39.42,12.62Z"/><path class="cls-2" d="M32.65,7.42a2.57,2.57,0,0,0-1.76.65h-.05a5.46,5.46,0,0,0,.05-.7V6.18A.83.83,0,0,0,30,5.23h-.57v5.52A3.06,3.06,0,0,0,32.56,14a3.11,3.11,0,0,0,3-3.3,3.07,3.07,0,0,0-3-3.29Zm-.25,5.21a1.76,1.76,0,0,1-1.57-1.9c0-1.4.87-1.91,1.59-1.91a1.79,1.79,0,0,1,1.68,1.9A1.79,1.79,0,0,1,32.4,12.63Z"/><path class="cls-2" d="M52.85,7.42a2.61,2.61,0,0,0-1.76.65h0a6.8,6.8,0,0,0,0-.7V6.18c0-.64-.3-.95-.92-.95H49.6v5.52A3.06,3.06,0,0,0,52.76,14a3.1,3.1,0,0,0,3-3.3,3.07,3.07,0,0,0-2.95-3.29Zm-.25,5.21A1.76,1.76,0,0,1,51,10.73c0-1.4.88-1.91,1.6-1.91a1.78,1.78,0,0,1,1.67,1.9A1.79,1.79,0,0,1,52.6,12.63Z"/><path class="cls-2" d="M48,12.49l-1.21-2,1-1.59c.19-.29.33-.5.49-.72s.23-.32.36-.52l.22-.32H47.72a1.14,1.14,0,0,0-1.21.72L46,9c-.06.1-.22.46-.22.47h0A4.47,4.47,0,0,0,45.5,9c-.08-.15-.52-.89-.52-.89a1.17,1.17,0,0,0-1.21-.72H42.65l.23.33c.27.39.42.63.66,1l1.2,1.85-1,1.74c-.19.29-.33.5-.49.71l-.36.52-.22.32h1.13A1.14,1.14,0,0,0,45,13.07l.52-.88c.06-.11.22-.47.22-.48h0s.14.33.22.48.53.89.53.89a1.18,1.18,0,0,0,1.21.71h1.12l-.23-.32Z"/><path class="cls-2" d="M61.5,12.07a1.08,1.08,0,0,0-.48.15h0a2.68,2.68,0,0,1-1.16.33A1.8,1.8,0,0,1,58,11h4.3a5.33,5.33,0,0,0,0-.67,2.75,2.75,0,0,0-2.83-3,3.05,3.05,0,0,0-3.07,3.3,3.27,3.27,0,0,0,3.37,3.29,3.3,3.3,0,0,0,2.41-1l.11-.11-.07-.13c-.14-.29-.34-.63-.73-.63ZM59.58,8.55a1.23,1.23,0,0,1,1.31,1.26H58A1.59,1.59,0,0,1,59.58,8.55Z"/><path class="cls-2" d="M17.75,14.56a1.64,1.64,0,0,1,2.36,0,1.77,1.77,0,0,1,0,2.44,1.64,1.64,0,0,1-2.36,0A1.79,1.79,0,0,1,17.75,14.56Z"/><path class="cls-2" d="M20.56,11.67a1.76,1.76,0,0,0,0,2.43,1.61,1.61,0,0,0,2.35,0,1.76,1.76,0,0,0,0-2.43A1.63,1.63,0,0,0,20.56,11.67Z"/><path class="cls-2" d="M23.36,8.78a1.75,1.75,0,0,0,0,2.44,1.63,1.63,0,0,0,2.35,0,1.77,1.77,0,0,0,0-2.44A1.63,1.63,0,0,0,23.36,8.78Z"/><path class="cls-2" d="M15,11.67a1.76,1.76,0,0,0,0,2.43,1.62,1.62,0,0,0,2.36,0,1.78,1.78,0,0,0,0-2.43A1.64,1.64,0,0,0,15,11.67Z"/><path class="cls-2" d="M12.16,8.78a1.77,1.77,0,0,0,0,2.44,1.63,1.63,0,0,0,2.35,0,1.77,1.77,0,0,0,0-2.44A1.63,1.63,0,0,0,12.16,8.78Z"/><path class="cls-2" d="M17.75,8.78a1.79,1.79,0,0,0,0,2.44,1.64,1.64,0,0,0,2.36,0,1.77,1.77,0,0,0,0-2.44A1.64,1.64,0,0,0,17.75,8.78Z"/><path class="cls-2" d="M15,5.89a1.77,1.77,0,0,0,0,2.44,1.64,1.64,0,0,0,2.36,0,1.79,1.79,0,0,0,0-2.44A1.64,1.64,0,0,0,15,5.89Z"/><path class="cls-2" d="M20.56,5.89a1.77,1.77,0,0,0,0,2.44,1.63,1.63,0,0,0,2.35,0,1.77,1.77,0,0,0,0-2.44A1.63,1.63,0,0,0,20.56,5.89Z"/><path class="cls-3" d="M17.75,3a1.64,1.64,0,0,1,2.36,0,1.77,1.77,0,0,1,0,2.44,1.64,1.64,0,0,1-2.36,0A1.79,1.79,0,0,1,17.75,3Z"/></svg>