<svg id="Слой_3" data-name="Слой 3" xmlns="http://www.w3.org/2000/svg" viewBox="0 0 19.5 19.35"><defs><style>.cls-1{fill:#ea5e20;}.cls-2{fill:#2a3141;}</style></defs><title>Календарь</title><rect class="cls-1" x="4.5" y="6.35" width="1.5" height="1.5"/><rect class="cls-1" x="9" y="6.35" width="1.5" height="1.5"/><rect class="cls-1" x="13.5" y="6.35" width="1.5" height="1.5"/><rect class="cls-1" x="4.5" y="9.85" width="1.5" height="1.5"/><rect class="cls-1" x="9" y="9.85" width="1.5" height="1.5"/><rect class="cls-1" x="13.5" y="9.85" width="1.5" height="1.5"/><rect class="cls-1" x="4.5" y="13.35" width="1.5" height="1.5"/><rect class="cls-1" x="9" y="13.35" width="1.5" height="1.5"/><rect class="cls-1" x="13.5" y="13.35" width="1.5" height="1.5"/><path class="cls-2" d="M18.75,1.85H15V0H13.5V1.85H6V0H4.5V1.85H.75A.76.76,0,0,0,0,2.6v16a.76.76,0,0,0,.75.75h18a.76.76,0,0,0,.75-.75V2.6A.76.76,0,0,0,18.75,1.85Zm-.75,16H1.5V3.35h3V4H6V3.35h7.5V4H15V3.35h3Z"/></svg>