<svg id="Слой_1" data-name="Слой 1" xmlns="http://www.w3.org/2000/svg" viewBox="0 0 30.9 21.69"><defs><style>.cls-1{fill:#2a3141;}.cls-2{fill:#ea5e20;}</style></defs><title>Машинка</title><path class="cls-1" d="M30.9,11.51,23.3,2.88H19.46V0H0V17.87H4.78a2.76,2.76,0,0,0-.06.57,3.25,3.25,0,0,0,6.5,0,3.68,3.68,0,0,0-.06-.57h8.3V4.38h3.16l6.78,7.69,0,4.34H26.31a3.21,3.21,0,1,0,.41,1.53s0,0,0,0h4.17ZM8,20.19a1.75,1.75,0,1,1,1.75-1.75A1.75,1.75,0,0,1,8,20.19Zm2.48-3.82a3.21,3.21,0,0,0-5,0h-4V1.5H18V16.37Zm13,3.32a1.75,1.75,0,1,1,1.75-1.75A1.75,1.75,0,0,1,23.47,19.69Z"/><path class="cls-2" d="M10,14.19l-.6-.81C8.79,12.61,6,8.67,6,6.72a4,4,0,0,1,8,0c0,2-2.84,5.89-3.4,6.66Zm0-10A2.52,2.52,0,0,0,7.45,6.72c0,1,1.36,3.25,2.51,4.92,1.15-1.67,2.51-4,2.51-4.92A2.51,2.51,0,0,0,10,4.21Z"/><circle class="cls-2" cx="9.95" cy="6.58" r="0.93"/></svg>