<svg id="Capa_1" data-name="Capa 1" xmlns="http://www.w3.org/2000/svg" viewBox="0 0 16 16"><defs><style>.cls-1{fill:#ea5e20;}</style></defs><title>Скрепка</title><path class="cls-1" d="M14.64,1.35a4.36,4.36,0,0,0-6.31,0L1,9.08A3.75,3.75,0,0,0,1,14.2a3.31,3.31,0,0,0,4.81,0l6.66-7a2.4,2.4,0,0,0,0-3.29,2.14,2.14,0,0,0-3.13,0L3,10.6a.63.63,0,0,0,0,.86.56.56,0,0,0,.81,0l6.36-6.69a1,1,0,0,1,1.5,0,1.16,1.16,0,0,1,0,1.54L5,13.34a2.2,2.2,0,0,1-3.23,0,2.49,2.49,0,0,1,0-3.38L9.15,2.21a3.26,3.26,0,0,1,4.75,0,3.66,3.66,0,0,1,0,5L6.54,14.93a.63.63,0,0,0-.06.86.57.57,0,0,0,.82.06l.06-.06,7.35-7.73A4.91,4.91,0,0,0,14.64,1.35Z"/></svg>