<svg xmlns="http://www.w3.org/2000/svg" viewBox="0 0 28.82 32.07"><defs><style>.cls-1{fill:#ea5e20;}.cls-2{fill:#2a3141;}</style></defs><title>Доставка в любой регион</title><g id="Слой_2" data-name="Слой 2"><rect class="cls-1" x="6.02" y="25.74" width="16.78" height="1.5" transform="translate(-10.78 9.91) rotate(-28.1)"/></g><g id="Слой_3" data-name="Слой 3"><path class="cls-2" d="M21.81,24.17l-.67-1.28C20.49,21.64,14.8,10.55,14.8,7a7,7,0,0,1,14,0c0,3.54-5.69,14.63-6.34,15.88Zm0-22.67A5.51,5.51,0,0,0,16.3,7c0,2.39,3.52,9.91,5.51,13.88,2-4,5.51-11.49,5.51-13.88A5.51,5.51,0,0,0,21.81,1.5Z"/><path class="cls-1" d="M21.81,10.14a3.45,3.45,0,1,1,3.45-3.45A3.45,3.45,0,0,1,21.81,10.14Zm0-5.39a1.95,1.95,0,1,0,2,1.94A2,2,0,0,0,21.81,4.75Z"/><path class="cls-2" d="M7,32.07l-.67-1.28C5.69,29.54,0,18.45,0,14.91a7,7,0,0,1,14,0c0,3.54-5.69,14.63-6.34,15.88ZM7,9.4A5.51,5.51,0,0,0,1.5,14.91C1.5,17.3,5,24.82,7,28.79c2-4,5.51-11.49,5.51-13.88A5.51,5.51,0,0,0,7,9.4Z"/><path class="cls-1" d="M7,18a3.45,3.45,0,1,1,3.45-3.44A3.45,3.45,0,0,1,7,18Zm0-5.39A1.95,1.95,0,1,0,9,14.6,2,2,0,0,0,7,12.65Z"/></g></svg>