<svg xmlns="http://www.w3.org/2000/svg" viewBox="0 0 29.82 31.95"><defs><style>.cls-1{fill:#2a3141;}.cls-2{fill:#ea5e20;}.cls-3{fill:none;stroke:#ea5e20;stroke-miterlimit:10;stroke-width:1.5px;}</style></defs><title>Доставка курьером (за МКАД)</title><g id="Слой_2" data-name="Слой 2"><rect class="cls-1" x="3.92" y="23.2" width="5.91" height="1.5"/><rect class="cls-1" x="3.92" y="26.15" width="13.44" height="1.5"/><polygon class="cls-2" points="18.11 20.39 14.65 17.61 10.84 20.26 10.84 1.2 12.34 1.2 12.34 17.39 14.71 15.74 16.61 17.26 16.61 12.76 18.11 12.76 18.11 20.39"/><polygon class="cls-2" points="29.82 31.95 0 31.95 0 2.13 11.52 2.13 11.52 3.63 1.5 3.63 1.5 30.45 28.32 30.45 28.32 3.63 26.17 3.63 26.17 2.13 29.82 2.13 29.82 31.95"/><polygon class="cls-2" points="12.34 4.42 10.84 4.42 10.84 0.45 18.11 0.45 18.11 2.27 16.61 2.27 16.61 1.95 12.34 1.95 12.34 4.42"/><path class="cls-3" d="M14.68,16.68"/></g><g id="Слой_3" data-name="Слой 3"><path class="cls-1" d="M21.83,24.17l-.66-1.28C20.52,21.64,14.82,10.55,14.82,7a7,7,0,0,1,14,0c0,3.54-5.69,14.63-6.34,15.88Zm0-22.67A5.51,5.51,0,0,0,16.32,7c0,2.39,3.52,9.91,5.51,13.88,2-4,5.51-11.49,5.51-13.88A5.51,5.51,0,0,0,21.83,1.5Z"/><path class="cls-2" d="M21.83,10.14a3.45,3.45,0,1,1,3.45-3.45A3.45,3.45,0,0,1,21.83,10.14Zm0-5.39a1.95,1.95,0,1,0,2,1.94A2,2,0,0,0,21.83,4.75Z"/></g></svg>