<svg id="Слой_3" data-name="Слой 3" xmlns="http://www.w3.org/2000/svg" viewBox="0 0 17.47 12"><defs><style>.cls-1{fill:#ea5e20;}</style></defs><title>Доставка</title><path class="cls-1" d="M17.47,6.56,13.2,1.71H10.67V0H0V9.73H2.08a1.23,1.23,0,0,0,0,.19,2.08,2.08,0,0,0,4.16,0,1.23,1.23,0,0,0,0-.19h4.47v-7h2.07l3.73,4.22v1.8H15.13a2.07,2.07,0,1,0,.33,1.11s0-.07,0-.11h2ZM4.14,11A1.08,1.08,0,1,1,5.22,9.92,1.08,1.08,0,0,1,4.14,11ZM9.67,8.73H5.84a2,2,0,0,0-1.7-.89,2.08,2.08,0,0,0-1.7.89H1V1H9.67Zm3.71,2.19a1.08,1.08,0,1,1,1.08-1.08A1.08,1.08,0,0,1,13.38,10.92Z"/></svg>