<svg id="Слой_1" data-name="Слой 1" xmlns="http://www.w3.org/2000/svg" xmlns:xlink="http://www.w3.org/1999/xlink" viewBox="0 0 90 20"><defs><style>.cls-1{fill:#fff;}.cls-2,.cls-3,.cls-4{fill-rule:evenodd;}.cls-2{fill:url(#GradientFill_1);}.cls-3{fill:url(#GradientFill_2);}.cls-4{fill:#231f20;}</style><linearGradient id="GradientFill_1" x1="16.94" y1="10.89" x2="20.69" y2="12.98" gradientUnits="userSpaceOnUse"><stop offset="0" stop-color="#ffbb4f"/><stop offset="0.3" stop-color="#ffc05d"/><stop offset="0.47" stop-color="#fa8e45"/><stop offset="0.61" stop-color="#fb974a"/><stop offset="0.76" stop-color="#ffb13d"/><stop offset="1" stop-color="#ffd678"/></linearGradient><linearGradient id="GradientFill_2" x1="20.58" y1="13.53" x2="29.61" y2="15.99" gradientUnits="userSpaceOnUse"><stop offset="0" stop-color="#fc9c3a"/><stop offset="1" stop-color="#ffc053"/></linearGradient></defs><title>Деловые Линии</title><rect class="cls-1" width="90" height="20"/><path class="cls-2" d="M14.84,12l6.34,2.76-.55.94-7.16-1.31L14.84,12Zm-1.67,2.9-1.54,2.64h8l.58-1.24-7.07-1.4ZM20,3.05,24,10l-.67,1.16L18.51,5.72,20,3.05ZM16.81,8.6l5.62,4.1.54-.92L18.22,6.2,16.81,8.6Zm-1.68,2.88,6.41,2.72.55-1L16.52,9.06Z"/><polygon class="cls-3" points="20.33 17.49 24.37 10.53 28.38 17.48 26.22 17.48 24.38 14.29 22.53 17.49 20.33 17.49"/><path class="cls-4" d="M44.93,12.26h1.3v3.33l2.92-3.33H50.3v5.23H49V14.13L46,17.5h-1.1V12.26ZM37.39,17.5l3-5.25h1.05l3,5.23h-1.6l-2-3.42-2,3.42Zm14.28-5.24h1.27v2h2.71v-2H57V17.5h-1.3v-2H52.94v2H51.67V12.26Zm6.65,0h1.3v3.33l2.92-3.33H63.7v5.23H62.4V14.13l-3,3.37h-1.1V12.26Zm6.75,0h1.3v3.32l2.9-3.32h1.14V17.5H69.15V14.12l-3,3.38H65.07Z"/><path class="cls-4" d="M69.82,3.66h1.3V8.9h-1.3V3.66Zm2.67,0,5.88,0-.68,1.15h-5.2V3.66Zm0,2h4.73l-.7,1.19h-4V5.67Zm-42.14,2,3-5.2h1l3,5.2h.76v2.7H36.91V8.9H30.8v1.51H29.57V7.71Zm3.48-3.36L31.89,7.7h3.88L33.83,4.34ZM39,3.66H44.9l-.69,1.16H39V3.66Zm7.34,0-3,5.22h1.53l2-3.41,2,3.41h1.61l-3-5.24-1.06,0ZM39,5.67h4.71L43,6.86H39V5.67Zm0,2h3.54L41.89,8.9H39V7.71ZM52.57,3.62A4.11,4.11,0,0,1,55.51,4a2.77,2.77,0,0,1,.43,4.08A3.56,3.56,0,0,1,53.18,9,3,3,0,0,1,51.07,8a2.89,2.89,0,0,1-.4-2.94,2.68,2.68,0,0,1,1.9-1.48Zm.23,1.21a1.56,1.56,0,0,0-.44,2.62,2.19,2.19,0,0,0,2.09.14,1.61,1.61,0,0,0,.38-2.48,2.24,2.24,0,0,0-2-.28Zm5-1.17h3.58a1.49,1.49,0,0,1,1.14.42,1.2,1.2,0,0,1-.28,1.73,1.64,1.64,0,0,1,.52,2.61,2.1,2.1,0,0,1-1.51.48H57.76V3.66ZM59,4.79c0,.29,0,.59,0,.88.68,0,1.36,0,2,0,.44,0,.46-.85,0-.85-.68,0-1.37,0-2,0Zm0,1.9c0,.36,0,.72,0,1.09.77,0,1.55,0,2.32,0,.57,0,.62-1,.08-1-.8,0-1.6,0-2.4,0Zm5.3-3H65.6V5.52a23.28,23.28,0,0,1,2.64.07,1.5,1.5,0,0,1,1,1.73,1.58,1.58,0,0,1-1.55,1.57c-1.11,0-2.23,0-3.34,0V3.66Zm1.27,3V7.77c.64,0,1.29,0,1.93,0s.55-1.08,0-1.1-1.28,0-1.91,0Zm6.89,1.09H76L75.36,8.9H72.49Z"/></svg>