<svg id="Layer_1" data-name="Layer 1" xmlns="http://www.w3.org/2000/svg" viewBox="0 0 30 30"><defs><style>.cls-1{fill:#ea5e20;}.cls-2{fill:#2b3240;}</style></defs><title>Дистрибьюции</title><path class="cls-1" d="M21.61,11.82l0-.05,0-.09a.21.21,0,0,1,0-.06l-.06-.06-.05-.05-.06,0-6-3.61a.58.58,0,0,0-.62,0l-6,3.61-.07,0,0,.05-.05.06-.05.06,0,.09,0,.05a.88.88,0,0,0,0,.16v6a.58.58,0,0,0,.3.51l6,3.62h0l.1,0h0a.58.58,0,0,0,.32,0h0l.1,0h0l6-3.62a.58.58,0,0,0,.3-.51V12A.88.88,0,0,0,21.61,11.82ZM15,9.07l1.84,1.1L12,13.08,10.15,12Zm-.6,11.49-4.82-2.9V13l4.82,2.9Zm.6-5.67-1.84-1.1L18,10.87,19.85,12Zm5.42,2.78L15.6,20.56V15.94L20.42,13Z"/><path class="cls-2" d="M15.49.23a.63.63,0,0,0-.9-.08.38.38,0,0,0-.09.09L12.94,2.32l1,.74.45-.59V6.19h1.24V2.47l.45.59,1-.74L15.5.24Z"/><path class="cls-2" d="M15.62,27.52V23.8H14.38v3.72l-.45-.6-1,.75,1.56,2.08A.64.64,0,0,0,15,30a.63.63,0,0,0,.37-.12.8.8,0,0,0,.13-.13l1.56-2.08-1-.75Z"/><path class="cls-2" d="M6.2,15.61V14.37H2.48l.59-.44-.74-1L.25,14.5a.62.62,0,0,0-.13.87.74.74,0,0,0,.13.12l2.08,1.56.74-1-.59-.45Z"/><path class="cls-2" d="M29.88,14.62h0a.74.74,0,0,0-.13-.12l-2.08-1.56-.74,1,.59.44H23.8v1.24h3.72l-.59.45.74,1,2.08-1.56A.62.62,0,0,0,29.88,14.62Z"/><path class="cls-2" d="M7.32,5.8,7.5,4.58,4.92,4.21a.61.61,0,0,0-.7.52.54.54,0,0,0,0,.18l.36,2.58,1.23-.18-.1-.73L8.34,9.21l.87-.88L6.58,5.7Z"/><path class="cls-2" d="M25.42,22.5l-1.23.18.1.73-2.63-2.63-.87.88,2.63,2.63-.74-.11-.18,1.23,2.58.37h.09a.62.62,0,0,0,.62-.62.28.28,0,0,0,0-.09Z"/><path class="cls-2" d="M8.34,20.78,5.71,23.41l.1-.73L4.59,22.5l-.37,2.58a.61.61,0,0,0,.52.7h.18l2.57-.37-.17-1.23-.74.11,2.63-2.63Z"/><path class="cls-2" d="M21.66,9.21l2.63-2.63-.1.73,1.22.18.37-2.58a.65.65,0,0,0-.17-.53.62.62,0,0,0-.53-.17l-2.58.37.18,1.22.74-.1L20.79,8.33Z"/></svg>