<svg id="_1" data-name="1" xmlns="http://www.w3.org/2000/svg" viewBox="0 0 90 20"><defs><style>.cls-1{fill:#fecc00;}.cls-1,.cls-2{fill-rule:evenodd;}.cls-2{fill:#d21f34;}</style></defs><title>DNL</title><polygon class="cls-1" points="90 0 90 20 0 20 0 0 90 0 90 0"/><path class="cls-2" d="M15.83,3.59,13,7.53H28.62c.8,0,.78.3.4.83s-1.05,1.47-1.45,2c-.21.28-.57.78.64.78h6.41s1-1.42,1.9-2.6c1.18-1.61.1-5-4.11-5Z"/><path class="cls-2" d="M11.79,16.41l5.77-7.9h7.17c.79,0,.78.3.4.83s-1.07,1.46-1.47,2c-.2.28-.57.78.65.78h9.6a10,10,0,0,1-8,4.29Z"/><polygon class="cls-2" points="44.87 12.12 41.73 16.41 33.47 16.41 36.6 12.12 44.87 12.12 44.87 12.12"/><polygon class="cls-2" points="57.52 11.15 37.31 11.15 42.84 3.59 51.1 3.59 47.93 7.92 51.62 7.92 54.79 3.59 63.05 3.59 57.52 11.15 57.52 11.15"/><polygon class="cls-2" points="56.81 12.12 53.68 16.41 45.42 16.41 48.55 12.12 56.81 12.12 56.81 12.12"/><polygon class="cls-2" points="0 13.81 12.17 13.81 11.51 14.72 0 14.72 0 13.81"/><polygon class="cls-2" points="0 12.12 13.41 12.12 12.74 13.03 0 13.03 0 12.12"/><polygon class="cls-2" points="0 15.5 10.94 15.5 10.27 16.41 0 16.41 0 15.5"/><polygon class="cls-2" points="90 14.72 77.88 14.72 78.54 13.81 90 13.81 90 14.72"/><polygon class="cls-2" points="90 16.41 76.64 16.41 77.31 15.5 90 15.5 90 16.41"/><polygon class="cls-2" points="79.78 12.12 90 12.12 90 13.03 79.11 13.03 79.78 12.12 79.78 12.12"/><polygon class="cls-2" points="74.48 3.59 68.96 11.15 60.21 11.15 65.74 3.59 74.48 3.59 74.48 3.59"/><path class="cls-2" d="M59.5,12.12l-.9,1.23c-1,1.41-.12,3.06,3.27,3.06H75.13l3.13-4.29Z"/></svg>