<svg id="Слой_3" data-name="Слой 3" xmlns="http://www.w3.org/2000/svg" viewBox="0 0 47.11 60"><defs><style>.cls-1{fill:#eaecf0;}.cls-2{fill:#fff;}.cls-3{fill:#5274bf;}</style></defs><title>DOC</title><path class="cls-1" d="M34.18,0H0V60H47.11V12.93ZM46.11,59H1V1H33.18V13.93H46.11Z"/><path class="cls-2" d="M47.11,0"/><path class="cls-3" d="M18.8,40.68h-.45a1.6,1.6,0,0,0-.44,0v6l.35,0h.47A3.18,3.18,0,0,0,21.1,46a3.7,3.7,0,0,0,0-4.49A3.09,3.09,0,0,0,18.8,40.68Z"/><path class="cls-3" d="M32.05,41.47a2.11,2.11,0,0,0-.8-.62,2.4,2.4,0,0,0-1.06-.22,2.35,2.35,0,0,0-1.07.23,2.19,2.19,0,0,0-.8.62,3,3,0,0,0-.49,1,4.72,4.72,0,0,0,0,2.51,3,3,0,0,0,.49,1,2.19,2.19,0,0,0,.8.62,2.47,2.47,0,0,0,1.07.22,2.4,2.4,0,0,0,1.06-.22,2.11,2.11,0,0,0,.8-.62,2.78,2.78,0,0,0,.49-1,4.46,4.46,0,0,0,.18-1.26,4.58,4.58,0,0,0-.18-1.27A2.62,2.62,0,0,0,32.05,41.47Z"/><path class="cls-3" d="M0,36.54v14.3H47.11V36.54ZM13.86,48.3a1.38,1.38,0,0,1-1.77,0,1.15,1.15,0,0,1-.4-.94,1.18,1.18,0,0,1,.4-.94,1.4,1.4,0,0,1,1.77,0,1.18,1.18,0,0,1,.4.94A1.15,1.15,0,0,1,13.86,48.3Zm9.82-2.44a3.84,3.84,0,0,1-1.09,1.52,4.63,4.63,0,0,1-1.71.91,8,8,0,0,1-2.28.3c-.38,0-.83,0-1.34-.05a11,11,0,0,1-1.51-.2V39.1a11.56,11.56,0,0,1,1.54-.19c.53,0,1,0,1.38,0a7.88,7.88,0,0,1,2.21.28A4.34,4.34,0,0,1,22.6,40a3.83,3.83,0,0,1,1.1,1.51,5.6,5.6,0,0,1,.38,2.18A5.44,5.44,0,0,1,23.68,45.86Zm10.86,0a4.47,4.47,0,0,1-1,1.54,4.14,4.14,0,0,1-1.5.94,5.65,5.65,0,0,1-1.87.32,5.48,5.48,0,0,1-1.84-.32,4.14,4.14,0,0,1-1.5-.94,4.41,4.41,0,0,1-1-1.54,5.87,5.87,0,0,1-.37-2.15,5.61,5.61,0,0,1,.4-2.14,4.59,4.59,0,0,1,1-1.55,4.09,4.09,0,0,1,1.51-.94,5,5,0,0,1,1.8-.32,5.24,5.24,0,0,1,1.84.32,4.05,4.05,0,0,1,1.5.94,4.4,4.4,0,0,1,1,1.56,5.73,5.73,0,0,1,.37,2.13A5.87,5.87,0,0,1,34.54,45.86Zm8.37,2.59a7.56,7.56,0,0,1-1.89.21,4.61,4.61,0,0,1-3.53-1.29,5.05,5.05,0,0,1-1.2-3.66,5.57,5.57,0,0,1,.37-2.1,4.37,4.37,0,0,1,1-1.56,4.24,4.24,0,0,1,1.53-1,5.52,5.52,0,0,1,1.93-.33,6.59,6.59,0,0,1,1.09.09,6.13,6.13,0,0,1,.87.21,3.22,3.22,0,0,1,.61.24,2,2,0,0,1,.36.19l-.62,1.74a5.27,5.27,0,0,0-1-.4,4.51,4.51,0,0,0-1.32-.16,2.67,2.67,0,0,0-1,.16,2.15,2.15,0,0,0-.83.53,2.44,2.44,0,0,0-.58.93,3.73,3.73,0,0,0-.22,1.4,4.6,4.6,0,0,0,.14,1.23,2.59,2.59,0,0,0,.46,1,2.36,2.36,0,0,0,.85.65,3,3,0,0,0,1.26.24,5.69,5.69,0,0,0,.83-.06l.66-.12a4.24,4.24,0,0,0,.5-.18l.4-.18L44.19,48A5.24,5.24,0,0,1,42.91,48.45Z"/></svg>