<svg id="_1" data-name="1" xmlns="http://www.w3.org/2000/svg" viewBox="0 0 90 20"><defs><style>.cls-1{fill:#fff;}.cls-2{fill:#d50032;}.cls-2,.cls-3{fill-rule:evenodd;}.cls-3{fill:#414042;}</style></defs><title>DPD</title><rect class="cls-1" width="90" height="20"/><path class="cls-2" d="M11.38,2.16a.53.53,0,0,1,.46,0l.26.13,5.65,3.09-.82.48-3.36,2a.23.23,0,0,0-.1.22v.39a.27.27,0,0,0,.11.18l.28.17A.75.75,0,0,0,14,8.8a.22.22,0,0,0,.16,0L18.08,6.5v6.58a.51.51,0,0,1-.15.37,1,1,0,0,1-.17.12L11.92,17a.5.5,0,0,1-.52,0L5.52,13.56a.62.62,0,0,1-.17-.11.5.5,0,0,1-.14-.36V6.5L11,9.87a.14.14,0,0,1,.07.12v5a.21.21,0,0,0,.12.19l.3.17a.32.32,0,0,0,.19,0,.51.51,0,0,0,.15-.07l.27-.15a.22.22,0,0,0,.12-.2V9.37a.2.2,0,0,0-.11-.19L5.53,5.35Z"/><path class="cls-3" d="M28.16,2.5h2.17V14a11.1,11.1,0,0,1-1.61.29,16.26,16.26,0,0,1-1.85.09,6.17,6.17,0,0,1-2-.35,3.87,3.87,0,0,1-1.6-1.1,3.42,3.42,0,0,1-.57-.93,4.5,4.5,0,0,1-.32-1.36,5.31,5.31,0,0,1,0-1.32,4.12,4.12,0,0,1,.43-1.31,3.77,3.77,0,0,1,.72-1,3.71,3.71,0,0,1,.93-.65A4.84,4.84,0,0,1,26.89,6,3.94,3.94,0,0,1,28,6.17l.14.06V2.5ZM25.7,8.14a1.91,1.91,0,0,0-.81.78A2.41,2.41,0,0,0,24.61,10a3,3,0,0,0,.22,1.25,2.12,2.12,0,0,0,.61.78,2.37,2.37,0,0,0,.95.41,3.49,3.49,0,0,0,.85.07,4.7,4.7,0,0,0,.92-.09V8.15a3,3,0,0,0-1.23-.25A2.58,2.58,0,0,0,25.7,8.14Z"/><path class="cls-3" d="M46,2.5h2.17V14a11.57,11.57,0,0,1-1.56.28,15,15,0,0,1-1.89.1A6,6,0,0,1,43,14.15a4.09,4.09,0,0,1-1.2-.6,3.31,3.31,0,0,1-.85-.86,3.93,3.93,0,0,1-.6-1.43,5.59,5.59,0,0,1-.07-1.58,4.45,4.45,0,0,1,.38-1.44,3.78,3.78,0,0,1,.67-1,3.72,3.72,0,0,1,1-.74A4.6,4.6,0,0,1,44.41,6a5.21,5.21,0,0,1,.88.06,2.42,2.42,0,0,1,.7.19V2.5ZM43.67,8.08a1.85,1.85,0,0,0-.86.7,2.45,2.45,0,0,0-.37,1.29,2.71,2.71,0,0,0,.33,1.42,2,2,0,0,0,.86.79,3,3,0,0,0,1.46.27,4.58,4.58,0,0,0,.9-.09V8.15a3.28,3.28,0,0,0-1.42-.25A2.49,2.49,0,0,0,43.67,8.08Z"/><path class="cls-3" d="M33,6.2A10.26,10.26,0,0,1,35,6a6.13,6.13,0,0,1,1.6.17,4.57,4.57,0,0,1,1.23.51,3.85,3.85,0,0,1,.91.8,3.71,3.71,0,0,1,.64,1.21,4.55,4.55,0,0,1,.19,1.56,5,5,0,0,1-.32,1.71,3.8,3.8,0,0,1-.69,1.16,3.65,3.65,0,0,1-1,.78,5.28,5.28,0,0,1-2.25.54h-.33c0-.64,0-1.27,0-1.9a2.79,2.79,0,0,0,1.46-.4,2.08,2.08,0,0,0,.7-.83,2.85,2.85,0,0,0,.21-.81,2.6,2.6,0,0,0-.21-1.43,1.81,1.81,0,0,0-.76-.81A2.39,2.39,0,0,0,35.54,8a4.4,4.4,0,0,0-.89,0,3.42,3.42,0,0,0-.9.18V17.5H31.56V6.65A8.18,8.18,0,0,1,33,6.2Z"/><path class="cls-3" d="M52.75,6.52a5.29,5.29,0,0,1,1.57-.28A5.83,5.83,0,0,1,56,6.42a3.89,3.89,0,0,1,.75.25v7.16a8,8,0,0,1,0,.85,3.15,3.15,0,0,1-.47,1.39,2.71,2.71,0,0,1-1,.93,3.84,3.84,0,0,1-1.59.42,6.54,6.54,0,0,1-1.53-.12,3.63,3.63,0,0,1-.79-.25l-.2-.1c0-.2,0-.4,0-.6a4.25,4.25,0,0,0,1.39.48,5.1,5.1,0,0,0,.87.07,3.41,3.41,0,0,0,1.44-.3,2.09,2.09,0,0,0,.87-.74,2.9,2.9,0,0,0,.43-1.31c0-.24,0-.48,0-.72a2.64,2.64,0,0,1-.68.25,5.71,5.71,0,0,1-1.7.1,5,5,0,0,1-1.43-.34,3.56,3.56,0,0,1-1-.59,3.46,3.46,0,0,1-.78-1,4.32,4.32,0,0,1-.41-1.41,4.85,4.85,0,0,1,.07-1.61,3.64,3.64,0,0,1,.56-1.31,3.55,3.55,0,0,1,.81-.83,4,4,0,0,1,1.1-.57Zm.5.39a3.59,3.59,0,0,0-1.2.57,2.91,2.91,0,0,0-.85,1,3.59,3.59,0,0,0-.42,1.5A4.77,4.77,0,0,0,51,11.49a3.23,3.23,0,0,0,.67,1.18,3,3,0,0,0,1.17.76,5.21,5.21,0,0,0,2.69.15,4.52,4.52,0,0,0,.71-.23V7a4.78,4.78,0,0,0-1.4-.24A5.05,5.05,0,0,0,53.25,6.91Z"/><path class="cls-3" d="M66.58,6.24a4,4,0,0,1,1.33.13,3.73,3.73,0,0,1,1,.49,3.62,3.62,0,0,1,1.3,1.64,4.9,4.9,0,0,1,.3,2.18,4.27,4.27,0,0,1-.68,2,3.89,3.89,0,0,1-.82.85,3.72,3.72,0,0,1-2,.69,3.88,3.88,0,0,1-2.16-.5,3.46,3.46,0,0,1-.91-.79,4.09,4.09,0,0,1-.87-2.2,4.67,4.67,0,0,1,.41-2.5,3.8,3.8,0,0,1,.66-.94,3.49,3.49,0,0,1,1-.72,3.56,3.56,0,0,1,1.4-.34Zm-.1.52a3,3,0,0,0-1.7.72,3.07,3.07,0,0,0-.71.92,4.28,4.28,0,0,0-.39,2.23,4,4,0,0,0,.3,1.24,3,3,0,0,0,.62.94,2.67,2.67,0,0,0,.81.6,3.11,3.11,0,0,0,1.12.3,3.48,3.48,0,0,0,1.2-.11,2.94,2.94,0,0,0,1.47-.95,3.56,3.56,0,0,0,.74-1.88,4.61,4.61,0,0,0,0-1.23,3.47,3.47,0,0,0-.7-1.69,2.88,2.88,0,0,0-1.48-1A3.36,3.36,0,0,0,66.48,6.76Z"/><path class="cls-3" d="M81,6.26a6.22,6.22,0,0,1,1.67.06A4.09,4.09,0,0,1,84,6.75a3.05,3.05,0,0,1,.94.73,3.39,3.39,0,0,1,.65,1.12,4.66,4.66,0,0,1,.24,1.53,4.84,4.84,0,0,1-.25,1.64,3.54,3.54,0,0,1-1.44,1.84,4.25,4.25,0,0,1-1.23.5,5,5,0,0,1-1.89.07v-.51a4.63,4.63,0,0,0,1.66,0A3.18,3.18,0,0,0,84,13a3,3,0,0,0,.84-1,3.8,3.8,0,0,0,.39-1.52A4.39,4.39,0,0,0,85,8.87a2.92,2.92,0,0,0-.71-1.18A3,3,0,0,0,83.12,7a4.59,4.59,0,0,0-1.68-.23,6.54,6.54,0,0,0-.89.07,3.83,3.83,0,0,0-.74.19c0,2.82,0,5.64,0,8.46,0,.6,0,1.21,0,1.82h-.58V6.67A7,7,0,0,1,81,6.26Z"/><path class="cls-3" d="M61.45,6.39a8.75,8.75,0,0,1,1.62.05V7a8.22,8.22,0,0,0-1.57-.06,4.13,4.13,0,0,0-1.31.27,2.3,2.3,0,0,0-.54.33,1.72,1.72,0,0,0-.37.48,1.93,1.93,0,0,0-.2.71c0,.24,0,.48,0,.71v4.82h-.59V9.34a5.79,5.79,0,0,1,0-.93A2.24,2.24,0,0,1,59,7.33a2.42,2.42,0,0,1,1-.68A4.75,4.75,0,0,1,61.45,6.39Z"/><path class="cls-3" d="M71.6,6.37h.59v4.8a5.38,5.38,0,0,0,0,.9,1.84,1.84,0,0,0,.31.75,1.88,1.88,0,0,0,.88.64,4,4,0,0,0,1,.21,8,8,0,0,0,1.9-.05,6.17,6.17,0,0,0,.62-.09V6.37h.59V14a15.06,15.06,0,0,1-1.89.26,7.17,7.17,0,0,1-1.85-.1,3,3,0,0,1-1.33-.56,1.86,1.86,0,0,1-.48-.56,2.3,2.3,0,0,1-.28-.85,7.63,7.63,0,0,1,0-1Z"/></svg>