<svg id="Слой_1" data-name="Слой 1" xmlns="http://www.w3.org/2000/svg" viewBox="0 0 90 20"><defs><style>.cls-1{fill:#fff;}.cls-2{fill:#0037a4;}.cls-2,.cls-3{fill-rule:evenodd;}.cls-3{fill:#f67f00;}</style></defs><title>EMS</title><rect class="cls-1" width="90" height="20"/><path class="cls-2" d="M48.25,2.5l-1,4.23H43.94l-.24,1h3l-1.07,4.44h-3l-.3,1.27h3.25l-.9,4H37.32l.44-1.81h6.1l.2-.83H38l.44-1.81H41.2l.2-.83H38.61l.45-1.81h5.79l.21-.83h-5.8l.44-1.8h2.78L42.69,7H39.91l.44-1.81h6.1l.2-.83H40.56L41,2.5Zm8.35,0-.8,1.81H60l-.19.83H55.42L54.62,7h4.72l-.24.83H54.25L54.13,8,53.82,2.5H49.49l-.44,1.81h3.79l0,.83h-4L48.4,7h4.53l.1.83H48.19l-.44,1.8h2.46l-.19.83H47.55l-.45,1.81h2.48l-.2.83H46.9l-.44,1.81h2.47l-.21.83H46.25l-.44,1.81h3.7L51.4,9.58h3.94l-.39.83H51.33l-.1,1.81h2.85l-.35.83H51.19l-.1,1.81h1.78l-.34.83H51l-.1,1.81h2l3-6.76-.39,1.48H58l-.22.83H55.32l-.48,1.81h2.53l-.22.83H54.62l-.48,1.81h3.77l3.74-15Zm1.9,7.91H56.09l.35-.83h2.23l-.17.83ZM69.25,2.5,70.79,5l-.51,2H66.51l.14-.6h-.87l-.41,1.56h2.11l1.84,2.78L68.24,15.3l-2.4,2.2H61.05l-1.23-1.81h6.24l1.06-.83H59.79l.44-1.81h3.86l-.17.83h.87l.17-.82h2.62l.18-.83H62.64L61,10.41h7l-.57-.83H61.07l.45-1.8h2.64L64.37,7H61.73l.45-1.81H69.5L69,4.31H62.68L64.85,2.5Z"/><path class="cls-3" d="M26.61,9.58h10.8l.44-1.8H24.74l1.87,1.8Zm8.3,7.92h.57l.44-1.81H33l1.88,1.81ZM23.84,7H38.05l.44-1.81H22L23.84,7ZM21.08,4.31H38.7l.43-1.81H19.21l1.87,1.81Zm8.29,7.91h7.4l.43-1.81H27.5l1.87,1.81Zm2.77,2.64h4l.43-1.81H30.27Z"/></svg>