<svg id="Слой_3" data-name="Слой 3" xmlns="http://www.w3.org/2000/svg" viewBox="0 0 20 20.33"><defs><style>.cls-1{fill:#2a3141;}.cls-2{fill:#ea5e20;}</style></defs><title>Фильтры</title><rect class="cls-1" x="8.7" y="2" width="11.3" height="1.5"/><rect class="cls-1" y="2" width="4.69" height="1.5"/><rect class="cls-1" y="9.42" width="20" height="1.5"/><rect class="cls-1" x="14.61" y="16.83" width="5.39" height="1.5"/><rect class="cls-1" y="16.83" width="11.1" height="1.5"/><path class="cls-2" d="M12.91,20.33a2.75,2.75,0,1,1,2.75-2.75A2.75,2.75,0,0,1,12.91,20.33Zm0-4a1.25,1.25,0,1,0,1.25,1.25A1.26,1.26,0,0,0,12.91,16.33Z"/><path class="cls-2" d="M6.65,5.5A2.75,2.75,0,1,1,9.4,2.75,2.75,2.75,0,0,1,6.65,5.5Zm0-4A1.25,1.25,0,1,0,7.9,2.75,1.25,1.25,0,0,0,6.65,1.5Z"/></svg>