<svg id="Слой_3" data-name="Слой 3" xmlns="http://www.w3.org/2000/svg" viewBox="0 0 52 47.34"><defs><style>.cls-1{fill:#ea5e20;}.cls-2{fill:#2b3240;}</style></defs><title>ГЕО на карте</title><path class="cls-1" d="M26,47.34c-12.6,0-26-3.08-26-8.78s13.4-8.77,26-8.77,26,3.07,26,8.77S38.6,47.34,26,47.34Zm0-15.55c-14.14,0-24,3.57-24,6.77s9.86,6.78,24,6.78,24-3.57,24-6.78S40.14,31.79,26,31.79Z"/><path class="cls-2" d="M26,40l-1-1.14c-.57-.66-14.08-16.32-14.08-24.13A14.91,14.91,0,0,1,26,0,14.92,14.92,0,0,1,41.07,14.73c0,7.81-13.51,23.47-14.08,24.13Z"/><path class="cls-1" d="M26,21.93a7.43,7.43,0,1,1,7.43-7.43A7.43,7.43,0,0,1,26,21.93ZM26,9.7a4.81,4.81,0,1,0,4.81,4.8h0A4.81,4.81,0,0,0,26,9.7Z"/></svg>