<?xml version="1.0" encoding="utf-8"?>
<!-- Generator: Adobe Illustrator 23.0.6, SVG Export Plug-In . SVG Version: 6.00 Build 0)  -->
<svg version="1.1" id="Слой_3" xmlns="http://www.w3.org/2000/svg" xmlns:xlink="http://www.w3.org/1999/xlink" x="0px" y="0px"
	 viewBox="0 0 66 60" style="enable-background:new 0 0 66 60;" xml:space="preserve">
<style type="text/css">
	.st0{fill:#EA5E20;}
	.st1{fill:#2B3240;}
	.st2{fill:#FFFFFF;}
</style>
<g>
	<title>ГЕО Созвездие на карте</title>
	<path class="st0" d="M33,60C17,60,0,56.1,0,48.9s17-11.1,33-11.1s33,3.9,33,11.1S48.9,60,33,60z M33,40.3
		c-17.9,0-30.4,4.5-30.4,8.6S15,57.5,33,57.5s30.4-4.5,30.4-8.6S50.9,40.3,33,40.3z"/>
	<path class="st1" d="M33,50.7l-1.3-1.5C31,48.4,13.9,28.6,13.9,18.7C14.1,8.1,22.9-0.2,33.4,0c10.2,0.2,18.4,8.5,18.7,18.7
		c0,9.9-17.1,29.7-17.8,30.6L33,50.7z"/>
	<circle class="st2" cx="33" cy="18.5" r="9"/>
</g>
</svg>
