<svg id="Слой_3" data-name="Слой 3" xmlns="http://www.w3.org/2000/svg" viewBox="0 0 17.25 22.89"><defs><style>.cls-1{fill:#fff;}.cls-2{fill:#ff8853;}</style></defs><title>ГЕО</title><path class="cls-1" d="M8.63,22.89l-.57-.65C7.73,21.86,0,12.9,0,8.43A8.54,8.54,0,0,1,8.63,0a8.54,8.54,0,0,1,8.62,8.43c0,4.47-7.73,13.43-8.06,13.81Zm0-21.39A7,7,0,0,0,1.5,8.43c0,3,4.71,9.26,7.13,12.16,2.41-2.9,7.12-9.17,7.12-12.16A7,7,0,0,0,8.63,1.5Z"/><path class="cls-2" d="M8.63,12.55A4.25,4.25,0,1,1,12.88,8.3,4.25,4.25,0,0,1,8.63,12.55Zm0-7A2.75,2.75,0,1,0,11.38,8.3,2.75,2.75,0,0,0,8.63,5.55Z"/></svg>