<svg id="_1" data-name="1" xmlns="http://www.w3.org/2000/svg" viewBox="0 0 167.07 40"><defs><style>.cls-1{fill:#ff4d4f;fill-rule:evenodd;}</style></defs><title>Халва</title><path class="cls-1" d="M121.82.85a13.15,13.15,0,0,1,7-.62A7.39,7.39,0,0,1,134.33,5a6.94,6.94,0,0,1-.84,5.92,12.13,12.13,0,0,1-4.8,4.12,27.91,27.91,0,0,1-9.62,2.61c-.08.35-.17.69-.26,1a14.37,14.37,0,0,1,10.13.21,7.72,7.72,0,0,1,4.33,4.57,12.46,12.46,0,0,1-3,12,14.17,14.17,0,0,1-8,4.11,14.89,14.89,0,0,1-6.64-.31A10.9,10.9,0,0,1,109.87,35a15,15,0,0,1-2.38-9.33,34.6,34.6,0,0,1,5-16.67A19.1,19.1,0,0,1,121.82.85Zm1.66,6.31A5.59,5.59,0,0,0,122,9a23.49,23.49,0,0,0-1.79,4.73,16.73,16.73,0,0,0,3-1.85,6.52,6.52,0,0,0,2.52-3.36A1.4,1.4,0,0,0,125.42,7a1.82,1.82,0,0,0-1.94.13ZM118,23.33a23.5,23.5,0,0,0-.35,7.34,4.66,4.66,0,0,0,1.11,2.67,2.25,2.25,0,0,0,2.52.34,4.38,4.38,0,0,0,1.88-1.93,8.34,8.34,0,0,0,.9-6.12,3.37,3.37,0,0,0-2.18-2.35,6.5,6.5,0,0,0-3.88,0ZM27.06,1.92A8.85,8.85,0,0,1,33.28.38a7,7,0,0,1,5.31,3.2,8.81,8.81,0,0,1,.55,7.72,15.26,15.26,0,0,1-5.31,6.61,22.66,22.66,0,0,1-7,3.41q3.27,6.25,6.57,12.48c.87,1.68,1.8,3.32,2.62,5-2.39.08-4.78,0-7.17,0s-4.73,0-7.1,0c-.33,0-.36-.39-.48-.61q-2.73-6.69-5.48-13.38a6.59,6.59,0,0,0-2.73,3.83,8.16,8.16,0,0,0,1.52,6.47,2.69,2.69,0,0,1-.6,1.46,8.07,8.07,0,0,1-3.41,2.76,7.74,7.74,0,0,1-7.3-.66,7.61,7.61,0,0,1-3.25-5.5,9.41,9.41,0,0,1,1.49-6.06,19.49,19.49,0,0,1,8.26-7,24.39,24.39,0,0,1,3.68-1.39L5.15,2.15C5,2,5,1.57,5.33,1.62c4.38,0,8.77,0,13.15,0,.28,0,.39.24.48.45q2.67,6.83,5.36,13.65a6,6,0,0,0,2.44-2.59A8.11,8.11,0,0,0,27,7.56a8.33,8.33,0,0,0-1.58-3.28,3.91,3.91,0,0,1,1.62-2.36Zm18,13.21a10.89,10.89,0,0,1,6.45-3.76,8.35,8.35,0,0,1,5.51.82,8.2,8.2,0,0,1,3.34,4c.14-1.19.28-2.39.47-3.58,0-.26.29-.33.5-.32H71.47c.31,0,.24.35.21.53q-1,6.55-2,13.13a20.78,20.78,0,0,0-.29,6.53A3.5,3.5,0,0,0,71,35c.23.18.71.34.54.72a5,5,0,0,1-1.81,2.1,8.38,8.38,0,0,1-6,1.66,5.91,5.91,0,0,1-4.12-2.31,6.7,6.7,0,0,1-1.19-3.54,13.79,13.79,0,0,1-5.25,5,7.89,7.89,0,0,1-6.53.33,8.6,8.6,0,0,1-4.23-4.36A18,18,0,0,1,41,25.19a18.24,18.24,0,0,1,4.06-10.06ZM55.7,18.37a3.56,3.56,0,0,0-1.63,1.06,9.08,9.08,0,0,0-1.93,4,15.11,15.11,0,0,0-.36,5.4,4.85,4.85,0,0,0,1.36,3,2.84,2.84,0,0,0,3.29.13,6.3,6.3,0,0,0,2.36-3.21,14.65,14.65,0,0,0,.88-6.05A5.73,5.73,0,0,0,58.36,19a2.71,2.71,0,0,0-2.66-.63ZM141.53,14a10.42,10.42,0,0,1,5.89-2.73,7.93,7.93,0,0,1,5.1.94,8.3,8.3,0,0,1,3.24,3.92c.15-1.21.28-2.43.48-3.63,0-.26.34-.27.54-.27H167a2,2,0,0,1,0,.54q-.93,6-1.81,12.08a49.51,49.51,0,0,0-.6,5.15,7.3,7.3,0,0,0,.82,4.14,5.54,5.54,0,0,0,1.41,1.19c.22.16,0,.46,0,.65a6.06,6.06,0,0,1-2,2,8.35,8.35,0,0,1-5.47,1.47,6,6,0,0,1-4.25-2.24,6.59,6.59,0,0,1-1.27-3.64A13.18,13.18,0,0,1,147.74,39a7.54,7.54,0,0,1-6.73-.59,10.25,10.25,0,0,1-3.94-5.75,20,20,0,0,1,.4-12.26A15.48,15.48,0,0,1,141.53,14Zm9.85,4.27a4.56,4.56,0,0,0-3,2.72,14.92,14.92,0,0,0-1.31,6.59,6.2,6.2,0,0,0,1.25,3.94,2.81,2.81,0,0,0,3.52.32,6.42,6.42,0,0,0,2.4-3.35,14.88,14.88,0,0,0,.8-6.21,5.55,5.55,0,0,0-1.27-3.3,2.61,2.61,0,0,0-2.38-.71Zm-69-5.56a52.59,52.59,0,0,1,19.41-.58,29.14,29.14,0,0,1,3.35.65c-1.1,8.64-2.12,17.3-3.24,26l-.23.08c-3.39,0-6.78,0-10.16,0a8.82,8.82,0,0,1,.14-1.54q1.23-9.88,2.44-19.77H89.88a72,72,0,0,1-1.21,10.56,27.11,27.11,0,0,1-2.28,7.36,8.64,8.64,0,0,1-3.5,3.73,7.7,7.7,0,0,1-5.06.66,5.85,5.85,0,0,1-4.09-3.61,4.06,4.06,0,0,1-.38-2c.2-.43.64-.67,1-1a16.58,16.58,0,0,0,4.82-6.65,31,31,0,0,0,2-6.95c.4-2.09.75-4.2,1-6.31C82.19,13.11,82.12,12.78,82.39,12.75Z"/></svg>