<svg id="_1" data-name="1" xmlns="http://www.w3.org/2000/svg" viewBox="0 0 90 20"><defs><style>.cls-1{fill:#fff;}.cls-2{fill:#eb6d01;}.cls-3{fill:#eb6d00;}</style></defs><title>КСЭ</title><rect class="cls-1" width="90" height="20"/><path class="cls-2" d="M53.81,2.51c-.29,1.08-.57,2.12-.84,3.17,0,.13-.1.17-.23.17H40.81a1.42,1.42,0,0,0-1.59,1.21l-1.59,6a2.7,2.7,0,0,0-.08.41.64.64,0,0,0,.61.7H50.32c.39,0,.39,0,.29.38-.24.89-.48,1.77-.7,2.66-.06.24-.17.31-.42.31H37.1a3.12,3.12,0,0,1-3.23-4.06q.84-3.39,1.8-6.75A6,6,0,0,1,41.25,2.5c4.06,0,8.11,0,12.16,0Z"/><path class="cls-2" d="M35.89,2.51c-.06.16-.17.2-.26.27l-8.4,6.67c-.21.16-.21.25-.07.45l5.29,7.26c.07.09.13.19.2.29-.09.07-.18,0-.26,0H28.27a.45.45,0,0,1-.42-.22c-1.79-2.46-3.58-4.93-5.38-7.38-.16-.22-.11-.31.07-.45L31.05,2.7a.8.8,0,0,1,.55-.19c1.32,0,2.64,0,4,0Z"/><path class="cls-3" d="M74.13,10.19l-2.22,1.4a.58.58,0,0,1-.34.07H53.87c-.27,0-.27-.09-.21-.3.25-.91.49-1.81.71-2.73.07-.25.18-.3.42-.3H72.34a.55.55,0,0,1,.51.25C73.26,9.13,73.69,9.65,74.13,10.19Z"/><path class="cls-2" d="M17.66,17.49c-.52,0-1,0-1.56,0-.24,0-.26-.07-.2-.28L18.63,7c.37-1.41.76-2.81,1.12-4.22.05-.21.13-.27.35-.27,1,0,2.07,0,3.11,0,.26,0,.27.07.21.29Q21.49,10,19.58,17.21c-.06.22-.14.3-.37.29C18.7,17.48,18.18,17.49,17.66,17.49Z"/><path class="cls-3" d="M62.67,5.85h-7.2c-.27,0-.35,0-.27-.33.26-.91.49-1.81.72-2.72.06-.21.13-.29.37-.29H67.73a.42.42,0,0,1,.38.17c.68.87,1.38,1.72,2.07,2.58.1.13.24.25.15.43s-.27.15-.43.16Z"/><path class="cls-3" d="M59.82,14.16h6.77a.33.33,0,0,1,.31.25.34.34,0,0,1-.15.39l-.17.1-3.86,2.44a.91.91,0,0,1-.48.15q-4.93,0-9.89,0c-.23,0-.32,0-.24-.3.26-.91.5-1.83.73-2.75.06-.24.17-.3.4-.3Z"/></svg>