<svg id="Capa_1" data-name="Capa 1" xmlns="http://www.w3.org/2000/svg" viewBox="0 0 14 14"><defs><style>.cls-1{fill:#ea5e20;}</style></defs><title>Ссылка</title><path class="cls-1" d="M13,1A3.28,3.28,0,0,0,8.4,1L5.66,3.7a3.3,3.3,0,0,0,0,4.64,2.62,2.62,0,0,0,.66.5l.5-.5a1.13,1.13,0,0,0,.2-1,1.06,1.06,0,0,1-.2-.17,1.65,1.65,0,0,1,0-2.32L9.56,2.12a1.64,1.64,0,0,1,2.32,2.32L10.07,6.25a4.82,4.82,0,0,1,.2,2.11l0,0L13,5.6A3.28,3.28,0,0,0,13,1Z"/><path class="cls-1" d="M8.56,5.44a3.83,3.83,0,0,0-.66-.5l-.5.5a1.12,1.12,0,0,0-.21,1l.21.17a1.67,1.67,0,0,1,0,2.32l-3,3A1.64,1.64,0,0,1,2.12,9.56l2-2a4.59,4.59,0,0,1-.21-2.11l0,0-3,3A3.28,3.28,0,0,0,5.6,13l3-3A3.31,3.31,0,0,0,8.56,5.44Z"/></svg>