<svg id="Слой_3" data-name="Слой 3" xmlns="http://www.w3.org/2000/svg" viewBox="0 0 123.79 32.23"><defs><style>.cls-1{fill:#fff;}</style></defs><title>Лого 2</title><path class="cls-1" d="M118.87,0a4.93,4.93,0,1,0,4.92,4.93A4.93,4.93,0,0,0,118.87,0Zm0,9a4,4,0,1,1,4-4A4,4,0,0,1,118.87,9Z"/><path class="cls-1" d="M120.18,5.64a2.41,2.41,0,0,0-.54-.42,1.56,1.56,0,0,0,1-.46,1.31,1.31,0,0,0,.33-.92,1.48,1.48,0,0,0-.21-.79,1.1,1.1,0,0,0-.58-.47A3.58,3.58,0,0,0,119,2.44h-2.11v5h1V5.34h.2a2.05,2.05,0,0,1,.51,0,.82.82,0,0,1,.3.21,7.2,7.2,0,0,1,.53.73l.73,1.09h1.2l-.61-1A6,6,0,0,0,120.18,5.64Zm-1.55-1.09h-.74V3.28h.78c.41,0,.65,0,.74,0a.63.63,0,0,1,.37.19.62.62,0,0,1,.14.41.7.7,0,0,1-.1.37.56.56,0,0,1-.29.21A3.67,3.67,0,0,1,118.63,4.55Z"/><path class="cls-1" d="M56,19.19A24,24,0,0,1,61,14.79a28.13,28.13,0,0,1,7.65-3.59s-3.86.16-7.89.75-4.91,1.11-4.91,1.11S55,12.53,51,12s-7.89-.75-7.89-.75a28.12,28.12,0,0,1,7.66,3.59A26.93,26.93,0,0,1,56,19.19Z"/><path class="cls-1" d="M68.88,19.31c-1.63,1.28-1.82.86-3.58,2.25a46.53,46.53,0,0,0-3.87,3.57l9.71-.23c1.51,0,1,0,.6-.28s-3.21-.58-3.4-.8.56-.34,2.49,0a38,38,0,0,0,6.61.3c.51-.08-.18-.28,2.59-.36a8,8,0,0,0,4.32-1.25s-3-.06-4.09-.25S77.35,22,77.35,22s.21-.69,2.14-.47a61,61,0,0,0,8.15.11c2.18-.14,2.81-1.14,2.81-1.14a12.49,12.49,0,0,0,3.45-.11,10.27,10.27,0,0,0,3.35-1.5s-12.36-.28-13.08-.23-1.56-.27-.68-.44,14.83-.45,16.85-1,2-.86,2-.86a3.89,3.89,0,0,0,2-.44,3.42,3.42,0,0,0,1.33-1.48l-15.15,1c-.44,0-.65-.25.47-.56s13.05-.44,17-1.56,4-3.89,4-3.89L70,13.91A3.84,3.84,0,0,1,68.88,19.31Z"/><path class="cls-1" d="M47.35,16.06c0,1,1.16,1.8,2.59,1.8A2.94,2.94,0,0,0,52.15,17c-.31-.23-.63-.46-1-.68-.72-.51-1.72-1.15-2.69-1.76A1.76,1.76,0,0,0,47.35,16.06Z"/><path class="cls-1" d="M53.52,21.65a1,1,0,0,1,1,.75s-3.26.08-4.42-.06a11.44,11.44,0,0,1-2.28-.55L54,26.4h.42l0,.39a6.94,6.94,0,0,0-1.25.67c-.84.53-2.42,1.81-2.42,1.81A1.57,1.57,0,0,0,52.61,29c1.07-.86,1.49-.58,1.49-.58s-2,1.24-1.23,2.17,2.14-.7,2.14-.7-.58,2.38,1,2.38S57.08,30,57.08,30s1.34,1.41,1.85.81,0-1.14-.38-1.7-.28-.72-.28-.72,1,1.17,2,1.17.82-.5.82-.5-2-1.45-2.89-2-.7-.58-.7-.58h.42l6.33-4.59a16.48,16.48,0,0,1-2.88.47,13.83,13.83,0,0,1-3.59-.28s.61-.39,4.45-.39S69,17.75,69,15.8s-2.14-3.39-2.14-3.39-1,.58-2.31,1.46A2.61,2.61,0,0,1,66,16.06c0,1.53-1.78,2.78-4,2.78a4.9,4.9,0,0,1-2.9-.88c-1.69,1.43-3,2.63-3,2.63a25.23,25.23,0,0,0-3.06-2.86,4.71,4.71,0,0,1-3.17,1.11c-2.2,0-4-1.25-4-2.78a2.57,2.57,0,0,1,1.49-2.17l-2.12-1.31s-4.59,1.78-1.14,5.9S52.61,21.65,53.52,21.65Z"/><path class="cls-1" d="M60.06,17.2a3.06,3.06,0,0,0,2,.66c1.43,0,2.59-.81,2.59-1.8a1.77,1.77,0,0,0-1.15-1.51c-.71.5-1.47,1.06-2.21,1.64C60.88,16.53,60.46,16.86,60.06,17.2Z"/><path class="cls-1" d="M73.58,9.93c-.35-.36-.84-.13-1.47-.22s.31-.53.59-.86-1-.28-2.1.22a2.27,2.27,0,0,0-1.35,1.56C70.39,10,73.93,10.3,73.58,9.93Z"/><path class="cls-1" d="M4,13.38c4,1.12,15.92,1.26,17,1.56s.91.59.47.56L6.33,14.55A3.42,3.42,0,0,0,7.66,16a3.77,3.77,0,0,0,2,.44s0,.36,2,.86,16,.78,16.85,1,0,.5-.68.45S14.75,19,14.75,19a10.27,10.27,0,0,0,3.35,1.5,12.49,12.49,0,0,0,3.45.11s.63,1,2.81,1.14a61,61,0,0,0,8.15-.11c1.93-.22,2.14.47,2.14.47s-1.81.14-2.91.34-4.09.25-4.09.25A8,8,0,0,0,32,23.9c2.77.08,2.08.28,2.59.36a37,37,0,0,0,6.61-.3c1.93-.37,2.67-.25,2.49,0s-3,.56-3.4.81-.91.25.6.27l9.71.23a47.23,47.23,0,0,0-3.87-3.56c-1.76-1.4-2-1-3.58-2.26A3.84,3.84,0,0,1,42.05,14L0,9.49S0,12.27,4,13.38Z"/><path class="cls-1" d="M42.75,10.74A2.27,2.27,0,0,0,41.4,9.18C40.33,8.68,39,8.63,39.31,9s1.21.78.58.86-1.12-.14-1.47.23S41.61,10.07,42.75,10.74Z"/></svg>