<svg id="Слой_3" data-name="Слой 3" xmlns="http://www.w3.org/2000/svg" viewBox="0 0 198.98 60"><defs><style>.cls-1{fill:#e0e3e7;}.cls-2{fill:#36466c;}</style></defs><title>Logo</title><path class="cls-1" d="M91,28a38.82,38.82,0,0,1,8.27-7.17A46.31,46.31,0,0,1,111.71,15s-6.28.28-12.83,1.23-8,1.81-8,1.81-1.44-.86-8-1.81S70.08,15,70.08,15a46.17,46.17,0,0,1,12.45,5.84A43.62,43.62,0,0,1,91,28Z"/><path class="cls-1" d="M112,28.2c-2.65,2.08-3,1.4-5.83,3.66a75.16,75.16,0,0,0-6.28,5.79l15.78-.36c2.46,0,1.59,0,1-.45s-5.22-1-5.52-1.31.9-.55,4,0a60.58,60.58,0,0,0,10.75.5c.84-.14-.3-.45,4.2-.59a13,13,0,0,0,7-2s-4.88-.09-6.66-.41-4.73-.54-4.73-.54.34-1.14,3.48-.77a100,100,0,0,0,13.25.18c3.56-.23,4.58-1.86,4.58-1.86a20.11,20.11,0,0,0,5.6-.18,16.65,16.65,0,0,0,5.45-2.44s-20.1-.45-21.27-.36-2.54-.46-1.1-.73,24.11-.72,27.4-1.54,3.29-1.4,3.29-1.4a6.23,6.23,0,0,0,3.22-.72,5.48,5.48,0,0,0,2.16-2.4l-24.64,1.54c-.72,0-1.06-.41.76-.91s21.23-.72,27.7-2.53,6.47-6.33,6.47-6.33l-68.38,7.37C115.91,23.08,114.66,26.12,112,28.2Z"/><path class="cls-1" d="M77,22.9c0,1.63,1.89,2.94,4.21,2.94a4.79,4.79,0,0,0,3.6-1.41c-.51-.38-1-.75-1.56-1.12-1.18-.81-2.8-1.86-4.37-2.85A2.85,2.85,0,0,0,77,22.9Z"/><path class="cls-1" d="M87,32a1.61,1.61,0,0,1,1.7,1.22s-5.3.14-7.19-.09a18.54,18.54,0,0,1-3.71-.91l9.92,7.51h.68l0,.64a10.34,10.34,0,0,0-2,1.08c-1.36.86-3.93,2.95-3.93,2.95a2.58,2.58,0,0,0,3.06-.5C87.3,42.5,88,43,88,43s-3.27,2-2,3.53,3.48-1.13,3.48-1.13-.95,3.86,1.63,3.86,1.74-3.59,1.74-3.59,2.18,2.29,3,1.32,0-1.87-.62-2.77S94.76,43,94.76,43s1.7,1.9,3.29,1.9,1.32-.81,1.32-.81S96,41.73,94.68,40.82s-1.13-1-1.13-1h.68l10.29-7.46a26.31,26.31,0,0,1-4.69.76A22.49,22.49,0,0,1,94,32.72s1-.63,7.23-.63,10.94-6.43,10.94-9.59S108.68,17,108.68,17s-1.6.93-3.76,2.36a4.24,4.24,0,0,1,2.48,3.56c0,2.5-2.9,4.53-6.47,4.53A8,8,0,0,1,96.21,26c-2.75,2.33-4.86,4.28-4.86,4.28a41.31,41.31,0,0,0-5-4.65,7.67,7.67,0,0,1-5.16,1.8c-3.57,0-6.47-2-6.47-4.53a4.21,4.21,0,0,1,2.42-3.53c-1.92-1.2-3.44-2.12-3.44-2.12s-7.46,2.89-1.86,9.59S85.56,32,87,32Z"/><path class="cls-1" d="M97.67,24.77a5.1,5.1,0,0,0,3.26,1.07c2.32,0,4.2-1.31,4.2-2.94a2.85,2.85,0,0,0-1.85-2.44c-1.17.81-2.41,1.72-3.6,2.67C99,23.67,98.33,24.22,97.67,24.77Z"/><path class="cls-1" d="M119.66,13c-.57-.59-1.36-.23-2.38-.36s.49-.86.94-1.4-1.66-.46-3.4.36a3.66,3.66,0,0,0-2.2,2.53C114.47,13,120.23,13.54,119.66,13Z"/><path class="cls-1" d="M6.47,18.56c6.47,1.81,25.89,2,27.7,2.53s1.48.95.76.91L10.29,20.46a5.56,5.56,0,0,0,2.16,2.4,6.23,6.23,0,0,0,3.22.72s0,.59,3.29,1.4,26,1.27,27.4,1.54.08.82-1.1.73S24,27.61,24,27.61a16.65,16.65,0,0,0,5.45,2.44,19.67,19.67,0,0,0,5.6.18s1,1.63,4.58,1.86a100,100,0,0,0,13.25-.18c3.14-.36,3.48.77,3.48.77s-3,.22-4.73.54-6.66.41-6.66.41a13.09,13.09,0,0,0,7,2c4.5.14,3.37.46,4.2.59A60.55,60.55,0,0,0,67,35.75c3.14-.58,4.35-.4,4,0s-4.92.9-5.53,1.31-1.47.41,1,.45l15.78.36A78,78,0,0,0,76,32c-2.87-2.26-3.17-1.58-5.82-3.66s-3.9-5.11-1.74-8.78L0,12.23S0,16.75,6.47,18.56Z"/><path class="cls-1" d="M69.52,14.26a3.68,3.68,0,0,0-2.19-2.53c-1.74-.82-3.86-.91-3.41-.36s2,1.26,1,1.4-1.82-.23-2.39.36S67.67,13.18,69.52,14.26Z"/><path class="cls-1" d="M192.69,0A6.29,6.29,0,1,0,199,6.28,6.28,6.28,0,0,0,192.69,0Zm0,11.42a5.14,5.14,0,1,1,5.14-5.14A5.14,5.14,0,0,1,192.69,11.42Z"/><path class="cls-1" d="M194.37,7.19a3,3,0,0,0-.69-.53,2,2,0,0,0,1.26-.59,1.69,1.69,0,0,0,.42-1.18,1.88,1.88,0,0,0-.28-1,1.44,1.44,0,0,0-.74-.6,4.41,4.41,0,0,0-1.48-.18h-2.69V9.46h1.28V6.81h.26a2,2,0,0,1,.64.07,1.07,1.07,0,0,1,.39.26,7.94,7.94,0,0,1,.67.94l.93,1.38h1.53l-.77-1.24A7.61,7.61,0,0,0,194.37,7.19Zm-2-1.39h-1V4.19h1a8.81,8.81,0,0,1,.93,0,.8.8,0,0,1,.49.25A.77.77,0,0,1,194,5a.9.9,0,0,1-.13.48.69.69,0,0,1-.36.27A5,5,0,0,1,192.4,5.8Z"/><path class="cls-2" d="M30.43,55.66a16.66,16.66,0,0,1-5.52.71c-5.32,0-7.24-2.39-7.24-9.08s1.92-9.09,7.24-9.09a17.78,17.78,0,0,1,5.17.59l-.32,2.9c-1.63-.1-2.68-.13-4.85-.13-2.5,0-3.25,1.3-3.25,5.73S22.41,53,24.91,53a36.64,36.64,0,0,0,5.2-.23Z"/><path class="cls-2" d="M48.55,47.29c0,7.05-2.07,9.11-7.88,9.11s-7.85-2.06-7.85-9.11,2-9.11,7.85-9.11S48.55,40.24,48.55,47.29Zm-11.47,0c0,4.65.83,6,3.59,6s3.6-1.33,3.6-6-.83-6-3.6-6S37.08,42.63,37.08,47.29Z"/><path class="cls-2" d="M51.85,38.79a24.27,24.27,0,0,1,5.47-.48c4.4,0,6,1,6,4.58,0,2.52-.86,3.81-3,4V47c2.57.23,3.47,1.88,3.47,4.68,0,3.61-1.7,4.58-5.7,4.58a22.55,22.55,0,0,1-6.59-.76l.27-2.68a35,35,0,0,0,5.6.49c1.92,0,2.5-.46,2.5-2.37,0-2.06-.6-2.59-2.6-2.64H54V45.58h3.29c1.7,0,2.25-.45,2.25-2.16s-.6-2.16-2.42-2.16a41.27,41.27,0,0,0-4.92.33Z"/><path class="cls-2" d="M77,47c2.65.23,3.55,1.88,3.55,4.68,0,3.61-1.72,4.58-5.82,4.58-3.32,0-5.1,0-7.29-.21V38.51c2-.18,3.59-.2,6.49-.2,4.5,0,6.07,1,6.07,4.58,0,2.52-.85,3.81-3,4Zm-3-1.32c1.83,0,2.4-.46,2.4-2.27s-.6-2.19-2.62-2.19l-2.57,0v4.48ZM74,53.34c2.09,0,2.69-.43,2.69-2.39,0-2.14-.65-2.67-2.77-2.7H71.13v5.09Z"/><path class="cls-2" d="M99.58,38.79a24.27,24.27,0,0,1,5.47-.48c4.4,0,6,1,6,4.58,0,2.52-.85,3.81-3,4V47c2.57.23,3.47,1.88,3.47,4.68,0,3.61-1.7,4.58-5.7,4.58a22.55,22.55,0,0,1-6.59-.76l.27-2.68a35,35,0,0,0,5.6.49c1.93,0,2.5-.46,2.5-2.37,0-2.06-.6-2.59-2.6-2.64h-3.32V45.58H105c1.7,0,2.24-.45,2.24-2.16s-.59-2.16-2.42-2.16a41.27,41.27,0,0,0-4.92.33Z"/><path class="cls-2" d="M145,56.06V45.58a12.57,12.57,0,0,1,.22-2.36H145a13.93,13.93,0,0,1-1,2.31l-5.82,10.53h-3.77V38.51h3.62v10.3a16.07,16.07,0,0,1-.2,2.45H138A17.58,17.58,0,0,1,139,49l5.82-10.46h3.77V56.06Z"/><path class="cls-2" d="M131.28,60H128V55.74H117.78V60h-3.31l-.19-7.12h1.28a5.54,5.54,0,0,0,1.61-2.59,18.24,18.24,0,0,0,.77-4.23l.49-7.63h11.14V52.87h2Zm-11.7-7.13h6.49V41.31h-4.31l-.3,4.55A15.44,15.44,0,0,1,119.58,52.87Z"/><path class="cls-2" d="M94.93,48.46H88v4.7h8.15v2.9H84.37V38.51H96.11v2.93H88v4.18h7Z"/><path class="cls-2" d="M164.14,48.46H157.2v4.7h8.15v2.9H153.58V38.51h11.74v2.93H157.2v4.18h6.94Z"/></svg>