<svg id="Слой_3" data-name="Слой 3" xmlns="http://www.w3.org/2000/svg" viewBox="0 0 153.83 50"><defs><style>.cls-1{fill:#2a3141;}.cls-2{fill:#ea5e20;}</style></defs><title>Лого 1</title><rect class="cls-1" x="82.4" y="29.41" width="66.58" height="0.68"/><path class="cls-1" d="M74.47,20.76a29.27,29.27,0,0,1,6.28-5.44,34.85,34.85,0,0,1,9.45-4.43s-4.77.21-9.74.93-6.06,1.37-6.06,1.37-1.09-.65-6.06-1.37-9.74-.93-9.74-.93a35,35,0,0,1,9.45,4.43A33.22,33.22,0,0,1,74.47,20.76Z"/><path class="cls-1" d="M90.43,20.9c-2,1.58-2.24,1.07-4.43,2.79a57.74,57.74,0,0,0-4.77,4.39s10.12-.24,12-.27,1.21,0,.75-.35-4-.72-4.19-1,.69-.41,3.07,0a46.36,46.36,0,0,0,8.16.38c.63-.1-.23-.34,3.19-.45a9.91,9.91,0,0,0,5.34-1.54s-3.71-.07-5.06-.31-3.59-.41-3.59-.41.26-.86,2.65-.59a74.15,74.15,0,0,0,10,.14c2.7-.17,3.48-1.41,3.48-1.41a14.89,14.89,0,0,0,4.25-.14,12.53,12.53,0,0,0,4.13-1.85s-15.25-.34-16.14-.27-1.92-.35-.83-.55,18.3-.55,20.79-1.17,2.5-1.07,2.5-1.07a4.69,4.69,0,0,0,2.45-.55,4.12,4.12,0,0,0,1.63-1.82l-18.7,1.17c-.54,0-.8-.31.58-.68s16.11-.55,21-1.93,4.92-4.81,4.92-4.81l-51.91,5.6C93.39,17,92.44,19.32,90.43,20.9Z"/><path class="cls-1" d="M63.85,16.89c0,1.23,1.43,2.23,3.19,2.23A3.64,3.64,0,0,0,69.78,18c-.39-.29-.78-.57-1.19-.84-.89-.62-2.12-1.42-3.31-2.17A2.17,2.17,0,0,0,63.85,16.89Z"/><path class="cls-1" d="M71.47,23.79a1.22,1.22,0,0,1,1.29.93s-4,.1-5.46-.07A13.73,13.73,0,0,1,64.49,24L72,29.66h.52l0,.48A7.89,7.89,0,0,0,71,31c-1,.65-3,2.23-3,2.23a2,2,0,0,0,2.33-.38c1.32-1.06,1.84-.72,1.84-.72s-2.49,1.53-1.53,2.68,2.65-.86,2.65-.86-.72,2.93,1.24,2.93,1.31-2.72,1.31-2.72,1.66,1.74,2.28,1,0-1.42-.47-2.1-.34-.9-.34-.9,1.29,1.45,2.5,1.45,1-.62,1-.62-2.53-1.79-3.56-2.47-.86-.73-.86-.73h.51l7.82-5.66a20.23,20.23,0,0,1-3.56.58,17.36,17.36,0,0,1-4.43-.34s.75-.48,5.49-.48,8.3-4.88,8.3-7.28-2.64-4.19-2.64-4.19-1.22.71-2.86,1.79a3.21,3.21,0,0,1,1.88,2.71c0,1.89-2.2,3.43-4.91,3.43a6,6,0,0,1-3.58-1.09c-2.08,1.78-3.69,3.25-3.69,3.25A30.39,30.39,0,0,0,71,19,5.86,5.86,0,0,1,67,20.32c-2.71,0-4.91-1.54-4.91-3.43A3.19,3.19,0,0,1,64,14.21l-2.61-1.62S55.7,14.79,60,19.87,70.35,23.79,71.47,23.79Z"/><path class="cls-1" d="M79.54,18.3a3.82,3.82,0,0,0,2.47.82c1.76,0,3.19-1,3.19-2.23A2.19,2.19,0,0,0,83.79,15c-.88.62-1.82,1.31-2.73,2Z"/><path class="cls-1" d="M96.23,9.33c-.43-.45-1-.17-1.81-.27s.37-.66.72-1.07-1.27-.34-2.59.28a2.75,2.75,0,0,0-1.66,1.92C92.29,9.36,96.66,9.78,96.23,9.33Z"/><path class="cls-1" d="M10.31,13.59c4.91,1.37,19.65,1.54,21,1.92s1.12.72.57.69L13.21,15a4.18,4.18,0,0,0,1.64,1.82,4.78,4.78,0,0,0,2.44.55s0,.45,2.5,1.07,19.71,1,20.8,1.16.06.62-.83.55-16.15.28-16.15.28a12.63,12.63,0,0,0,4.14,1.85,15.32,15.32,0,0,0,4.25.14s.78,1.24,3.48,1.41a74.15,74.15,0,0,0,10.05-.14c2.39-.27,2.64.58,2.64.58s-2.24.18-3.59.42-5,.31-5,.31a9.91,9.91,0,0,0,5.34,1.54c3.42.1,2.56.34,3.19.45a46.39,46.39,0,0,0,8.16-.38c2.38-.45,3.3-.31,3.07,0s-3.73.68-4.19,1-1.12.31.74.34l12,.28a57.13,57.13,0,0,0-4.77-4.4c-2.18-1.71-2.41-1.2-4.42-2.78s-3-3.88-1.32-6.66L5.4,8.78S5.4,12.22,10.31,13.59Z"/><path class="cls-1" d="M58.17,10.33A2.8,2.8,0,0,0,56.51,8.4c-1.33-.61-2.93-.68-2.59-.27s1.49,1,.72,1.06-1.38-.17-1.81.28S56.76,9.5,58.17,10.33Z"/><path class="cls-1" d="M148.9,0a4.93,4.93,0,1,0,4.93,4.93A4.93,4.93,0,0,0,148.9,0Zm0,9a4,4,0,1,1,4-4A4,4,0,0,1,148.9,9Z"/><path class="cls-1" d="M150.21,5.64a2.58,2.58,0,0,0-.53-.42,1.59,1.59,0,0,0,1-.46,1.31,1.31,0,0,0,.33-.92,1.4,1.4,0,0,0-.22-.79,1.07,1.07,0,0,0-.58-.47A3.53,3.53,0,0,0,149,2.44h-2.11v5h1V5.34h.21a1.91,1.91,0,0,1,.5,0,.85.85,0,0,1,.31.21c.09.1.27.35.53.73l.72,1.09h1.2l-.61-1A6,6,0,0,0,150.21,5.64Zm-1.54-1.09h-.75V3.28h.79c.41,0,.65,0,.73,0a.66.66,0,0,1,.38.19.61.61,0,0,1,.13.41.62.62,0,0,1-.1.37.54.54,0,0,1-.28.21A3.67,3.67,0,0,1,148.67,4.55Z"/><polyline class="cls-1" points="0 30.09 66.58 30.09 66.58 29.41 0 29.41"/><polygon class="cls-2" points="4.97 34.22 3.8 36.95 0 37.8 3.8 38.64 4.97 41.38 6.13 38.64 9.93 37.8 6.13 36.95 4.97 34.22"/><polygon class="cls-2" points="16.28 38.84 15.11 41.58 11.31 42.42 15.11 43.26 16.28 46 17.45 43.26 21.25 42.42 17.45 41.58 16.28 38.84"/><polygon class="cls-2" points="144.19 34.12 143.02 36.85 139.22 37.7 143.02 38.54 144.19 41.28 145.36 38.54 149.16 37.7 145.36 36.85 144.19 34.12"/><polygon class="cls-2" points="131.76 38.84 130.59 41.58 126.8 42.42 130.59 43.26 131.76 46 132.93 43.26 136.73 42.42 132.93 41.58 131.76 38.84"/><path class="cls-1" d="M28.21,45.49a9.48,9.48,0,0,0,1,.48,7.74,7.74,0,0,0,1.06.35l.51.13.61.1.58.08.51,0,.44,0h.62c.38,0,.8,0,1.24,0s.93-.06,1.44-.1V44.91h-.41a1.18,1.18,0,0,1-.4.52,2,2,0,0,1-.81.35,5,5,0,0,1-1.09.11,8.52,8.52,0,0,1-3-.58,8.07,8.07,0,0,1-1.44-.72,6.83,6.83,0,0,1-1.2-1A3.79,3.79,0,0,1,26.82,41a3.36,3.36,0,0,1,.2-1.16,3,3,0,0,1,.59-.94,4.23,4.23,0,0,1,1.93-1.19,8.21,8.21,0,0,1,2.38-.35,7.52,7.52,0,0,1,1.54.15,3.62,3.62,0,0,1,1.16.42c.29.18.44.37.44.58a.66.66,0,0,1-.15.37l.34.24,1.6-1.15a8.88,8.88,0,0,0-2.28-1.05,10.06,10.06,0,0,0-5.15,0,8.36,8.36,0,0,0-2.23.94,4.94,4.94,0,0,0-1.54,1.43,3.25,3.25,0,0,0-.57,1.87,3.91,3.91,0,0,0,.38,1.66,5.75,5.75,0,0,0,1.1,1.52A7,7,0,0,0,28.21,45.49Z"/><path class="cls-1" d="M47.22,45.65a3.71,3.71,0,0,0,1-1.15,2.77,2.77,0,0,0,.28-.66,2.88,2.88,0,0,0,.08-.68,2.59,2.59,0,0,0-.37-1.35,3.52,3.52,0,0,0-1.07-1.11,5.29,5.29,0,0,0-1.6-.78,6.64,6.64,0,0,0-1.89-.27,6.12,6.12,0,0,0-1.91.29,5.79,5.79,0,0,0-1.53.78,3.72,3.72,0,0,0-1,1.12,2.5,2.5,0,0,0,0,2.65,3.85,3.85,0,0,0,1,1.17,5.51,5.51,0,0,0,1.55.79,6.33,6.33,0,0,0,1.92.29,6,6,0,0,0,1.91-.3A5.2,5.2,0,0,0,47.22,45.65ZM43.76,46a4.06,4.06,0,0,1-1.88-.4,2.43,2.43,0,0,1-1.07-1,3.07,3.07,0,0,1-.34-1.4,2.72,2.72,0,0,1,.83-2,3.27,3.27,0,0,1,2.38-.81l.35,0,.42,0a3.48,3.48,0,0,1,1.17.34,3.71,3.71,0,0,1,.46.28,3,3,0,0,1,.37.35,2.54,2.54,0,0,1,.28.36,4.27,4.27,0,0,1,.2.42,1.79,1.79,0,0,1,.13.46,3.43,3.43,0,0,1,0,.48,2.67,2.67,0,0,1-.39,1.4,2.59,2.59,0,0,1-.48.61,3.39,3.39,0,0,1-2.46.89Z"/><path class="cls-1" d="M82,46.86,80.28,48.4a6.35,6.35,0,0,0,2.12,1.15,8.34,8.34,0,0,0,2.72.45,5.9,5.9,0,0,0,2.49-.51,4,4,0,0,0,1-.65,3.63,3.63,0,0,0,.67-.86,2.13,2.13,0,0,0,.25-1A2.51,2.51,0,0,0,89,45.45a2.46,2.46,0,0,0-.67-.61,5.91,5.91,0,0,0-1.12-.48,4.22,4.22,0,0,0,.83-.42,2,2,0,0,0,.49-.47,2.05,2.05,0,0,0,.39-1.18,2.09,2.09,0,0,0-.56-1.41A3.3,3.3,0,0,0,87,40a5.25,5.25,0,0,0-1.83-.32,7.07,7.07,0,0,0-1.21.11,8.16,8.16,0,0,0-1.26.3,7.16,7.16,0,0,0-2,.95l1.45,1.59.37-.26a.85.85,0,0,1-.2-.51c0-.41.34-.72,1-.91a5.81,5.81,0,0,1,.92-.22,6.09,6.09,0,0,1,.85-.07,2.74,2.74,0,0,1,.6.07,4.18,4.18,0,0,1,.56.2,2.17,2.17,0,0,1,.78.66A1.25,1.25,0,0,1,87,43.24a1.67,1.67,0,0,1-.46.37,3.47,3.47,0,0,1-.69.26l-2,0v1h1.88a2.18,2.18,0,0,1,1,.25,2.52,2.52,0,0,1,.9.74A2,2,0,0,1,87.9,47a.87.87,0,0,1-.07.37,2.78,2.78,0,0,1-.24.4,2.1,2.1,0,0,1-.77.67,4,4,0,0,1-.51.25,3.78,3.78,0,0,1-.47.13,3.82,3.82,0,0,1-.69,0,5.71,5.71,0,0,1-.68,0c-.25,0-.48,0-.67-.07a6.05,6.05,0,0,1-1.18-.38,1.34,1.34,0,0,1-.39-.33.71.71,0,0,1-.12-.41,1,1,0,0,1,.21-.55Z"/><path class="cls-1" d="M112.4,46.5v-.25l-.43-.07a.65.65,0,0,1-.27-.21.79.79,0,0,1-.08-.41V39.65h-2.17v.24a1.49,1.49,0,0,1,.57.19.55.55,0,0,1,.16.46V44.8c-.27.18-.52.33-.76.46s-.44.23-.7.34a3.88,3.88,0,0,1-1.45.3,3,3,0,0,1-1-.16l-.39-.17a1.26,1.26,0,0,1-.28-.17,1.28,1.28,0,0,1-.38-.49,1.25,1.25,0,0,1-.15-.58l0-.58v-4.1h-2.19v.24a1.57,1.57,0,0,1,.57.18.53.53,0,0,1,.13.19.61.61,0,0,1,.05.28v3.52a2.41,2.41,0,0,0,2.4,2.55,6,6,0,0,0,.92.08,5.36,5.36,0,0,0,1.58-.24,7.42,7.42,0,0,0,1.66-.78v.83Z"/><path class="cls-1" d="M100.26,48.21a2.36,2.36,0,0,0,.1-.8l0-.26a2.44,2.44,0,0,0,0-.28.75.75,0,0,0,0-.28v-6a1.11,1.11,0,0,1,0-.34.41.41,0,0,1,.14-.19,1.25,1.25,0,0,1,.58-.2v-.23h-4a7.39,7.39,0,0,0-2.78.53,5.54,5.54,0,0,0-2.06,1.41,2.81,2.81,0,0,0-.37,3.35,3,3,0,0,0,1.48,1.28,5.44,5.44,0,0,0,2.24.46,5.77,5.77,0,0,0,.85-.06,8,8,0,0,0,.82-.17,5.33,5.33,0,0,0,1.59-.84c0,.11,0,.34,0,.69s0,.62,0,.81a4.77,4.77,0,0,1-.05.84.91.91,0,0,1-.38.52,2.64,2.64,0,0,1-.79.38,9.82,9.82,0,0,1-1.13.2l-.41,0h-.41a4.87,4.87,0,0,1-2.53-.55.59.59,0,0,1-.31-.47.82.82,0,0,1,.22-.46l-.24-.17-1.59,1.05a6.66,6.66,0,0,0,3,1.31c.25,0,.47.07.65.08h.71a9.61,9.61,0,0,0,3.4-.6,2.46,2.46,0,0,0,.7-.45A1.73,1.73,0,0,0,100.26,48.21Zm-1.4-3.43a7,7,0,0,1-.68.47,5.72,5.72,0,0,1-.67.37,4.45,4.45,0,0,1-1.61.27,3.26,3.26,0,0,1-1.53-.32,2.09,2.09,0,0,1-.91-.82,2.25,2.25,0,0,1-.29-1.14,2.68,2.68,0,0,1,.43-1.49A2.84,2.84,0,0,1,94.74,41a6.22,6.22,0,0,1,3-.63c.27,0,.64,0,1.1,0Z"/><path class="cls-1" d="M68.83,44.49a1.31,1.31,0,0,0-.29-.8,2.27,2.27,0,0,0-.75-.64,3,3,0,0,0-.57-.23,5.84,5.84,0,0,0-.81-.17,5,5,0,0,0,.74-.32,1.76,1.76,0,0,0,.46-.38,1.33,1.33,0,0,0,.37-.86v-.2a1.2,1.2,0,0,0-.94-1,6.51,6.51,0,0,0-1.92-.26H60.21v.24c.52,0,.78.27.78.69v5a1,1,0,0,1-.06.36.42.42,0,0,1-.15.23.61.61,0,0,1-.5.18v.27h5.14a4.81,4.81,0,0,0,1.84-.32,3.68,3.68,0,0,0,.69-.38,2.57,2.57,0,0,0,.52-.47A1.49,1.49,0,0,0,68.83,44.49Zm-6.42-4.12h2.78a1.78,1.78,0,0,1,1,.22.75.75,0,0,1,.41.73.77.77,0,0,1-.21.52,1.56,1.56,0,0,1-.65.39,1.94,1.94,0,0,1-.43.11,4.05,4.05,0,0,1-.52,0H62.41Zm5,4.22a1.35,1.35,0,0,1-.85,1,3.45,3.45,0,0,1-.71.23,4.39,4.39,0,0,1-.72.07H62.41V43.06h2.45a4.85,4.85,0,0,1,1.89.29,1,1,0,0,1,.65,1Z"/><path class="cls-1" d="M58.1,48a2.13,2.13,0,0,0,.25-1,2.51,2.51,0,0,0-.51-1.49,2.46,2.46,0,0,0-.67-.61,5.91,5.91,0,0,0-1.12-.48,4.22,4.22,0,0,0,.83-.42,2,2,0,0,0,.49-.47,2.05,2.05,0,0,0,.39-1.18,2.09,2.09,0,0,0-.56-1.41A3.3,3.3,0,0,0,55.86,40,5.25,5.25,0,0,0,54,39.65a7.07,7.07,0,0,0-1.21.11,8.16,8.16,0,0,0-1.26.3,7.16,7.16,0,0,0-2,.95l1.45,1.59.37-.26a.85.85,0,0,1-.2-.51c0-.41.33-.72,1-.91a5.81,5.81,0,0,1,.92-.22,6.09,6.09,0,0,1,.85-.07,2.74,2.74,0,0,1,.6.07,4.18,4.18,0,0,1,.56.2,2.17,2.17,0,0,1,.78.66,1.25,1.25,0,0,1-.12,1.68,1.67,1.67,0,0,1-.46.37,3.47,3.47,0,0,1-.69.26l-2,0v1h1.88a2.21,2.21,0,0,1,1,.25,2.52,2.52,0,0,1,.9.74A2,2,0,0,1,56.74,47a.87.87,0,0,1-.07.37,2.78,2.78,0,0,1-.24.4,2.1,2.1,0,0,1-.77.67,4,4,0,0,1-.51.25,3.78,3.78,0,0,1-.47.13,3.82,3.82,0,0,1-.69,0,5.71,5.71,0,0,1-.68,0c-.25,0-.48,0-.67-.07a6.05,6.05,0,0,1-1.18-.38,1.34,1.34,0,0,1-.39-.33.71.71,0,0,1-.12-.41,1,1,0,0,1,.21-.55l-.28-.27L49.12,48.4a6.35,6.35,0,0,0,2.12,1.15A8.34,8.34,0,0,0,54,50a5.9,5.9,0,0,0,2.49-.51,4,4,0,0,0,1-.65A3.63,3.63,0,0,0,58.1,48Z"/><path class="cls-1" d="M78.05,40.23a4.48,4.48,0,0,0-2.23-.56A5.69,5.69,0,0,0,72,40.84a3.08,3.08,0,0,0-1.15,2.44A3,3,0,0,0,72.4,45.9a6.47,6.47,0,0,0,3.54.91,8.87,8.87,0,0,0,1.68-.17,7.32,7.32,0,0,0,1.54-.47v-1h-.7a1.44,1.44,0,0,1-.8.64,4.57,4.57,0,0,1-1.49.19,4,4,0,0,1-2.1-.55,2.85,2.85,0,0,1-1.28-1.54l6.85-1.84A3.46,3.46,0,0,0,78.05,40.23Zm-5.46,3,0-.46a2,2,0,0,1,.88-1.67,2.79,2.79,0,0,1,1.78-.63,3.93,3.93,0,0,1,1.68.33,2.15,2.15,0,0,1,1.05,1.07Z"/><path class="cls-1" d="M121.58,40.23a4.5,4.5,0,0,0-2.23-.56,5.73,5.73,0,0,0-3.85,1.17,3.1,3.1,0,0,0-1.14,2.44,3,3,0,0,0,1.57,2.62,6.44,6.44,0,0,0,3.53.91,8.89,8.89,0,0,0,1.69-.17,7.05,7.05,0,0,0,1.53-.47v-1H122a1.38,1.38,0,0,1-.79.64,4.6,4.6,0,0,1-1.5.19,4,4,0,0,1-2.09-.55,2.85,2.85,0,0,1-1.28-1.54l6.85-1.84A3.46,3.46,0,0,0,121.58,40.23Zm-5.46,3-.05-.46a2.06,2.06,0,0,1,.87-1.67,2.81,2.81,0,0,1,1.79-.63,3.93,3.93,0,0,1,1.68.33,2.19,2.19,0,0,1,1,1.07Z"/></svg>