<svg id="Слой_3" data-name="Слой 3" xmlns="http://www.w3.org/2000/svg" viewBox="0 0 19.93 11.5"><defs><style>.cls-1{fill:#2a3141;}.cls-2{fill:#ea5e20;}</style></defs><title>Смотреть фото</title><path class="cls-1" d="M10,11.5C4.69,11.5.55,6.44.38,6.22L0,5.75l.38-.47C.55,5.06,4.69,0,10,0s9.41,5.06,9.59,5.28l.38.47-.38.47C19.37,6.44,15.23,11.5,10,11.5ZM2,5.75C3.08,7,6.29,10,10,10s6.89-3,8-4.25c-1.11-1.2-4.32-4.25-8-4.25S3.08,4.55,2,5.75Z"/><path class="cls-2" d="M10,10.05a4.3,4.3,0,1,1,4.31-4.3A4.31,4.31,0,0,1,10,10.05ZM10,3a2.8,2.8,0,1,0,2.81,2.8A2.8,2.8,0,0,0,10,3Z"/></svg>