<svg id="_1" data-name="1" xmlns="http://www.w3.org/2000/svg" viewBox="0 0 49.83 30"><defs><style>.cls-1{fill:#fca412;}.cls-1,.cls-2,.cls-3,.cls-4{fill-rule:evenodd;}.cls-2{fill:#d81e04;}.cls-3{fill:#fefefe;}.cls-4{fill:#192068;}</style></defs><title>MasterCard</title><path class="cls-1" d="M24.93,26.11a14.7,14.7,0,0,0,10,3.89,15,15,0,0,0,0-30,14.7,14.7,0,0,0-10,3.89,15,15,0,0,0,0,22.22Z"/><path class="cls-1" d="M47.85,23.36a.46.46,0,0,1,.46-.47.48.48,0,1,1,0,1,.47.47,0,0,1-.46-.49Zm.46.38a.4.4,0,0,0,.39-.38.38.38,0,0,0-.39-.36.36.36,0,0,0-.36.36.39.39,0,0,0,.36.38Zm-.05-.15v-.36h.1s0,0,0,.05,0,0,0,0h-.1v.08h.07l.06.18h.12l-.1-.21a.09.09,0,0,0,.08-.1c0-.05,0-.08-.05-.1a.15.15,0,0,0-.11,0h-.18v.44Z"/><path class="cls-2" d="M29.74,13.42a14.8,14.8,0,0,0-.26-1.6H20.37a15.69,15.69,0,0,1,.41-1.57h8.27c-.18-.54-.39-1.08-.62-1.6h-7c.26-.54.55-1.08.85-1.59h5.28a12.6,12.6,0,0,0-1.13-1.58h-3a15.21,15.21,0,0,1,1.52-1.59A15,15,0,1,0,14.91,30a14.82,14.82,0,0,0,10-3.89h0a13.83,13.83,0,0,0,1.49-1.57h-3a19.1,19.1,0,0,1-1.14-1.6h5.28a11.7,11.7,0,0,0,.88-1.59h-7c-.23-.52-.46-1-.64-1.57h8.27a14.5,14.5,0,0,0,.43-1.6,13.69,13.69,0,0,0,.26-1.6c.05-.51.08-1,.08-1.57S29.79,13.93,29.74,13.42Z"/><path class="cls-3" d="M47.85,18.49a.47.47,0,0,1,.46-.49.48.48,0,0,1,.49.49.49.49,0,0,1-.49.49.48.48,0,0,1-.46-.49Zm.46.36a.36.36,0,1,0,0-.72.36.36,0,0,0,0,.72Zm-.05-.15v-.34h.05s0,0,0,0a0,0,0,0,1,0,0s0,.05,0,.05,0,0,0,0h-.05v.08h.07l.06.16h.12l-.1-.19a.13.13,0,0,0,.08-.1c0-.05,0-.1-.05-.13h-.29v.42Z"/><path class="cls-4" d="M19.85,19.34a4.73,4.73,0,0,1-1.21.21c-.77,0-1.23-.49-1.23-1.37a4,4,0,0,1,.05-.57l.1-.59.08-.49.69-4.22h1.55l-.18.93h1l-.23,1.54h-1l-.41,2.52a1,1,0,0,0,0,.26c0,.34.15.47.54.47a2.43,2.43,0,0,0,.49-.06Z"/><path class="cls-4" d="M24.85,19.29a6.25,6.25,0,0,1-1.65.23,2.47,2.47,0,0,1-2.75-2.76c0-2.13,1.18-3.68,2.83-3.68a2.06,2.06,0,0,1,2.16,2.24,7,7,0,0,1-.18,1.52H22a1,1,0,0,0,0,.21c0,.72.49,1.08,1.41,1.08a3.86,3.86,0,0,0,1.68-.39l-.26,1.55Zm-1-3.68V15.3a.72.72,0,0,0-.78-.8c-.51,0-.87.38-1,1.11Z"/><polygon class="cls-4" points="7.49 19.42 5.9 19.42 6.82 13.57 4.74 19.42 3.63 19.42 3.5 13.6 2.52 19.42 0.95 19.42 2.21 11.82 4.56 11.82 4.61 16.51 6.18 11.82 8.76 11.82 7.49 19.42"/><path class="cls-4" d="M11.38,16.66a1.84,1.84,0,0,0-.31,0c-.92,0-1.39.36-1.39.92a.58.58,0,0,0,.59.65c.78,0,1.09-.65,1.11-1.55Zm1.29,2.76H11.28l0-.65a1.88,1.88,0,0,1-1.69.75,1.57,1.57,0,0,1-1.45-1.7,2.68,2.68,0,0,1,.13-.8c.26-.95,1.21-1.54,2.68-1.57a6.46,6.46,0,0,1,.72,0,1.46,1.46,0,0,0,.05-.42c0-.41-.33-.54-1.08-.54a4.28,4.28,0,0,0-1.34.21l-.23,0-.1,0,.23-1.39a5.86,5.86,0,0,1,1.88-.34c1.39,0,2.14.65,2.14,1.83a6.13,6.13,0,0,1-.08,1.21l-.36,2.21-.05.39,0,.31,0,.21Z"/><path class="cls-4" d="M32.63,13.29a3.14,3.14,0,0,1,1.44.41l.28-1.65a2.11,2.11,0,0,0-.41-.15l-.64-.18a3.32,3.32,0,0,0-.75-.08A3.22,3.22,0,0,0,30.8,12a4.76,4.76,0,0,0-.95.82l-.21,0L28,13.88l.08-.64h-1.7l-1,6.18H27l.59-3.33s.23-.46.33-.61a.94.94,0,0,1,.91-.39h.12a8.61,8.61,0,0,0-.07,1.18c0,2,1.13,3.28,2.88,3.28a5.41,5.41,0,0,0,1.42-.21l.28-1.75a2.93,2.93,0,0,1-1.36.41c-1,0-1.52-.72-1.52-1.85C30.57,14.47,31.42,13.29,32.63,13.29Z"/><path class="cls-4" d="M46.3,11.82,45.94,14a1.67,1.67,0,0,0-1.47-.87,2.44,2.44,0,0,0-2.14,1.41v0l-1-.62.11-.64H39.68l-1,6.18h1.6l.54-3.33s.41-.46.52-.61a1,1,0,0,1,.72-.39,5.57,5.57,0,0,0-.29,1.83c0,1.54.8,2.57,2,2.57a1.86,1.86,0,0,0,1.49-.69l-.08.62h1.52L48,11.82Zm-2,6.13c-.54,0-.83-.41-.83-1.21,0-1.21.52-2.09,1.27-2.09.56,0,.85.44.85,1.21C45.61,17.1,45.09,18,44.32,18Z"/><path class="cls-4" d="M36.88,16.66l-.31,0c-.93,0-1.39.36-1.39.92a.58.58,0,0,0,.59.65c.77,0,1.08-.65,1.11-1.55Zm1.28,2.76H36.75l0-.65a1.89,1.89,0,0,1-1.7.75,1.56,1.56,0,0,1-1.49-1.7c0-1.47,1.1-2.37,2.85-2.37a5.87,5.87,0,0,1,.7,0,1.75,1.75,0,0,0,.08-.42c0-.41-.34-.54-1.11-.54a4.38,4.38,0,0,0-1.34.21l-.21,0-.1,0,.23-1.39a5.86,5.86,0,0,1,1.88-.34c1.39,0,2.11.65,2.11,1.83a4.28,4.28,0,0,1-.07,1.21l-.34,2.21,0,.39-.05.31,0,.21Z"/><path class="cls-4" d="M16,14.55a8.49,8.49,0,0,1,1.21.1l.24-1.44c-.47-.05-1.09-.13-1.45-.13-1.8,0-2.39,1-2.39,2.11a1.75,1.75,0,0,0,1.21,1.7c.64.31.75.36.75.65s-.34.61-1,.61a4.33,4.33,0,0,1-1.47-.25L13,19.31l0,0,.31.05a3.72,3.72,0,0,0,.41.08c.39,0,.72.05.93.05,1.8,0,2.55-.7,2.55-2.06A1.76,1.76,0,0,0,16,15.73c-.7-.31-.78-.36-.78-.64S15.55,14.55,16,14.55Z"/><path class="cls-3" d="M34.79,11.56l-.28,1.65a3.15,3.15,0,0,0-1.45-.41C31.85,12.8,31,14,31,15.66c0,1.16.57,1.85,1.52,1.85a3.16,3.16,0,0,0,1.37-.39l-.28,1.73a5.6,5.6,0,0,1-1.42.23c-1.75,0-2.83-1.26-2.83-3.29,0-2.71,1.49-4.61,3.63-4.61a3.21,3.21,0,0,1,.74.07l.65.16Z"/><path class="cls-3" d="M29.59,12.7h-.16c-.54,0-.85.25-1.34,1l.16-.95H26.78l-1,6.18H27.4c.59-3.79.75-4.43,1.52-4.43H29a6.57,6.57,0,0,1,.62-1.78Z"/><path class="cls-3" d="M20.27,18.85a3.48,3.48,0,0,1-1.16.21,1.19,1.19,0,0,1-1.29-1.37c0-.15,0-.36.05-.54l.1-.62.08-.49.7-4.22h1.59l-.18.93H21l-.21,1.52H20l-.44,2.57a.83.83,0,0,0,0,.26c0,.31.16.44.54.44a.94.94,0,0,0,.44-.06Z"/><path class="cls-3" d="M14.06,14.7a1.8,1.8,0,0,0,1.21,1.73c.67.31.77.41.77.67s-.28.57-.92.57a4.73,4.73,0,0,1-1.45-.24l-.23,1.42.08,0,.28.05a2,2,0,0,0,.44.05,6.16,6.16,0,0,0,.88.05c1.7,0,2.49-.64,2.49-2.06a1.72,1.72,0,0,0-1.13-1.73c-.69-.3-.77-.38-.77-.66s.28-.49.8-.49a10.35,10.35,0,0,1,1.16.07l.23-1.41a9,9,0,0,0-1.42-.13C14.68,12.62,14,13.57,14.06,14.7Z"/><path class="cls-3" d="M47.12,18.93H45.61l.07-.6a1.91,1.91,0,0,1-1.49.67c-1.19,0-2-1-2-2.55,0-2.06,1.21-3.81,2.63-3.81a1.85,1.85,0,0,1,1.54.85l.36-2.16h1.6l-1.24,7.6Zm-2.36-1.45c.74,0,1.26-.87,1.26-2.08,0-.8-.29-1.21-.85-1.21-.72,0-1.26.85-1.26,2.06C43.91,17.07,44.19,17.48,44.76,17.48Z"/><path class="cls-3" d="M25.21,18.8a5.3,5.3,0,0,1-1.67.26,2.46,2.46,0,0,1-2.73-2.79c0-2.11,1.18-3.68,2.8-3.68a2.07,2.07,0,0,1,2.19,2.24,6.44,6.44,0,0,1-.2,1.55H22.4a.62.62,0,0,0,0,.18c0,.72.49,1.08,1.41,1.08a3.48,3.48,0,0,0,1.68-.39l-.26,1.55Zm-.9-3.68v-.31a.71.71,0,0,0-.77-.8c-.52,0-.88.38-1,1.11Z"/><polygon class="cls-3" points="7.91 18.93 6.31 18.93 7.24 13.08 5.15 18.93 4.04 18.93 3.91 13.13 2.94 18.93 1.44 18.93 2.7 11.33 5.02 11.33 5.1 16.04 6.64 11.33 9.17 11.33 7.91 18.93"/><path class="cls-3" d="M11.9,16.17l-.36,0c-.9,0-1.37.33-1.37,1a.55.55,0,0,0,.57.62c.67,0,1.13-.62,1.16-1.55Zm1.18,2.76H11.74l0-.65a2,2,0,0,1-1.7.75A1.49,1.49,0,0,1,8.6,17.36c0-1.52,1-2.4,2.83-2.4.18,0,.42,0,.67,0a1.29,1.29,0,0,0,.05-.38c0-.42-.28-.57-1-.57a5.41,5.41,0,0,0-1.33.15l-.24.08-.15,0,.23-1.39a6.55,6.55,0,0,1,1.93-.31c1.39,0,2.14.62,2.14,1.8a8.32,8.32,0,0,1-.13,1.24l-.36,2.19-.05.38,0,.31,0,.23Z"/><path class="cls-3" d="M37.39,16.17c-.18,0-.26,0-.36,0-.93,0-1.39.33-1.39,1a.56.56,0,0,0,.59.62c.65,0,1.13-.62,1.16-1.55Zm1.19,2.76H37.24l0-.65a2,2,0,0,1-1.7.75,1.5,1.5,0,0,1-1.47-1.67c0-1.52,1-2.4,2.84-2.4.18,0,.41,0,.64,0a1.7,1.7,0,0,0,.08-.38c0-.42-.29-.57-1-.57a5.69,5.69,0,0,0-1.37.15l-.2.08-.16,0,.23-1.39a6.56,6.56,0,0,1,1.94-.31c1.39,0,2.11.62,2.11,1.8A5.52,5.52,0,0,1,39,15.66l-.34,2.19-.05.38,0,.31,0,.23Z"/><path class="cls-3" d="M42.9,12.7h-.15c-.54,0-.85.25-1.34,1l.15-.95H40.09l-1,6.18h1.59c.59-3.79.75-4.43,1.52-4.43h.1A6.93,6.93,0,0,1,43,12.72Z"/></svg>