<svg id="Layer_1" data-name="Layer 1" xmlns="http://www.w3.org/2000/svg" xmlns:xlink="http://www.w3.org/1999/xlink" viewBox="0 0 70.66 20"><defs><style>.cls-1{fill:#4db45e;}.cls-1,.cls-2{fill-rule:evenodd;}.cls-2{fill:url(#Безымянный_градиент);}</style><linearGradient id="Безымянный_градиент" x1="49.86" y1="16.9" x2="70.66" y2="16.9" gradientTransform="matrix(1, 0, 0, -1, 0, 21)" gradientUnits="userSpaceOnUse"><stop offset="0.3" stop-color="#00b4e6"/><stop offset="1" stop-color="#088ccb"/></linearGradient></defs><title>Mir</title><g id="g5"><path id="path7" class="cls-1" d="M19,0h0a3.68,3.68,0,0,0-3.49,2.62C14.87,5,13,11.69,12.93,11.88H12.4S10.46,5.07,9.78,2.62A3.69,3.69,0,0,0,6.29,0H0V20H6.29V8.12h.52L10.48,20h4.37L18.52,8.13H19V20h6.29V0Z"/></g><g id="g9"><path id="path11" class="cls-1" d="M42,0A3.54,3.54,0,0,0,39.3,2.1l-4.45,9.78h-.53V0H28V20H34a3.62,3.62,0,0,0,2.8-2.1l4.37-9.78h.52V20H48V0Z"/></g><g id="g13"><path id="path15" class="cls-1" d="M50.74,9.08V20H57V13.62h6.81a6.79,6.79,0,0,0,6.42-4.54Z"/></g><g id="g17"><path id="path24" class="cls-2" d="M63.84,0h-14a10,10,0,0,0,7.25,7.86h0a9.93,9.93,0,0,0,2.63.35H70.52a7.15,7.15,0,0,0,.14-1.4A6.81,6.81,0,0,0,63.84,0Z"/></g></svg>