<svg id="Слой_3" data-name="Слой 3" xmlns="http://www.w3.org/2000/svg" viewBox="0 0 50 50"><defs><style>.cls-1{fill:#eaecf0;}.cls-2{fill:#ea5e20;}.cls-3{fill:#2a3141;}</style></defs><title>Нет фото</title><rect class="cls-1" width="50" height="50"/><path class="cls-2" d="M34.51,13.49H33.39V11L30.25,7.83H20L16.89,11v2.52H15.81L13.5,14.78v4.27l3.35,3.35,0,0V25l8.25,4.4L33.39,25v-2.7l.08.07,3.36-3.35V14.78ZM16.89,20.33,15,18.43V15.66L16.2,15h.69Zm15,3.8-6.75,3.6-6.75-3.6V11.59l2.27-2.26h9l2.26,2.26Zm3.44-5.7-1.94,1.93V15h.73l1.21.67Z"/><rect class="cls-3" x="33.39" y="37.65" width="1.5" height="12.35"/><polygon class="cls-3" points="37.74 31.89 11.52 31.89 0.92 50 2.66 50 12.38 33.38 36.91 33.38 47.45 50 49.23 50 37.74 31.89"/><rect class="cls-3" x="14.39" y="37.65" width="1.5" height="12.35"/></svg>