<svg id="Слой_3" data-name="Слой 3" xmlns="http://www.w3.org/2000/svg" viewBox="0 0 43.89 35"><defs><style>.cls-1{fill:#2a3141;}</style></defs><title>Номер</title><path class="cls-1" d="M24.51,35H17l-10-22.52V35H0V.38H7.56L17.62,22.94V.38h6.89Zm2.9-26.44A8.51,8.51,0,0,1,29.7,2.38,7.84,7.84,0,0,1,35.64,0a7.93,7.93,0,0,1,6,2.37A8.74,8.74,0,0,1,43.89,8.7v1.48a8.59,8.59,0,0,1-2.24,6.13,7.83,7.83,0,0,1-6,2.38,7.93,7.93,0,0,1-6-2.39A8.73,8.73,0,0,1,27.41,10ZM42.68,25.09H28.48v-3.5h14.2ZM31.57,10.18a5.6,5.6,0,0,0,1.11,3.69,3.69,3.69,0,0,0,3,1.35,3.57,3.57,0,0,0,3-1.36,6,6,0,0,0,1.08-3.8V8.56a5.62,5.62,0,0,0-1.12-3.69,3.92,3.92,0,0,0-5.92,0,5.83,5.83,0,0,0-1.12,3.78Z"/></svg>