<svg id="Слой_3" data-name="Слой 3" xmlns="http://www.w3.org/2000/svg" viewBox="0 0 21.29 19.1"><defs><style>.cls-1{fill:#2a3141;}.cls-2{fill:#ea5e20;}</style></defs><title>Кол.выполненных заказов</title><path class="cls-1" d="M9.55,19.1A9.56,9.56,0,0,1,0,9.55,9.49,9.49,0,0,1,1.85,3.91,9.57,9.57,0,0,1,9.55,0a9.42,9.42,0,0,1,5.74,1.92,8.38,8.38,0,0,1,1,.88L15.24,3.86a7.38,7.38,0,0,0-.85-.74A8,8,0,0,0,9.55,1.5,8.05,8.05,0,1,0,17.6,9.55h1.5A9.56,9.56,0,0,1,9.55,19.1Z"/><polygon class="cls-2" points="9.09 14.52 2.48 9.04 3.44 7.89 8.97 12.48 20.21 0.74 21.29 1.78 9.09 14.52"/></svg>