<svg id="Слой_3" data-name="Слой 3" xmlns="http://www.w3.org/2000/svg" viewBox="0 0 15.87 19.5"><defs><style>.cls-1{fill:#ea5e20;}.cls-2{fill:#2a3141;}</style></defs><title>Пароль</title><path class="cls-1" d="M12.46,6.58H11V4a2.79,2.79,0,0,0-3-2.49A2.8,2.8,0,0,0,4.91,4V6.58H3.41V4A4.29,4.29,0,0,1,7.94,0a4.29,4.29,0,0,1,4.52,4Z"/><path class="cls-2" d="M13.91,19.5H2a2,2,0,0,1-2-2V13a7.94,7.94,0,1,1,15.87,0v4.56A2,2,0,0,1,13.91,19.5Zm-6-13A6.45,6.45,0,0,0,1.5,13v4.56A.45.45,0,0,0,2,18h12a.45.45,0,0,0,.46-.46V13A6.45,6.45,0,0,0,7.94,6.54Z"/><path class="cls-1" d="M7.86,14.75a2,2,0,0,1-2-2,2.08,2.08,0,0,1,.09-.6,2.51,2.51,0,0,1-.61-1.65,2.54,2.54,0,0,1,5.08,0,2.52,2.52,0,0,1-.62,1.65,2.09,2.09,0,0,1,.1.6A2,2,0,0,1,7.86,14.75Zm0-5.31a1,1,0,0,0-.59,1.9l.18,1.08a.47.47,0,0,0-.11.31.52.52,0,0,0,.52.52.52.52,0,0,0,.52-.52.47.47,0,0,0-.12-.31l.18-1.08a1,1,0,0,0-.58-1.9Z"/></svg>