<svg id="Слой_3" data-name="Слой 3" xmlns="http://www.w3.org/2000/svg" viewBox="0 0 29.7 31.5"><defs><style>.cls-1{fill:#2a3141;}.cls-2{fill:#ea5e20;}.cls-3{fill:none;stroke:#ea5e20;stroke-miterlimit:10;stroke-width:1.5px;}</style></defs><title>Оплата</title><polygon class="cls-1" points="5.58 18.3 0 18.3 0 0 25.5 0 25.5 14.17 24 14.17 24 1.5 1.5 1.5 1.5 16.8 5.58 16.8 5.58 18.3"/><path class="cls-2" d="M29.7,31.5H4.2V13.2H29.7ZM5.7,30H28.2V14.7H5.7Z"/><rect class="cls-2" x="4.95" y="25.69" width="24" height="1.5"/><rect class="cls-1" x="7.99" y="21.24" width="18.39" height="1.5"/><path class="cls-3" d="M26.15,22.35"/><path class="cls-3" d="M22.15,22.35"/><circle class="cls-2" cx="11.66" cy="17.45" r="1.51"/><circle class="cls-1" cx="9.26" cy="17.45" r="1.51"/><rect class="cls-1" x="16.39" y="16.8" width="9.99" height="1.5"/><circle class="cls-2" cx="7.46" cy="4.85" r="1.51"/><circle class="cls-1" cx="5.06" cy="4.85" r="1.51"/><rect class="cls-1" x="11.83" y="3.96" width="9.99" height="1.5"/><rect class="cls-1" x="3.55" y="8.04" width="18.39" height="1.5"/></svg>