<svg id="Слой_3" data-name="Слой 3" xmlns="http://www.w3.org/2000/svg" viewBox="0 0 47.11 60"><defs><style>.cls-1{fill:#eaecf0;}.cls-2{fill:#fff;}.cls-3{fill:#e03500;}</style></defs><title>PDF</title><path class="cls-1" d="M34.18,0H0V60H47.11V12.93ZM46.11,59H1V1H33.18V13.93H46.11Z"/><path class="cls-2" d="M47.11,0"/><path class="cls-3" d="M22.92,40.86a2.23,2.23,0,0,0-.66-.22,6.29,6.29,0,0,0-.86,0h-.47l-.4,0V43.4h.67a3.64,3.64,0,0,0,1.69-.31A1.17,1.17,0,0,0,23.46,42a1.35,1.35,0,0,0-.14-.66A1.27,1.27,0,0,0,22.92,40.86Z"/><path class="cls-3" d="M0,36.54v14.3H47.11V36.54ZM16.44,48.32a1.38,1.38,0,0,1-1.79,0,1.15,1.15,0,0,1-.4-.94,1.19,1.19,0,0,1,.4-1,1.4,1.4,0,0,1,1.79,0,1.16,1.16,0,0,1,.4,1A1.1,1.1,0,0,1,16.44,48.32Zm8.1-3.82a5.93,5.93,0,0,1-3.32.77h-.68v3.22H18.37V39a11,11,0,0,1,1.5-.2c.53,0,1,0,1.39,0a6.06,6.06,0,0,1,3.3.75A2.77,2.77,0,0,1,25.71,42,2.77,2.77,0,0,1,24.54,44.5Zm10.78,1.34a3.9,3.9,0,0,1-1.1,1.54,4.76,4.76,0,0,1-1.74.91,8.13,8.13,0,0,1-2.3.31,13.5,13.5,0,0,1-1.36-.05,11.45,11.45,0,0,1-1.53-.2V39a13.8,13.8,0,0,1,1.56-.18c.55,0,1,0,1.4,0a8.48,8.48,0,0,1,2.24.27,4.73,4.73,0,0,1,1.73.88,3.77,3.77,0,0,1,1.1,1.52,5.7,5.7,0,0,1,.4,2.24A5.47,5.47,0,0,1,35.32,45.84ZM44,40.69H39.69v2h3.8v1.82h-3.8v4H37.53v-9.6H44Z"/><path class="cls-3" d="M30.38,40.6h-.46a1.57,1.57,0,0,0-.44,0v6.07a2.24,2.24,0,0,1,.35,0h.48a3.23,3.23,0,0,0,2.4-.8,3.13,3.13,0,0,0,.8-2.26,3.19,3.19,0,0,0-.75-2.29A3.16,3.16,0,0,0,30.38,40.6Z"/></svg>