<svg id="_1" data-name="1" xmlns="http://www.w3.org/2000/svg" viewBox="0 0 90 20"><defs><style>.cls-1{fill:#26206a;}.cls-2{fill:#fff;}.cls-2,.cls-3{fill-rule:evenodd;}.cls-3{fill:#e4003d;}</style></defs><title>ПЭК</title><rect class="cls-1" width="90" height="20"/><path class="cls-2" d="M15.37,5.72a45,45,0,0,1,8.68,0,14.09,14.09,0,0,1,0,8.57,38.09,38.09,0,0,1-5,.2c-1.22-.05-2.44-.1-3.65-.2.14-.77.3-1.52.43-2.29a32.3,32.3,0,0,0,5.9,0c.05-.3.09-.6.13-.9h-4c0-.74,0-1.47,0-2.2h4c0-.3-.07-.6-.11-.9a32.74,32.74,0,0,0-5.94,0c-.13-.76-.29-1.52-.44-2.28Zm-10.76,0h9.66v8.57h-3.1V8.14H7.69v6.15H4.61c0-2.86,0-5.71,0-8.57ZM26,5.72H29V8.81h1.13l2.48-3.09h3.57l-3.48,4q1.85,2.29,3.71,4.56H32.63c-.84-1.07-1.66-2.15-2.49-3.23H29v3.23H26C26,11.43,26,8.58,26,5.72Z"/><path class="cls-3" d="M37.51,5.24a16.5,16.5,0,0,1,3.37,0c0,1,0,2,0,2.94H37.51V5.24Zm12.38,0a1.73,1.73,0,0,1,1.79.67,2.51,2.51,0,0,1,0,2.45,1.82,1.82,0,0,1-2.76.21,2.52,2.52,0,0,1-.35-2.07,1.57,1.57,0,0,1,1.32-1.26Zm0,.64a1.11,1.11,0,0,0-.51,1,2.65,2.65,0,0,0,.14,1.22.83.83,0,0,0,1.44,0,2.41,2.41,0,0,0,0-1.77.79.79,0,0,0-1.1-.41Zm3.48-.42a2.66,2.66,0,0,1,2-.11L55.24,6a2,2,0,0,0-1.35,0,1.3,1.3,0,0,0-.49,1.18,1.26,1.26,0,0,0,.45,1.12,2.43,2.43,0,0,0,1.51,0c0,.19.09.38.13.57a2.82,2.82,0,0,1-2.26-.08,1.84,1.84,0,0,1-.69-1.64,1.9,1.9,0,0,1,.82-1.72Zm-8.76,3c.65-.93.53-2.11.64-3.17h2.44V8.44l.37,0c0,.51,0,1,0,1.52h-.63c0-.32,0-.63,0-.94H44.83c0,.31,0,.63,0,.94h-.64V8.46l.41,0Zm1.34-2.59a5.75,5.75,0,0,1-.5,2.6h1.43V5.85Zm9.79-.58H58.9c0,.2,0,.4,0,.6H57.73V9h-.79c0-1,0-2.11,0-3.17h-1.2v-.6Zm4.28,0C59.6,6.54,59.15,7.79,58.74,9a2.79,2.79,0,0,0,.82,0,7.35,7.35,0,0,0,.28-.83h1.33l.27.87h.85c-.43-1.25-.84-2.51-1.25-3.76-.34,0-.69,0-1,0Zm.51.56c.16.59.31,1.18.49,1.77H60c.17-.59.32-1.19.51-1.78Zm2.34-.57a17,17,0,0,1,2,.05,1,1,0,0,1,.76,1.08,1,1,0,0,1-.42.65,1.05,1.05,0,0,1-.14,1.88A9.14,9.14,0,0,1,62.86,9c0-1.26,0-2.51,0-3.77Zm.81.58v1c.36,0,.83.11,1.08-.23a.5.5,0,0,0-.18-.67,3,3,0,0,0-.9-.07Zm0,1.52V8.44a3.85,3.85,0,0,0,1,0,.56.56,0,0,0,0-1,3.85,3.85,0,0,0-1,0Zm3.39-2.09c.79,0,1.58,0,2.38,0V9h-.82c0-1.07,0-2.13,0-3.19h-.86a7.46,7.46,0,0,1-.37,2.62,1.64,1.64,0,0,1-1.08.76c-.07-.19-.13-.38-.2-.56.3-.18.66-.37.73-.75a23.3,23.3,0,0,0,.22-2.64ZM70.35,6.4a1,1,0,0,1,.87-1.1c.62-.07,1.25,0,1.88,0,0,1.26,0,2.51,0,3.77H72.3V7.5c-.32,0-.75-.06-.94.26A8.33,8.33,0,0,0,70.94,9h-.82c.24-.58.22-1.33.77-1.73a1.1,1.1,0,0,1-.54-.91Zm1.16-.5a.55.55,0,0,0,0,1,5.63,5.63,0,0,0,.82,0V5.85a4.09,4.09,0,0,0-.79.05ZM74,5.27h2.58c0,.19,0,.39,0,.58-.59,0-1.18,0-1.77,0v1h1.48c0,.17,0,.35,0,.53H74.86v1.1h1.85c0,.2,0,.41,0,.61H74V5.27Zm3.45,0h1c.35.85.69,1.71,1,2.57.38-.85.7-1.72,1.08-2.57h1c0,1.26,0,2.51,0,3.77h-.81c0-.82,0-1.64,0-2.46-.31.7-.6,1.4-.89,2.1l-.68,0c-.28-.72-.61-1.41-.87-2.13,0,.82,0,1.65,0,2.47h-.77V5.27ZM67.84,10l.33-.25c.22.18.43.43.73.45a1.71,1.71,0,0,0,.86-.43L70,10a1.56,1.56,0,0,1-1.1.68c-.47,0-.77-.38-1-.7Zm-22.9,1.22A2.72,2.72,0,0,1,47,11c0,.21-.08.41-.11.61a1.77,1.77,0,0,0-1.41.09A1.41,1.41,0,0,0,45,13a1.13,1.13,0,0,0,.52,1A2.61,2.61,0,0,0,47,14c.06.18.11.37.16.56a3,3,0,0,1-2.16,0,1.61,1.61,0,0,1-.81-1.49,2.06,2.06,0,0,1,.75-1.91ZM47.78,11c.85,0,1.7,0,2.55,0v.57H48.6v.91a3,3,0,0,1,1.65.22,1.17,1.17,0,0,1-.06,1.89,1.86,1.86,0,0,1-.9.17H47.77c0-1.25,0-2.5,0-3.75Zm.81,2c0,.39,0,.78,0,1.18a6.19,6.19,0,0,0,.86,0,.59.59,0,0,0,.08-1.08,3.74,3.74,0,0,0-.95-.06Zm3.52-2a2.29,2.29,0,0,1,1.37,0,1.53,1.53,0,0,1,1,1.14,2.61,2.61,0,0,1-.25,1.94,1.87,1.87,0,0,1-2.53.37,2.14,2.14,0,0,1-.62-1.94,1.7,1.7,0,0,1,1-1.51Zm.33.55c-.64.4-.62,1.32-.47,2a.84.84,0,0,0,1.21.56A1.3,1.3,0,0,0,53.67,13a2,2,0,0,0-.27-1.21.83.83,0,0,0-1-.19ZM55,11a9.25,9.25,0,0,1,2,.1,1.18,1.18,0,0,1,.23,2,2.53,2.53,0,0,1-1.44.22c0,.47,0,1,0,1.43H55c0-1.25,0-2.49,0-3.74Zm.83.56c0,.4,0,.8,0,1.2a3.1,3.1,0,0,0,.81-.06.63.63,0,0,0-.08-1.08,3.5,3.5,0,0,0-.72-.06ZM58.29,11h.82c0,.5,0,1,0,1.48h1.45c0-.49,0-1,0-1.47h.83v3.74h-.82c0-.55,0-1.1,0-1.64H59.11v1.65h-.82V11Zm4,0,.82,0v1.49a3,3,0,0,1,1.63.22,1.15,1.15,0,0,1,.37,1.42,1,1,0,0,1-.91.62c-.63,0-1.27,0-1.91,0V11Zm.82,2v1.18a4.59,4.59,0,0,0,.91-.05.59.59,0,0,0,0-1.07,3.46,3.46,0,0,0-.91-.06Zm2.51-2h.8c0,1.25,0,2.5,0,3.76h-.81c0-1.25,0-2.51,0-3.76Zm1.73,0h.8c0,.86,0,1.72,0,2.58.52-.86,1-1.71,1.56-2.57h.8v3.74h-.8V12.18l-1.56,2.53h-.81V11Zm5.72,0h2.59v.58H73.89v3.16h-.82c0-1.25,0-2.49,0-3.74Zm3,0a9.64,9.64,0,0,1,2,.09A1.18,1.18,0,0,1,78.38,13c-.42.39-1,.28-1.55.3,0,.47,0,1,0,1.43H76c0-1.25,0-2.49,0-3.74Zm.81.57v1.19a3,3,0,0,0,.79-.06.63.63,0,0,0,.18-.9c-.23-.31-.65-.2-1-.23ZM78.94,11c.34.81.7,1.61,1,2.42a1.52,1.52,0,0,0,.37.5c-.14.38-.52.32-.85.29l-.12.55a1.9,1.9,0,0,0,1.18,0,1.23,1.23,0,0,0,.51-.74c.39-1,.81-2,1.19-3h-.79c-.29.76-.56,1.53-.83,2.3L79.77,11l-.83,0Zm3.67.19a3.35,3.35,0,0,1,2.12-.1.85.85,0,0,1,.55.94,1.22,1.22,0,0,1-.47.69c.18.14.4.26.49.48a1.07,1.07,0,0,1-.55,1.41,3.34,3.34,0,0,1-2.29,0c.05-.18.11-.37.17-.55a2.91,2.91,0,0,0,1.52.09.54.54,0,0,0,.23-.9c-.29-.24-.7-.17-1-.2,0-.16,0-.33,0-.49.33,0,.74,0,1-.25a.42.42,0,0,0-.18-.68,2.58,2.58,0,0,0-1.35.11l-.18-.53ZM37.51,12h3.38v2.77a14.7,14.7,0,0,1-3.38,0Z"/></svg>