<svg id="Слой_3" data-name="Слой 3" xmlns="http://www.w3.org/2000/svg" viewBox="0 0 16.5 16.5"><defs><style>.cls-1{fill:#ea5e20;}.cls-2{fill:#2a3141;}</style></defs><title>Карандаш</title><path class="cls-1" d="M.75,16.5a.75.75,0,0,1-.71-1l1.65-4.82,1.42.48L2,14.54l3.37-1.15.48,1.42L1,16.46A.67.67,0,0,1,.75,16.5Z"/><path class="cls-2" d="M5.57,14.85A.77.77,0,0,1,5,14.63L1.87,11.46a.75.75,0,0,1,0-1.06L12.05.22a.75.75,0,0,1,1.06,0l3.17,3.17a.75.75,0,0,1,.22.53.77.77,0,0,1-.22.53L6.1,14.63A.79.79,0,0,1,5.57,14.85ZM3.46,10.93,5.57,13l9.12-9.12L12.58,1.81Z"/></svg>