<svg id="Слой_3" data-name="Слой 3" xmlns="http://www.w3.org/2000/svg" viewBox="0 0 20.44 20"><defs><style>.cls-1{fill:#2a3141;}.cls-2{fill:#ea5e20;}</style></defs><title>Телефон (инпуты)</title><path class="cls-1" d="M3.26,2.47,7,6.15,5.7,7.59l6.74,6.89L13.8,13l3.76,3.75-4.45,1.7L1.56,6.94,3.26,2.5M2.74.1,2,2,.31,6.44,0,7.27l.61.61L12.12,19.39l.61.61.81-.31L18,18l1.93-.73L18.45,15.8,14.7,12l-1-1-.93,1-.4.44-4.84-5L8,7.06l.89-.95L8,5.22,4.19,1.51Z"/><path class="cls-2" d="M16.38,8.81H15.05a3.39,3.39,0,0,0-3.38-3.39V4.09A4.72,4.72,0,0,1,16.38,8.81Z"/><path class="cls-2" d="M20.44,9.54H19.11a8.21,8.21,0,0,0-8.17-8.21V0A9.54,9.54,0,0,1,20.44,9.54Z"/></svg>