<?xml version="1.0" encoding="utf-8"?>
<!-- Generator: Adobe Illustrator 23.0.6, SVG Export Plug-In . SVG Version: 6.00 Build 0)  -->
<svg version="1.1" id="Слой_3" xmlns="http://www.w3.org/2000/svg" xmlns:xlink="http://www.w3.org/1999/xlink" x="0px" y="0px"
	 viewBox="0 0 16 16.3" style="enable-background:new 0 0 16 16.3;" xml:space="preserve">
<style type="text/css">
	.st0{fill:#2A3141;}
	.st1{fill:#FF8853;}
</style>
<title>Ссылка на фото</title>
<g>
	<g>
		<g>
			<path class="st0" d="M10.3,11.9c-0.1-0.1-0.2-0.1-0.3-0.1H6c-0.1,0-0.2,0-0.3,0.1c-0.1,0.1-0.1,0.2-0.1,0.3
				c0.5,2.6,1.4,4.2,2.3,4.2s1.9-1.6,2.3-4.2C10.4,12,10.3,11.9,10.3,11.9z"/>
			<path class="st0" d="M15.6,5.8c0-0.1-0.2-0.2-0.3-0.2h-3.6c-0.1,0-0.2,0-0.2,0.1c-0.1,0.1-0.1,0.2-0.1,0.3
				c0.1,0.8,0.1,1.4,0.1,2.2s0,1.5-0.1,2.3c0,0.1,0,0.2,0.1,0.3c0.1,0.1,0.2,0.1,0.2,0.1h3.6c0.1,0,0.3-0.1,0.3-0.2
				C15.9,9.7,16,8.9,16,8.1S15.9,6.6,15.6,5.8z"/>
			<path class="st1" d="M11,4.5c0,0.2,0.2,0.3,0.3,0.3h3.4c0.1,0,0.2-0.1,0.3-0.2c0.1-0.1,0.1-0.2,0-0.3c-1-1.8-2.7-3.2-4.7-3.8
				c-0.1,0-0.3,0-0.4,0.1c-0.1,0.1-0.1,0.3,0,0.4C10.4,1.8,10.8,3,11,4.5z"/>
			<path class="st1" d="M10.2,5.5H6c-0.2,0-0.3,0.1-0.3,0.3C5.6,6.6,5.5,7.3,5.5,8.1s0,1.6,0.1,2.4c0,0.2,0.2,0.3,0.3,0.3h4.2
				c0.2,0,0.3-0.1,0.3-0.3c0.1-0.8,0.1-1.6,0.1-2.4s0-1.5-0.1-2.3C10.5,5.7,10.4,5.5,10.2,5.5z"/>
			<path class="st0" d="M1.3,4.8h3.2c0.2,0,0.3-0.1,0.3-0.3C5,3,5.4,1.7,5.9,0.9c0.1-0.1,0.1-0.3,0-0.4C5.8,0.4,5.6,0.4,5.5,0.4
				C3.5,1,2,2.4,1,4.3C0.9,4.4,0.9,4.5,1,4.6C1,4.7,1.1,4.8,1.3,4.8z"/>
			<path class="st0" d="M4.5,10.7c0.1-0.1,0.1-0.2,0.1-0.3C4.5,9.6,4.5,8.9,4.5,8.1s0-1.4,0.1-2.2c0-0.1,0-0.2-0.1-0.3
				C4.4,5.6,4.3,5.5,4.3,5.5H0.7c-0.1,0-0.3,0.1-0.3,0.2C0.1,6.6,0,7.3,0,8.1s0.1,1.6,0.4,2.4c0,0.1,0.2,0.2,0.3,0.2h3.6
				C4.3,10.8,4.4,10.7,4.5,10.7z"/>
			<path class="st0" d="M5,11.9c0-0.2-0.2-0.3-0.3-0.3H1.3c-0.1,0-0.2,0.1-0.3,0.2c-0.1,0.1-0.1,0.2,0,0.3c1,1.8,2.7,3.1,4.7,3.7
				c0,0,0.1,0,0.1,0c0.1,0,0.2,0,0.3-0.1c0.1-0.1,0.1-0.3,0-0.4C5.6,14.5,5.2,13.4,5,11.9z"/>
			<path class="st0" d="M14.7,11.6h-3.2c-0.2,0-0.3,0.1-0.3,0.3c-0.2,1.5-0.6,2.6-1.1,3.5c-0.1,0.1-0.1,0.3,0,0.4
				c0.1,0.1,0.2,0.1,0.3,0.1c0,0,0.1,0,0.1,0c2-0.6,3.5-1.9,4.5-3.7c0.1-0.1,0.1-0.2,0-0.3C15,11.7,14.9,11.6,14.7,11.6z"/>
			<path class="st0" d="M5.9,4.5C6,4.6,6.1,4.7,6.2,4.7h3.6c0.1,0,0.2,0,0.3-0.1c0.1-0.1,0.1-0.2,0.1-0.3C9.7,1.7,8.9,0,8,0
				S6.3,1.7,5.9,4.3C5.8,4.4,5.9,4.5,5.9,4.5z"/>
		</g>
	</g>
</g>
</svg>
