<svg id="Capa_1" data-name="Capa 1" xmlns="http://www.w3.org/2000/svg" viewBox="0 0 16 14"><defs><style>.cls-1{fill:#ea5e20;}</style></defs><title>Фото</title><path class="cls-1" d="M8,11.62a4.06,4.06,0,0,1-2.91-1.21,4.12,4.12,0,0,1,5.82-5.82h0a4.12,4.12,0,0,1-2.91,7ZM8,4.88a2.62,2.62,0,1,0,1.85.77A2.61,2.61,0,0,0,8,4.88Z"/><path class="cls-1" d="M10.69,1.5l.59,1.17.41.83H14a.5.5,0,0,1,.5.5v8a.5.5,0,0,1-.5.5H2a.5.5,0,0,1-.5-.5V4A.5.5,0,0,1,2,3.5H4.31l.41-.83L5.31,1.5h5.38M11.62,0H4.38l-1,2H2A2,2,0,0,0,0,4v8a2,2,0,0,0,2,2H14a2,2,0,0,0,2-2V4a2,2,0,0,0-2-2H12.62l-1-2Z"/></svg>