<svg xmlns="http://www.w3.org/2000/svg" viewBox="0 0 28.17 31.5"><defs><style>.cls-1{fill:#2a3141;}.cls-2{fill:#ea5e20;}</style></defs><title>Самовывоз</title><g id="Слой_3" data-name="Слой 3"><polygon class="cls-1" points="6.41 25.79 0 20.05 6.21 11.86 21.3 11.86 28.17 20.07 21.9 25.79 20.89 24.68 26.09 19.93 20.6 13.36 6.96 13.36 2.03 19.86 7.41 24.67 6.41 25.79"/><path class="cls-2" d="M18,9.33H9.51V0H18Zm-7-1.5h5.53V1.5H11Z"/></g><g id="Слой_4" data-name="Слой 4"><polygon class="cls-2" points="21.61 31.5 5.94 31.5 5.94 16.06 11.92 16.06 11.92 17.56 7.44 17.56 7.44 30 20.11 30 20.11 17.56 15.21 17.56 15.21 16.06 21.61 16.06 21.61 31.5"/><path class="cls-1" d="M16,26.21l-2.13-1.68-2.26,1.55V15.23H16Zm-2.89-9.48v6.51l.83-.57.56.44V16.73Z"/></g></svg>