<svg id="Слой_3" data-name="Слой 3" xmlns="http://www.w3.org/2000/svg" viewBox="0 0 14 14"><defs><style>.cls-1{fill:#ea5e20;}</style></defs><title>Вопросик</title><path class="cls-1" d="M7,14a7,7,0,1,1,7-7A7,7,0,0,1,7,14ZM7,1a6,6,0,1,0,6,6A6,6,0,0,0,7,1Z"/><path class="cls-1" d="M6.25,8.94a3.58,3.58,0,0,1,.17-1.13A2.88,2.88,0,0,1,7,6.88l.8-.81a1.84,1.84,0,0,0,.5-1.24,1.41,1.41,0,0,0-.33-1,1.25,1.25,0,0,0-1-.36,1.44,1.44,0,0,0-1,.33,1.08,1.08,0,0,0-.37.87H4.55a2,2,0,0,1,.7-1.58A2.59,2.59,0,0,1,7,2.5a2.48,2.48,0,0,1,1.79.61A2.25,2.25,0,0,1,9.45,4.8a3,3,0,0,1-1,2.08l-.66.65a2.07,2.07,0,0,0-.44,1.41Zm0,1.92a.69.69,0,0,1,.17-.46.64.64,0,0,1,.49-.18.65.65,0,0,1,.5.18.69.69,0,0,1,.17.46.61.61,0,0,1-.67.64.64.64,0,0,1-.49-.18A.65.65,0,0,1,6.2,10.86Z"/></svg>