<svg id="Слой_3" data-name="Слой 3" xmlns="http://www.w3.org/2000/svg" viewBox="0 0 13 16"><defs><style>.cls-1{fill:#2a3141;}.cls-2{fill:#ea5e20;}</style></defs><title>Повторить заказ</title><path class="cls-1" d="M12.33,16H3.79a.68.68,0,0,1-.67-.69V3.79a.68.68,0,0,1,.67-.69h8.54a.68.68,0,0,1,.67.69V15.31A.68.68,0,0,1,12.33,16ZM4.46,14.63h7.2V4.47H4.46Z"/><path class="cls-2" d="M9.21,12.9H.67A.68.68,0,0,1,0,12.21V.69A.68.68,0,0,1,.67,0H9.21a.68.68,0,0,1,.67.69V12.21A.68.68,0,0,1,9.21,12.9ZM1.34,11.53h7.2V1.37H1.34Z"/></svg>