<svg id="Слой_1" data-name="Слой 1" xmlns="http://www.w3.org/2000/svg" viewBox="0 0 90 20"><defs><style>.cls-1,.cls-2{fill:#243688;}.cls-2,.cls-3{fill-rule:evenodd;}.cls-3{fill:#fff;}</style></defs><title>Почта России</title><rect class="cls-1" width="90" height="20"/><path class="cls-2" d="M72.06,17H85.78V3H72.06V17ZM78.85,4.66v.12h-.1v.07a.15.15,0,0,1,.09.14H79a.14.14,0,0,1,.12-.15L79,4.77v-.1Zm0,.42a1,1,0,0,0,.12.5c.07-.18.24-.39.07-.56l-.19.06Zm.18.66h.12c0-.25.09-.48.12-.73-.19.19-.18.48-.24.72Zm-5.2-.64a1.83,1.83,0,0,0,0,1.11,2.32,2.32,0,0,0,.43.64,2.79,2.79,0,0,0,1.16.88,1.47,1.47,0,0,1-.25-.5,2.63,2.63,0,0,1-1-1.17,7.51,7.51,0,0,1,1,1.13.92.92,0,0,0-.06-.33,6,6,0,0,0-1.28-1.75ZM78.62,5c0,.25.11.5.14.76l.09-.06a1.09,1.09,0,0,0-.23-.7Zm4.12,1.86a.57.57,0,0,0,0,.31,8.19,8.19,0,0,1,1-1.14,2.64,2.64,0,0,1-1,1.17,1.4,1.4,0,0,1-.29.52,3.21,3.21,0,0,0,1.5-1.3,1.66,1.66,0,0,0,.15-1.36,6,6,0,0,0-1.32,1.8ZM78.36,5.19a1.92,1.92,0,0,0,.18.62l.17,0a2.07,2.07,0,0,0-.12-.65l-.23.05Zm.9-.05a1.45,1.45,0,0,0-.11.62l.15.06a2.64,2.64,0,0,0,.2-.62l-.24-.06Zm-2.68.53c.2,0,.35-.15.51-.25a.41.41,0,0,0-.51.25Zm1-.16-.13,0,.13.09a.32.32,0,0,1,0,.09c.09,0,.11-.11.18-.14l0,0a.58.58,0,0,1-.17-.18.42.42,0,0,0-.06.14Zm2.64-.14a.24.24,0,0,1-.16.19l.13.07s0,.12,0,.15a.21.21,0,0,0,.11-.17h.07V5.54c-.06-.06-.12-.11-.17-.17Zm.42.27c.06.2.28.4.15.62.08,0,.21-.08.22-.2s-.2-.35-.2-.55l0,0c.14.09.27.22.45.18a1.49,1.49,0,0,0-.13.49,1.51,1.51,0,0,0,.09.47,1.14,1.14,0,0,0,.08-.52c0-.15.11-.28.14-.43l-.21-.06a.51.51,0,0,0-.49-.21,1.94,1.94,0,0,0-.15.24Zm-3.75.43c0,.11.13.14.21.2L77,6.1a2.72,2.72,0,0,0,.19-.47,1.11,1.11,0,0,0-.09-.19c-.07.21-.27.39-.25.63Zm-.48-.4a3.06,3.06,0,0,0,.13.43.79.79,0,0,0,.08.5A1,1,0,0,0,76.68,6a2,2,0,0,1-.12-.42l-.17.07Zm1.13.15a.84.84,0,0,0,.08.27.46.46,0,0,0,.15-.29c-.07,0-.18-.06-.23,0Zm2.58,0c0,.1.06.19.1.29a.44.44,0,0,0,.12-.34l-.22,0Zm-1.54,0c.06.12.21.1.32.11l0,.16H79C79,6.07,79,6,79,6a.52.52,0,0,0,.32-.09,1.13,1.13,0,0,0-.75,0Zm1.31,0c0,.17.11.37.3.4a1.7,1.7,0,0,0-.09-.39Zm.49,0a1.55,1.55,0,0,0-.08.36l.15,0c.06-.11.11-.22.16-.33Zm-3.1,0c.07.15.12.36.31.38a1.59,1.59,0,0,0-.09-.39Zm.5,0a1.78,1.78,0,0,0-.07.39c.18,0,.25-.24.3-.4Zm.44.49a1.06,1.06,0,0,0,.39-.09,1.1,1.1,0,0,0,.2-.23.53.53,0,0,0-.59.32ZM79.07,6a.58.58,0,0,0,.59.34A.62.62,0,0,0,79.07,6ZM84,6.62c-.3.29-.6.58-.91.85-.1.08-.11.23-.15.34a7.36,7.36,0,0,1,1.26-.89A3.16,3.16,0,0,1,83,7.81a.81.81,0,0,0-.24.21,2.07,2.07,0,0,0,.83-.26,3.15,3.15,0,0,0,1-.71,1.31,1.31,0,0,0,.24-1,3,3,0,0,0-.8.56Zm-10.86.16a1.48,1.48,0,0,0,.52.59A3.33,3.33,0,0,0,75.07,8c-.08-.21-.31-.26-.49-.37a2.61,2.61,0,0,1-.92-.76,8.66,8.66,0,0,1,1.27.91.65.65,0,0,0-.21-.39,8.24,8.24,0,0,0-1.65-1.36,1.44,1.44,0,0,0,.06.71Zm3.07-.47.28,0a1.49,1.49,0,0,1,0-.21,1.54,1.54,0,0,0-.26.25Zm5.18-.23a1.21,1.21,0,0,0,0,.19l.27,0a.64.64,0,0,0-.26-.23Zm-3.93.15a.31.31,0,0,0,0,.1,1.26,1.26,0,0,0,.43,0,2.22,2.22,0,0,0-.44-.06Zm2.52,0a.86.86,0,0,0,.45,0,.44.44,0,0,1,0-.1,3,3,0,0,0-.43,0Zm-2.79.08a.59.59,0,0,0,.17.32c0-.1,0-.21,0-.31Zm.16,0a.67.67,0,0,0,.2.47c.06.06.15,0,.22,0l.22.1a1.82,1.82,0,0,1,.27-.15v0a1.28,1.28,0,0,0,.25.15,1,1,0,0,0,.29-.07,1.49,1.49,0,0,1-.36-.17l.13-.12-.08,0,.1-.12a3.18,3.18,0,0,1-1.23,0Zm.2.21a.36.36,0,0,1,.07.1l.17-.12-.24,0Zm1.77-.21a.37.37,0,0,1,0,.21.6.6,0,0,0,.08.08.93.93,0,0,1-.34.18.72.72,0,0,0,.25.07.66.66,0,0,0,.28-.16v.1l.1,0a.24.24,0,0,1,0,.08l.17.06c.11,0,.23-.16.33,0a.59.59,0,0,0,.31-.54,2.7,2.7,0,0,1-1.2,0Zm.78.2.16.12s0-.09,0-.12Zm.38.14a.46.46,0,0,0,.21-.33c-.19,0-.16.21-.21.33ZM76.78,6.5a.4.4,0,0,0,0,.34.13.13,0,0,0,.2,0h0V6.68l.1,0a.58.58,0,0,0,0,.14,1.73,1.73,0,0,1,.31.07,1.63,1.63,0,0,0,.19-.09,2.47,2.47,0,0,1-.46-.31c-.08-.11-.21,0-.31,0Zm4,0a2.83,2.83,0,0,1-.45.32l.19.1a1.41,1.41,0,0,0,.32-.17l-.1,0,.12,0c0,.07,0,.14,0,.21l.2,0a.5.5,0,0,0,.12-.24l-.06-.15c-.1,0-.22-.11-.3,0ZM82.28,7c-.31.29-.26.77-.48,1.11a1.78,1.78,0,0,0,.76-.68,1.13,1.13,0,0,0,.07-.63.82.82,0,0,0-.35.2Zm-7-.2a.92.92,0,0,0,.08.67,1.82,1.82,0,0,0,.72.63,4.15,4.15,0,0,1-.22-.68.9.9,0,0,0-.58-.62Zm3,0c.05.26.24.47.29.73a.68.68,0,0,0,0-.42.71.71,0,0,0-.31-.31Zm1.06.33a.67.67,0,0,0,0,.37,5.38,5.38,0,0,0,.28-.7.69.69,0,0,0-.3.33Zm-2.06-.1c0,.1,0,.21,0,.31a.59.59,0,0,1,.45-.31l-.17-.2a.61.61,0,0,0-.3.2ZM78.06,7l-.13,0a2.06,2.06,0,0,1,.42.46l0-.14-.26-.43a.75.75,0,0,0-.06.13Zm.4-.08a.56.56,0,0,0,.42.38.8.8,0,0,0-.23-.37Zm1.22,0c-.07.18-.22.32-.2.53A3.27,3.27,0,0,1,79.92,7h-.09l-.15-.07Zm0,.47c.13-.11.26-.22.4-.32a.69.69,0,0,1,.47.31.92.92,0,0,0,0-.29,1,1,0,0,0-.3-.21l-.08.06a.51.51,0,0,0-.53.45Zm-2.11-.46a3.1,3.1,0,0,0,.51.44A.86.86,0,0,0,78,7a1.69,1.69,0,0,0-.36-.12ZM79.12,7a.94.94,0,0,0-.15.3.6.6,0,0,0,.43-.39c-.09,0-.21,0-.28.09Zm-1.48.17c.07.08.21.12.25.23a2.64,2.64,0,0,0,.17.47,2.38,2.38,0,0,0,.06-.37c-.13-.15-.26-.37-.48-.33Zm2.07.34c0,.12.05.25.07.37A1.82,1.82,0,0,0,80,7.42c0-.14.17-.19.27-.27-.24-.05-.36.21-.51.34Zm-.86-.21c0,.07-.14.15-.11.25a1,1,0,0,0,.2.34,1.47,1.47,0,0,0,.19-.4.26.26,0,0,0-.28-.19Zm2.44.7c-.15.12-.37.23-.35.47s.24.51.24.8a.9.9,0,0,1-.84.09c0,.13-.12.25-.18.37l.2,0c0,.11,0,.22,0,.33a.77.77,0,0,0,.32-.22.59.59,0,0,0,.29.18,2.45,2.45,0,0,0,.08-.29.62.62,0,0,0,.43.22.72.72,0,0,0,0-.48,1.23,1.23,0,0,0,.43,0,.72.72,0,0,0-.21-.38.58.58,0,0,0,.38-.24c0-.17-.22-.16-.34-.19A.59.59,0,0,0,82,8.28a.91.91,0,0,0-.54.06A1.57,1.57,0,0,0,81.79,8a1.22,1.22,0,0,0,.15-.77,2.39,2.39,0,0,1-.65.73Zm-5.37-.74a1.51,1.51,0,0,0,.07.67,1.61,1.61,0,0,0,.35.43.88.88,0,0,0-.53-.05.79.79,0,0,0,.27.43.79.79,0,0,0-.37.14.62.62,0,0,0,.43.29.49.49,0,0,0-.2.39h.42l-.07.12a.67.67,0,0,0,0,.2l.06.14a.73.73,0,0,0,.41-.23c0,.1,0,.27.14.29a.92.92,0,0,0,.22-.18.64.64,0,0,0,.34.21c0-.11,0-.22,0-.34l.22,0c-.07-.13-.14-.25-.2-.38a1,1,0,0,1-.65,0c-.07,0-.17-.08-.17-.18a3.49,3.49,0,0,1,.23-.69.39.39,0,0,0-.19-.39,2.36,2.36,0,0,1-.8-.86Zm2.34.94a1.23,1.23,0,0,0,.21-.39.83.83,0,0,0-.1-.34.71.71,0,0,0-.11.73Zm-5.71-.65a1.66,1.66,0,0,0,.85.67c.59.22,1.23.28,1.82.51a.9.9,0,0,1-.21-.3A4.15,4.15,0,0,1,73.78,8a4.74,4.74,0,0,1,1.16.31c.11.06.23,0,.34-.06-.4-.18-.81-.32-1.22-.46a4.14,4.14,0,0,0-1.51-.26Zm6.51.52c.11.1.17.24.29.32s0,.14,0,.21a1.39,1.39,0,0,0-.21-.27,1.64,1.64,0,0,0,0,.23c0,.1.14.19.1.31s-.06.13,0,.14a.65.65,0,0,0,.21-.3c0,.13.12.26.18.39a1.06,1.06,0,0,0,.11-.21,1.77,1.77,0,0,1-.24-.61c.12.17.14.4.29.56s.25.31.44.25a.38.38,0,0,0,.17-.57c-.08.1-.16.27-.32.21a1,1,0,0,1-.51-.53l-.17.06a1.46,1.46,0,0,0-.15-.76.76.76,0,0,0-.17.57Zm.32-.27a1,1,0,0,0,.21.39.79.79,0,0,0-.09-.73.61.61,0,0,0-.12.34Zm4.61,0c-.48.15-1,.32-1.43.52a1.29,1.29,0,0,0,.28.08A5.15,5.15,0,0,1,84.08,8a4,4,0,0,1-1.2.4,3.4,3.4,0,0,0-.23.3c.59-.22,1.22-.29,1.82-.51a1.59,1.59,0,0,0,.82-.67,3.85,3.85,0,0,0-1.3.21Zm-5.45.64A3.47,3.47,0,0,0,78.8,8a1.07,1.07,0,0,0-.17-.54c-.09.29-.29.62-.09.91ZM74.91,7.6c.11.26.24.57.52.67A.81.81,0,0,0,76,8.2a2.42,2.42,0,0,0-1.07-.6Zm7,.6a.75.75,0,0,0,.55.06,1.07,1.07,0,0,0,.51-.66,2.29,2.29,0,0,0-1.06.6Zm-3.1.06c0,.11.08.19.14.27.08-.08.18-.18.16-.31A2.07,2.07,0,0,0,78.93,8c-.06.09-.16.17-.15.29ZM77.7,8.4v.06a.29.29,0,0,0,.33,0A.47.47,0,0,0,78.16,8a.63.63,0,0,1-.46.39Zm2-.4a.72.72,0,0,0,.1.5c.11,0,.36.08.35-.1a.69.69,0,0,1-.45-.4Zm-2,.73c-.12,0-.17-.13-.23-.22h-.06c0,.16-.05.35.08.46a.27.27,0,0,0,.37,0,1.33,1.33,0,0,0,.46-.85c-.19.2-.33.5-.62.55Zm.38.14c.06,0,.09.24.17.15a.86.86,0,0,0,.13-.83,1.73,1.73,0,0,1-.3.68Zm-3-.54c0,.18.12.31.27.36a.85.85,0,0,0,.61,0,1.65,1.65,0,0,1-.18-.32,4.05,4.05,0,0,0-.7,0Zm3.38.4c0,.18.16.27.26.38a.52.52,0,0,1,0-.54,2,2,0,0,0,0-.26c-.09.13-.24.24-.24.42Zm3.61-.36a1.5,1.5,0,0,1-.19.32.71.71,0,0,0,.93-.3c-.23-.14-.49,0-.74,0Zm-9.5.11a2.75,2.75,0,0,0,.86.42A4.44,4.44,0,0,0,74.79,9c.08,0,.09-.09.14-.13a4.56,4.56,0,0,1-1.16-.15,2.42,2.42,0,0,1,.89,0c.15,0,.31.1.47,0a2.8,2.8,0,0,0-.69-.23,4.91,4.91,0,0,0-1.87-.06Zm10.15.27a.25.25,0,0,0,.21,0,3,3,0,0,1,1.16-.08,4.56,4.56,0,0,1-1.16.15.16.16,0,0,0,.19.13,7.09,7.09,0,0,0,1,0,3,3,0,0,0,1.14-.49,5,5,0,0,0-2.57.27Zm-3.89-.21c-.07.11-.16.25-.09.39s.14.26.26.17a.41.41,0,0,0,0-.57l-.09.05-.1,0Zm-4,.49a.93.93,0,0,0,.94.07s0-.08,0-.1a.55.55,0,0,0-.91,0Zm7.33-.2c0,.09-.11.17-.16.25l.29.1a2,2,0,0,0-.49,0,.83.83,0,0,0,.35.39.69.69,0,0,0,.61,0,1.17,1.17,0,0,0-.15-.27.92.92,0,0,0-.32-.14A1,1,0,0,0,83,9a.94.94,0,0,0-.28-.21.92.92,0,0,0-.52,0Zm-3.77.08a.89.89,0,0,0-.18.38c0,.17.14.28.23.41a2.15,2.15,0,0,0,.19-.37.43.43,0,0,0-.24-.42Zm-.55.23a1.08,1.08,0,0,0,.13.58.78.78,0,0,0,.2-.43.74.74,0,0,0-.12-.36,2.08,2.08,0,0,0-.21.21Zm1.34,0a.82.82,0,0,0,0,.27,1.75,1.75,0,0,1,.18.29,1.12,1.12,0,0,0,.24-.37,1,1,0,0,0-.19-.43,1,1,0,0,0-.22.24Zm.62.59a1,1,0,0,0,.15-.6l-.19-.2a.61.61,0,0,0,0,.8Zm-7-.22a3.31,3.31,0,0,0,.89.07,7.68,7.68,0,0,0,1.43-.19l.14-.16a.92.92,0,0,0-.33,0,2.7,2.7,0,0,1-1,.09,2.44,2.44,0,0,1,.52-.12A1.93,1.93,0,0,0,75,9.11a3.14,3.14,0,0,0-.81,0,2.25,2.25,0,0,0-1.35.4Zm10.1-.37a4.27,4.27,0,0,1,1,.17,2.9,2.9,0,0,1-1-.08.73.73,0,0,0-.36,0c.16.21.44.2.68.25a4.32,4.32,0,0,0,1.79,0,2.85,2.85,0,0,0-.89-.35c-.29,0-.57,0-.86-.05-.13,0-.3-.07-.4.05Zm-5.4,0c.06.17.07.38.23.48s0,.09.1.13l-.12,0-.17,0a3.4,3.4,0,0,1-.07.34l-.2-.06c.19.23.17.55.31.8.08-.2.17-.39.26-.59a.5.5,0,0,0,0-.5H78a.85.85,0,0,0-.19-.3c0-.11,0-.22,0-.32a1,1,0,0,1-.34-.05Zm-2.07.1a.64.64,0,0,0-.37.4.73.73,0,0,0,.71-.09A1.31,1.31,0,0,0,76,9.21a1.3,1.3,0,0,0-.59,0Zm3.28.09c0,.18.13.31.21.45.1-.14.25-.29.21-.48l-.22-.12a1.49,1.49,0,0,0-.2.15ZM80,9.16v.31l.13.14a2.34,2.34,0,0,0,.19-.46Zm-5.74.45a1.44,1.44,0,0,0-1.05.77,1.76,1.76,0,0,0,1-.18,9.44,9.44,0,0,1,1-.45l-.18-.08a2.64,2.64,0,0,1-.94.26,5.29,5.29,0,0,1,1-.43,5.63,5.63,0,0,0-.81.11ZM79,9.85a1,1,0,0,0,.13.5.6.6,0,0,0,.22-.32.67.67,0,0,0-.14-.51,1.55,1.55,0,0,0-.21.33Zm.65-.33a1.4,1.4,0,0,0-.22.32.89.89,0,0,0,.16.49,1.15,1.15,0,0,0,.3-.48,4,4,0,0,0-.24-.33Zm3.13,0a5.22,5.22,0,0,1,1,.43,2.59,2.59,0,0,1-.93-.26l-.23.07a8,8,0,0,1,1,.42,1.85,1.85,0,0,0,1,.22,1.37,1.37,0,0,0-.84-.72,5.74,5.74,0,0,0-1-.16Zm-7.32.3c.07.06.13.16.23.16a.63.63,0,0,0,.61-.37,1.39,1.39,0,0,1-.41,0,2.61,2.61,0,0,0-.43.24Zm2.57,0a1.14,1.14,0,0,0,.28.49,1.25,1.25,0,0,0,.17-.39c0-.18-.14-.3-.23-.43L78,9.84Zm.52.05a.62.62,0,0,0,.22.47.91.91,0,0,0,.14-.42.59.59,0,0,0-.2-.39c-.12.06-.14.22-.16.34Zm1.35-.08.27-.16L80,9.51a1.14,1.14,0,0,0-.13.3Zm1.69-.22a.72.72,0,0,0,.7.37l.16-.16A4.77,4.77,0,0,0,82,9.55a1.05,1.05,0,0,1-.43,0Zm-1.46.13L80,9.84c-.08.37.2.65.3,1l.08,0a2.06,2.06,0,0,1,.23-.7l-.19,0-.06-.31-.21-.09Zm-5.59.4a1.39,1.39,0,0,0-.72.88,1.14,1.14,0,0,0,.67-.19,7.8,7.8,0,0,0,.69-.6,1.14,1.14,0,0,0,.33-.36,4.53,4.53,0,0,1-1,.6,1.37,1.37,0,0,1,.38-.38,5.18,5.18,0,0,0,.57-.31,6.73,6.73,0,0,0-.94.36Zm7.88-.36c.18.14.4.2.58.32a1.38,1.38,0,0,1,.39.37,2.38,2.38,0,0,1-.66-.37.82.82,0,0,0-.35-.2c.3.29.61.57.92.85a1.15,1.15,0,0,0,.79.27,1.41,1.41,0,0,0-.72-.88,6.4,6.4,0,0,0-1-.36Zm-6.62.35v.19a.56.56,0,0,0,.53-.25c0-.09-.06-.17-.08-.25a.92.92,0,0,0-.46.31Zm5.84-.31c0,.11-.12.24,0,.33a.51.51,0,0,0,.48.17A.77.77,0,0,0,82,10a.89.89,0,0,0-.41-.24Zm-5.28.27a1,1,0,0,0-.31.46c.32,0,.74-.23.66-.6a3.65,3.65,0,0,0-.35.14Zm4.85-.14a2.18,2.18,0,0,0,0,.25.71.71,0,0,0,.65.35,1.07,1.07,0,0,0-.34-.5l-.3-.1ZM75.53,10a2.14,2.14,0,0,0-1,1.44.86.86,0,0,0,.41-.13c.28-.16.41-.48.63-.72s.26-.22.21-.4a3.47,3.47,0,0,1-.79.64,1.35,1.35,0,0,1,.28-.35c.18-.17.43-.25.59-.44l-.28,0Zm1.54-.06a1.23,1.23,0,0,0,.15.94.49.49,0,0,0,.35.2c0-.16-.11-.32-.15-.49s-.12-.52-.35-.65Zm3.64,0a4.26,4.26,0,0,0-.43,1.11l.2,0a1,1,0,0,0,.31-1l-.08-.06Zm-3.89.92a.69.69,0,0,0,.17-.74s-.09,0-.14,0L76.78,10a.68.68,0,0,0,0,.85ZM82.05,10a1.5,1.5,0,0,0,.43.33,1.67,1.67,0,0,1,.38.37s0,.07,0,.09a3.69,3.69,0,0,1-.75-.62c0,.07,0,.15,0,.2a6.34,6.34,0,0,1,.51.65.89.89,0,0,0,.7.39,1.85,1.85,0,0,0-.16-.52,3.12,3.12,0,0,0-.89-.92l-.28,0Zm-1.19.08a1.41,1.41,0,0,0,0,.5,1.48,1.48,0,0,0,.16.27.93.93,0,0,0,.19-.37.78.78,0,0,0-.09-.45l-.25,0Zm-2.94.54.15.22a.75.75,0,0,0,.15-.31.68.68,0,0,0-.19-.44.81.81,0,0,0-.11.53Zm.36-.1a.6.6,0,0,0,.22.38c.07-.14.19-.3.15-.47a2.48,2.48,0,0,0-.17-.32c-.08.13-.21.25-.2.41Zm.91,0a.82.82,0,0,0,.17.42c.08-.11.21-.22.21-.37s-.12-.28-.2-.41a.82.82,0,0,0-.18.36Zm.44.05c0,.07.07.14.05.22H79.6a.39.39,0,0,0,0,.55l.09.07a.78.78,0,0,0,.07-.52.57.57,0,0,0,.19-.29.86.86,0,0,0-.12-.46c-.09.13-.22.27-.19.44Zm-.71-.33a2.11,2.11,0,0,0-.18.33c0,.16.11.29.19.41a1.92,1.92,0,0,0,.18-.31c0-.17-.11-.3-.19-.43Zm-3.12.18a1.94,1.94,0,0,0-.63,1.28,1.2,1.2,0,0,0,.55-.33c.19-.23.29-.53.48-.77H76a2.16,2.16,0,0,1-.53.67c.06-.39.39-.62.59-.92-.09,0-.19,0-.25.07Zm6-.06c.23.28.55.53.6.91a2.89,2.89,0,0,1-.54-.66l-.17,0,.37.65a1.09,1.09,0,0,0,.64.47A1.9,1.9,0,0,0,82,10.35Zm-5.31.2a2.09,2.09,0,0,1-.23.82,3.24,3.24,0,0,1,.15-.87,1.69,1.69,0,0,0-.38.71,1.09,1.09,0,0,0,0,.62.75.75,0,0,0,.48-.57,4.56,4.56,0,0,0,.08-.9c0,.06-.12.1-.12.19Zm4.78-.17a3.91,3.91,0,0,0,.13,1,.86.86,0,0,0,.42.44,1,1,0,0,0,0-.73,1.54,1.54,0,0,0-.36-.62,3.89,3.89,0,0,1,.17.89,2,2,0,0,1-.24-.82.2.2,0,0,0-.13-.18Zm-4.59.33a1.7,1.7,0,0,0,.14,1.16,3,3,0,0,0,.2-1.11l-.12.11a1.29,1.29,0,0,1-.08.55,1,1,0,0,1,0-.49c0-.09-.06-.15-.1-.22Zm4.42.12a1.17,1.17,0,0,1,0,.59c-.1-.22,0-.51-.17-.67a2.58,2.58,0,0,0,.2,1.13,1.87,1.87,0,0,0,.14-1.19l-.12.14Zm-4,0a2.32,2.32,0,0,0,.24.91l.12,0a1.61,1.61,0,0,0,0-.62L77.29,11a1.45,1.45,0,0,1,0,.36,1.22,1.22,0,0,1-.13-.46l-.05-.11-.07,0Zm1,.23c0,.14.06.27.1.39a.86.86,0,0,0,.2-.39,1.72,1.72,0,0,0-.11-.29c-.08.09-.18.17-.19.29Zm.57-.24a1,1,0,0,0-.21.38,1.26,1.26,0,0,0,.15.45.87.87,0,0,0,.24-.49c0-.13,0-.29-.18-.34Zm1.89.63a2.29,2.29,0,0,1,0-.37l-.12.07a1.22,1.22,0,0,0,0,.68,1.59,1.59,0,0,0,.3-1.06c-.13.21-.12.47-.23.68ZM79,11.11a.85.85,0,0,0,.22.49.86.86,0,0,0,.15-.49,2.31,2.31,0,0,0-.18-.35.34.34,0,0,0-.19.35Zm-.29.51a1.7,1.7,0,0,0,.18.62,1.73,1.73,0,0,0,.2-.62.93.93,0,0,0-.2-.44.94.94,0,0,0-.18.44Zm-.4-.35-.19.26c-.05.13.06.23.13.33.08-.07.2-.16.19-.29a1.94,1.94,0,0,0-.13-.3Zm1.06.4a.85.85,0,0,0,.14.19s.11-.1.16-.16a.59.59,0,0,1,0-.13c-.07-.11-.15-.21-.22-.31,0,.13-.14.26-.1.41ZM77.57,12a1.21,1.21,0,0,0,.55-.19,2,2,0,0,0,0-.24,2,2,0,0,0-.52.43Zm2.21-.42c0,.08,0,.15-.07.22a1.46,1.46,0,0,0,.55.21,1.51,1.51,0,0,0-.48-.43Zm-1.38.3c-.13.11-.34.14-.4.33.09,0,.2.14.31.07a.75.75,0,0,0,.36-.66,3.31,3.31,0,0,1-.27.26Zm.78-.27c0,.28.15.64.46.7l.22-.11a.51.51,0,0,0-.24-.22,1.21,1.21,0,0,1-.44-.37Zm-3.72.19a.84.84,0,0,0,0,.17.82.82,0,0,0,.37.43c.1.07.26.11.32,0a.3.3,0,0,0-.08-.27.64.64,0,0,0-.56-.31Zm6.27.49.06.17c.27,0,.45-.21.63-.38,0-.11,0-.3-.12-.29a.84.84,0,0,0-.57.5Zm-4-.08H78l.12-.21.21-.09-.11-.08a1.05,1.05,0,0,0-.47.37Zm1.88-.3a.53.53,0,0,1,.33.31h.22a.67.67,0,0,0-.06-.12c-.15-.09-.32-.35-.49-.18Zm-.92.45a.77.77,0,0,1,.09.47l-.21.18h.19l.19-.16a1.33,1.33,0,0,0,.19.14,1.31,1.31,0,0,0,.28.45,1.71,1.71,0,0,0,.56.44.43.43,0,0,0,.1-.09,2.15,2.15,0,0,1-.81-.83c-.07-.07-.16-.14-.16-.25s.15-.36.16-.56a.58.58,0,0,0-.09-.29,3.69,3.69,0,0,1-.23.58,5.77,5.77,0,0,1-.22-.58.5.5,0,0,0,0,.5ZM75.36,12c0,.37-.26.69-.21,1.07s.31.63.48.93h.5c-.07-.19-.34-.07-.46-.2a.62.62,0,0,1-.07-.44.46.46,0,0,1,.65-.29.65.65,0,0,1,.27.46,1.8,1.8,0,0,0,.08-.21.53.53,0,0,0-.19-.31.58.58,0,0,0-.88.16.73.73,0,0,1,.42-.6,1,1,0,0,1-.59-.56ZM77,12.3l.23.09a1.29,1.29,0,0,0,.54-.39,1.15,1.15,0,0,0-.77.3Zm3-.3a1.05,1.05,0,0,0,.5.38l.25-.07c-.17-.24-.49-.26-.75-.31Zm1.81.51a.71.71,0,0,1,.45.56.63.63,0,0,0-.53-.25.6.6,0,0,0-.56.46c-.12-.22-.22-.44-.35-.64s-.17-.06-.26-.09v.17c-.1-.06-.28-.13-.3,0a1.57,1.57,0,0,1,1,1.23l.19,0-.12.08,0,.06c-.14.21.17.34.34.31a.73.73,0,0,0-.26-.29c.11,0,.23-.05.26-.19l-.19,0c.19-.13.43-.12.63-.22-.09-.07-.17-.16-.29-.15s-.24.09-.36.14a.16.16,0,0,1-.17-.2A.53.53,0,0,1,81.7,13a.47.47,0,0,1,.57.48.53.53,0,0,1-.15.33l-.4.07s0,.08.06.1a1.24,1.24,0,0,0,.43,0c.16-.3.45-.53.48-.89s-.18-.71-.2-1.08a1,1,0,0,1-.62.52Zm-4-.27a.86.86,0,0,0-.26.34l.06.18a.29.29,0,0,0,.35-.08l-.25-.06a.33.33,0,0,1,.3-.32v-.05Zm1.85,0a2.21,2.21,0,0,1,.27.12c.06.06.06.15.1.22l-.24.05.06.1c.1,0,.24.06.3-.06a.44.44,0,0,0-.24-.45.53.53,0,0,0-.25,0Zm.34,0,.22.28.24-.11a.86.86,0,0,0-.46-.17Zm-2.71.17.21.11.23-.28a.69.69,0,0,0-.44.17Zm.81.24a1,1,0,0,0-.31.33c.33,0,.46-.33.68-.51a.71.71,0,0,1-.16.34c-.15.17-.4.24-.43.49a.9.9,0,0,0,.7-.68c0-.14-.06-.26-.09-.38-.14.12-.23.31-.39.41Zm1.13-.41a1,1,0,0,0-.09.33.91.91,0,0,0,.72.73c-.09-.36-.6-.42-.58-.83.2.19.34.52.66.5a1,1,0,0,0-.33-.33c-.16-.1-.22-.3-.38-.4Zm-2.35.29c.12,0,.32-.06.38.1h.16a.78.78,0,0,1,.1.15.53.53,0,0,0,0-.12c-.13-.2-.4-.22-.6-.29a1.11,1.11,0,0,0-.07.16Zm3.47,0c-.09,0-.23.11-.18.26a.34.34,0,0,1,.3-.15l0-.08h.34c0-.06,0-.16-.13-.14a1.53,1.53,0,0,0-.38.12ZM77,12.58a4.47,4.47,0,0,0-.5.91,2.53,2.53,0,0,1-.13.22c-.17-.05-.32-.21-.52-.15s-.22.07-.12.16.37.1.54.2l-.18,0c0,.14.16.16.26.2a.41.41,0,0,0-.23.29c.15,0,.43-.1.32-.31l0-.06L76.39,14h.18a2,2,0,0,1,.53-1,1.38,1.38,0,0,1,.46-.25.23.23,0,0,0-.32,0v-.15l-.21,0Zm1.1,1.28a1.74,1.74,0,0,0,.55-.26.54.54,0,0,0,.48,0,1.83,1.83,0,0,0,.53.25,2.53,2.53,0,0,0-.36-.37,2.71,2.71,0,0,1-.41-.55,3.68,3.68,0,0,1-.79.93Zm.4-.77a2.2,2.2,0,0,1-.7.66.59.59,0,0,0,0,.14,2.25,2.25,0,0,0,.9-.86c-.08,0-.18,0-.22.06Zm-1.37,0v.45l.15-.08c.28.38.54.78.82,1.16a1.54,1.54,0,0,0,.08-.19c-.25-.37-.51-.72-.75-1.09l.12-.09-.42-.16Zm3.11.16.12.1L79.23,15l-.6-1.1-.6.92-.14-.07c0,.15,0,.3,0,.45l.42-.16-.12-.11c.12-.24.3-.44.43-.68.21.36.4.72.6,1.08.46-.62.88-1.26,1.33-1.89l.14.1c0-.16,0-.31,0-.47l-.42.17Zm-1.55.45a1.77,1.77,0,0,0,.17.24c.13,0,.16-.18.24-.24a2.8,2.8,0,0,1-.41,0Zm-2.19.37s0,.09,0,.13a3.14,3.14,0,0,0,1.09-.2l-.1-.11a4.86,4.86,0,0,1-1,.18Zm3.75-.19,0,.13a2.94,2.94,0,0,0,1,.18.6.6,0,0,0,.06-.11,5.36,5.36,0,0,1-1.06-.2ZM79,14.33a.16.16,0,0,0,.07.23c.06-.09.1-.18.16-.27s.15.2.23.3c0-.05.1-.09.1-.16s-.22-.35-.33-.52c-.08.14-.16.28-.23.42Zm-3.38-.28a1.36,1.36,0,0,0,.09.23c.15-.07.37-.1.41-.3a1,1,0,0,0-.5.07ZM81.73,14a.56.56,0,0,0,.44.28,1.66,1.66,0,0,0,.06-.21,1.05,1.05,0,0,0-.5-.07Zm-5.88.4h.28l.15-.3c-.18,0-.44.07-.43.29Zm5.71-.28a1.44,1.44,0,0,0,.23.32c.08,0,.24,0,.2-.15a.45.45,0,0,0-.43-.17Zm-3.28.73c.11.17.23.33.34.49a3.26,3.26,0,0,0,.24-.4c0-.08,0-.17,0-.24a3.21,3.21,0,0,0-.19.31l-.22-.3-.12.14Zm1.38.12-.12.08.43.17v-.45l-.15.08-.09-.15A.24.24,0,0,0,79.66,15Z"/><path class="cls-3" d="M72.06,17V3H85.78V17ZM78.85,4.66v.12h-.1v.07a.15.15,0,0,1,.09.14H79a.14.14,0,0,1,.12-.15L79,4.77v-.1Zm0,.42a1,1,0,0,0,.12.5c.07-.18.24-.39.07-.56l-.19.06Zm.18.66h.12c0-.25.09-.48.12-.73-.19.19-.18.48-.24.72Zm-5.2-.64a1.83,1.83,0,0,0,0,1.11,2.32,2.32,0,0,0,.43.64,2.79,2.79,0,0,0,1.16.88,1.47,1.47,0,0,1-.25-.5,2.63,2.63,0,0,1-1-1.17,7.51,7.51,0,0,1,1,1.13.92.92,0,0,0-.06-.33,6,6,0,0,0-1.28-1.75ZM78.62,5c0,.25.11.5.14.76l.09-.06a1.09,1.09,0,0,0-.23-.7Zm4.12,1.86a.57.57,0,0,0,0,.31,8.19,8.19,0,0,1,1-1.14,2.64,2.64,0,0,1-1,1.17,1.4,1.4,0,0,1-.29.52,3.21,3.21,0,0,0,1.5-1.3,1.66,1.66,0,0,0,.15-1.36,6,6,0,0,0-1.32,1.8ZM78.36,5.19a1.92,1.92,0,0,0,.18.62l.17,0a2.07,2.07,0,0,0-.12-.65l-.23.05Zm.9-.05a1.45,1.45,0,0,0-.11.62l.15.06a2.64,2.64,0,0,0,.2-.62l-.24-.06Zm-2.68.53c.2,0,.35-.15.51-.25a.41.41,0,0,0-.51.25Zm1-.16-.13,0,.13.09a.32.32,0,0,1,0,.09c.09,0,.11-.11.18-.14l0,0a.58.58,0,0,1-.17-.18.42.42,0,0,0-.06.14Zm2.64-.14a.24.24,0,0,1-.16.19l.13.07s0,.12,0,.15a.21.21,0,0,0,.11-.17h.07V5.54c-.06-.06-.12-.11-.17-.17Zm.42.27c.06.2.28.4.15.62.08,0,.21-.08.22-.2s-.2-.35-.2-.55l0,0c.14.09.27.22.45.18a1.49,1.49,0,0,0-.13.49,1.51,1.51,0,0,0,.09.47,1.14,1.14,0,0,0,.08-.52c0-.15.11-.28.14-.43l-.21-.06a.51.51,0,0,0-.49-.21,1.94,1.94,0,0,0-.15.24Zm-3.75.43c0,.11.13.14.21.2L77,6.1a2.72,2.72,0,0,0,.19-.47,1.11,1.11,0,0,0-.09-.19c-.07.21-.27.39-.25.63Zm-.48-.4a3.06,3.06,0,0,0,.13.43.79.79,0,0,0,.08.5A1,1,0,0,0,76.68,6a2,2,0,0,1-.12-.42l-.17.07Zm1.13.15a.84.84,0,0,0,.08.27.46.46,0,0,0,.15-.29c-.07,0-.18-.06-.23,0Zm2.58,0c0,.1.06.19.1.29a.44.44,0,0,0,.12-.34l-.22,0Zm-1.54,0c.06.12.21.1.32.11l0,.16H79C79,6.07,79,6,79,6a.52.52,0,0,0,.32-.09,1.13,1.13,0,0,0-.75,0Zm1.31,0c0,.17.11.37.3.4a1.7,1.7,0,0,0-.09-.39Zm.49,0a1.55,1.55,0,0,0-.08.36l.15,0c.06-.11.11-.22.16-.33Zm-3.1,0c.07.15.12.36.31.38a1.59,1.59,0,0,0-.09-.39Zm.5,0a1.78,1.78,0,0,0-.07.39c.18,0,.25-.24.3-.4Zm.44.49a1.06,1.06,0,0,0,.39-.09,1.1,1.1,0,0,0,.2-.23.53.53,0,0,0-.59.32ZM79.07,6a.58.58,0,0,0,.59.34A.62.62,0,0,0,79.07,6ZM84,6.62c-.3.29-.6.58-.91.85-.1.08-.11.23-.15.34a7.36,7.36,0,0,1,1.26-.89A3.16,3.16,0,0,1,83,7.81a.81.81,0,0,0-.24.21,2.07,2.07,0,0,0,.83-.26,3.15,3.15,0,0,0,1-.71,1.31,1.31,0,0,0,.24-1,3,3,0,0,0-.8.56Zm-10.86.16a1.48,1.48,0,0,0,.52.59A3.33,3.33,0,0,0,75.07,8c-.08-.21-.31-.26-.49-.37a2.61,2.61,0,0,1-.92-.76,8.66,8.66,0,0,1,1.27.91.65.65,0,0,0-.21-.39,8.24,8.24,0,0,0-1.65-1.36,1.44,1.44,0,0,0,.06.71Zm3.07-.47.28,0a1.49,1.49,0,0,1,0-.21,1.54,1.54,0,0,0-.26.25Zm5.18-.23a1.21,1.21,0,0,0,0,.19l.27,0a.64.64,0,0,0-.26-.23Zm-3.93.15a.31.31,0,0,0,0,.1,1.26,1.26,0,0,0,.43,0,2.22,2.22,0,0,0-.44-.06Zm2.52,0a.86.86,0,0,0,.45,0,.44.44,0,0,1,0-.1,3,3,0,0,0-.43,0Zm-2.79.08a.59.59,0,0,0,.17.32c0-.1,0-.21,0-.31Zm.16,0a.67.67,0,0,0,.2.47c.06.06.15,0,.22,0l.22.1a1.82,1.82,0,0,1,.27-.15v0a1.28,1.28,0,0,0,.25.15,1,1,0,0,0,.29-.07,1.49,1.49,0,0,1-.36-.17l.13-.12-.08,0,.1-.12a3.18,3.18,0,0,1-1.23,0Zm2,0a.37.37,0,0,1,0,.21.6.6,0,0,0,.08.08.93.93,0,0,1-.34.18.72.72,0,0,0,.25.07.66.66,0,0,0,.28-.16v.1l.1,0a.24.24,0,0,1,0,.08l.17.06c.11,0,.23-.16.33,0a.59.59,0,0,0,.31-.54,2.7,2.7,0,0,1-1.2,0Zm1.16.34a.46.46,0,0,0,.21-.33c-.19,0-.16.21-.21.33ZM76.78,6.5a.4.4,0,0,0,0,.34.13.13,0,0,0,.2,0h0V6.68l.1,0a.58.58,0,0,0,0,.14,1.73,1.73,0,0,1,.31.07,1.63,1.63,0,0,0,.19-.09,2.47,2.47,0,0,1-.46-.31c-.08-.11-.21,0-.31,0Zm4,0a2.83,2.83,0,0,1-.45.32l.19.1a1.41,1.41,0,0,0,.32-.17l-.1,0,.12,0c0,.07,0,.14,0,.21l.2,0a.5.5,0,0,0,.12-.24l-.06-.15c-.1,0-.22-.11-.3,0ZM82.28,7c-.31.29-.26.77-.48,1.11a1.78,1.78,0,0,0,.76-.68,1.13,1.13,0,0,0,.07-.63.82.82,0,0,0-.35.2Zm-7-.2a.92.92,0,0,0,.08.67,1.82,1.82,0,0,0,.72.63,4.15,4.15,0,0,1-.22-.68.9.9,0,0,0-.58-.62Zm3,0c.05.26.24.47.29.73a.68.68,0,0,0,0-.42.71.71,0,0,0-.31-.31Zm1.06.33a.67.67,0,0,0,0,.37,5.38,5.38,0,0,0,.28-.7.69.69,0,0,0-.3.33Zm-2.06-.1c0,.1,0,.21,0,.31a.59.59,0,0,1,.45-.31l-.17-.2a.61.61,0,0,0-.3.2ZM78.06,7l-.13,0a2.06,2.06,0,0,1,.42.46l0-.14-.26-.43a.75.75,0,0,0-.06.13Zm.4-.08a.56.56,0,0,0,.42.38.8.8,0,0,0-.23-.37Zm1.22,0c-.07.18-.22.32-.2.53A3.27,3.27,0,0,1,79.92,7h-.09l-.15-.07Zm0,.47c.13-.11.26-.22.4-.32a.69.69,0,0,1,.47.31.92.92,0,0,0,0-.29,1,1,0,0,0-.3-.21l-.08.06a.51.51,0,0,0-.53.45Zm-2.11-.46a3.1,3.1,0,0,0,.51.44A.86.86,0,0,0,78,7a1.69,1.69,0,0,0-.36-.12ZM79.12,7a.94.94,0,0,0-.15.3.6.6,0,0,0,.43-.39c-.09,0-.21,0-.28.09Zm-1.48.17c.07.08.21.12.25.23a2.64,2.64,0,0,0,.17.47,2.38,2.38,0,0,0,.06-.37c-.13-.15-.26-.37-.48-.33Zm2.07.34c0,.12.05.25.07.37A1.82,1.82,0,0,0,80,7.42c0-.14.17-.19.27-.27-.24-.05-.36.21-.51.34Zm-.86-.21c0,.07-.14.15-.11.25a1,1,0,0,0,.2.34,1.47,1.47,0,0,0,.19-.4.26.26,0,0,0-.28-.19Zm2.44.7c-.15.12-.37.23-.35.47s.24.51.24.8a.9.9,0,0,1-.84.09c0,.13-.12.25-.18.37l.2,0c0,.11,0,.22,0,.33a.77.77,0,0,0,.32-.22.59.59,0,0,0,.29.18,2.45,2.45,0,0,0,.08-.29.62.62,0,0,0,.43.22.72.72,0,0,0,0-.48,1.23,1.23,0,0,0,.43,0,.72.72,0,0,0-.21-.38.58.58,0,0,0,.38-.24c0-.17-.22-.16-.34-.19A.59.59,0,0,0,82,8.28a.91.91,0,0,0-.54.06A1.57,1.57,0,0,0,81.79,8a1.22,1.22,0,0,0,.15-.77,2.39,2.39,0,0,1-.65.73Zm-5.37-.74a1.51,1.51,0,0,0,.07.67,1.61,1.61,0,0,0,.35.43.88.88,0,0,0-.53-.05.79.79,0,0,0,.27.43.79.79,0,0,0-.37.14.62.62,0,0,0,.43.29.49.49,0,0,0-.2.39h.42l-.07.12a.67.67,0,0,0,0,.2l.06.14a.73.73,0,0,0,.41-.23c0,.1,0,.27.14.29a.92.92,0,0,0,.22-.18.64.64,0,0,0,.34.21c0-.11,0-.22,0-.34l.22,0c-.07-.13-.14-.25-.2-.38a1,1,0,0,1-.65,0c-.07,0-.17-.08-.17-.18a3.49,3.49,0,0,1,.23-.69.39.39,0,0,0-.19-.39,2.36,2.36,0,0,1-.8-.86Zm2.34.94a1.23,1.23,0,0,0,.21-.39.83.83,0,0,0-.1-.34.71.71,0,0,0-.11.73Zm-5.71-.65a1.66,1.66,0,0,0,.85.67c.59.22,1.23.28,1.82.51a.9.9,0,0,1-.21-.3A4.15,4.15,0,0,1,73.78,8a4.74,4.74,0,0,1,1.16.31c.11.06.23,0,.34-.06-.4-.18-.81-.32-1.22-.46a4.14,4.14,0,0,0-1.51-.26Zm6.51.52c.11.1.17.24.29.32s0,.14,0,.21a1.39,1.39,0,0,0-.21-.27,1.64,1.64,0,0,0,0,.23c0,.1.14.19.1.31s-.06.13,0,.14a.65.65,0,0,0,.21-.3c0,.13.12.26.18.39a1.06,1.06,0,0,0,.11-.21,1.77,1.77,0,0,1-.24-.61c.12.17.14.4.29.56s.25.31.44.25a.38.38,0,0,0,.17-.57c-.08.1-.16.27-.32.21a1,1,0,0,1-.51-.53l-.17.06a1.46,1.46,0,0,0-.15-.76.76.76,0,0,0-.17.57Zm.32-.27a1,1,0,0,0,.21.39.79.79,0,0,0-.09-.73.61.61,0,0,0-.12.34Zm4.61,0c-.48.15-1,.32-1.43.52a1.29,1.29,0,0,0,.28.08A5.15,5.15,0,0,1,84.08,8a4,4,0,0,1-1.2.4,3.4,3.4,0,0,0-.23.3c.59-.22,1.22-.29,1.82-.51a1.59,1.59,0,0,0,.82-.67,3.85,3.85,0,0,0-1.3.21Zm-5.45.64A3.47,3.47,0,0,0,78.8,8a1.07,1.07,0,0,0-.17-.54c-.09.29-.29.62-.09.91ZM74.91,7.6c.11.26.24.57.52.67A.81.81,0,0,0,76,8.2a2.42,2.42,0,0,0-1.07-.6Zm7,.6a.75.75,0,0,0,.55.06,1.07,1.07,0,0,0,.51-.66,2.29,2.29,0,0,0-1.06.6Zm-3.1.06c0,.11.08.19.14.27.08-.08.18-.18.16-.31A2.07,2.07,0,0,0,78.93,8c-.06.09-.16.17-.15.29ZM77.7,8.4v.06a.29.29,0,0,0,.33,0A.47.47,0,0,0,78.16,8a.63.63,0,0,1-.46.39Zm2-.4a.72.72,0,0,0,.1.5c.11,0,.36.08.35-.1a.69.69,0,0,1-.45-.4Zm-2,.73c-.12,0-.17-.13-.23-.22h-.06c0,.16-.05.35.08.46a.27.27,0,0,0,.37,0,1.33,1.33,0,0,0,.46-.85c-.19.2-.33.5-.62.55Zm.38.14c.06,0,.09.24.17.15a.86.86,0,0,0,.13-.83,1.73,1.73,0,0,1-.3.68Zm-3-.54c0,.18.12.31.27.36a.85.85,0,0,0,.61,0,1.65,1.65,0,0,1-.18-.32,4.05,4.05,0,0,0-.7,0Zm3.38.4c0,.18.16.27.26.38a.52.52,0,0,1,0-.54,2,2,0,0,0,0-.26c-.09.13-.24.24-.24.42Zm3.61-.36a1.5,1.5,0,0,1-.19.32.71.71,0,0,0,.93-.3c-.23-.14-.49,0-.74,0Zm-9.5.11a2.75,2.75,0,0,0,.86.42A4.44,4.44,0,0,0,74.79,9c.08,0,.09-.09.14-.13a4.56,4.56,0,0,1-1.16-.15,2.42,2.42,0,0,1,.89,0c.15,0,.31.1.47,0a2.8,2.8,0,0,0-.69-.23,4.91,4.91,0,0,0-1.87-.06Zm10.15.27a.25.25,0,0,0,.21,0,3,3,0,0,1,1.16-.08,4.56,4.56,0,0,1-1.16.15.16.16,0,0,0,.19.13,7.09,7.09,0,0,0,1,0,3,3,0,0,0,1.14-.49,5,5,0,0,0-2.57.27Zm-3.89-.21c-.07.11-.16.25-.09.39s.14.26.26.17a.41.41,0,0,0,0-.57l-.09.05-.1,0Zm-4,.49a.93.93,0,0,0,.94.07s0-.08,0-.1a.55.55,0,0,0-.91,0Zm7.33-.2c0,.09-.11.17-.16.25l.29.1a2,2,0,0,0-.49,0,.83.83,0,0,0,.35.39.69.69,0,0,0,.61,0,1.17,1.17,0,0,0-.15-.27.92.92,0,0,0-.32-.14A1,1,0,0,0,83,9a.94.94,0,0,0-.28-.21.92.92,0,0,0-.52,0Zm-3.77.08a.89.89,0,0,0-.18.38c0,.17.14.28.23.41a2.15,2.15,0,0,0,.19-.37.43.43,0,0,0-.24-.42Zm-.55.23a1.08,1.08,0,0,0,.13.58.78.78,0,0,0,.2-.43.74.74,0,0,0-.12-.36,2.08,2.08,0,0,0-.21.21Zm1.34,0a.82.82,0,0,0,0,.27,1.75,1.75,0,0,1,.18.29,1.12,1.12,0,0,0,.24-.37,1,1,0,0,0-.19-.43,1,1,0,0,0-.22.24Zm.62.59a1,1,0,0,0,.15-.6l-.19-.2a.61.61,0,0,0,0,.8Zm-7-.22a3.31,3.31,0,0,0,.89.07,7.68,7.68,0,0,0,1.43-.19l.14-.16a.92.92,0,0,0-.33,0,2.7,2.7,0,0,1-1,.09,2.44,2.44,0,0,1,.52-.12A1.93,1.93,0,0,0,75,9.11a3.14,3.14,0,0,0-.81,0,2.25,2.25,0,0,0-1.35.4Zm10.1-.37a4.27,4.27,0,0,1,1,.17,2.9,2.9,0,0,1-1-.08.73.73,0,0,0-.36,0c.16.21.44.2.68.25a4.32,4.32,0,0,0,1.79,0,2.85,2.85,0,0,0-.89-.35c-.29,0-.57,0-.86-.05-.13,0-.3-.07-.4.05Zm-5.4,0c.06.17.07.38.23.48s0,.09.1.13l-.12,0-.17,0a3.4,3.4,0,0,1-.07.34l-.2-.06c.19.23.17.55.31.8.08-.2.17-.39.26-.59a.5.5,0,0,0,0-.5H78a.85.85,0,0,0-.19-.3c0-.11,0-.22,0-.32a1,1,0,0,1-.34-.05Zm-2.07.1a.64.64,0,0,0-.37.4.73.73,0,0,0,.71-.09A1.31,1.31,0,0,0,76,9.21a1.3,1.3,0,0,0-.59,0Zm3.28.09c0,.18.13.31.21.45.1-.14.25-.29.21-.48l-.22-.12a1.49,1.49,0,0,0-.2.15ZM80,9.16v.31l.13.14a2.34,2.34,0,0,0,.19-.46Zm-5.74.45a1.44,1.44,0,0,0-1.05.77,1.76,1.76,0,0,0,1-.18,9.44,9.44,0,0,1,1-.45l-.18-.08a2.64,2.64,0,0,1-.94.26,5.29,5.29,0,0,1,1-.43,5.63,5.63,0,0,0-.81.11ZM79,9.85a1,1,0,0,0,.13.5.6.6,0,0,0,.22-.32.67.67,0,0,0-.14-.51,1.55,1.55,0,0,0-.21.33Zm.65-.33a1.4,1.4,0,0,0-.22.32.89.89,0,0,0,.16.49,1.15,1.15,0,0,0,.3-.48,4,4,0,0,0-.24-.33Zm3.13,0a5.22,5.22,0,0,1,1,.43,2.59,2.59,0,0,1-.93-.26l-.23.07a8,8,0,0,1,1,.42,1.85,1.85,0,0,0,1,.22,1.37,1.37,0,0,0-.84-.72,5.74,5.74,0,0,0-1-.16Zm-7.32.3c.07.06.13.16.23.16a.63.63,0,0,0,.61-.37,1.39,1.39,0,0,1-.41,0,2.61,2.61,0,0,0-.43.24Zm2.57,0a1.14,1.14,0,0,0,.28.49,1.25,1.25,0,0,0,.17-.39c0-.18-.14-.3-.23-.43L78,9.84Zm.52.05a.62.62,0,0,0,.22.47.91.91,0,0,0,.14-.42.59.59,0,0,0-.2-.39c-.12.06-.14.22-.16.34Zm1.35-.08.27-.16L80,9.51a1.14,1.14,0,0,0-.13.3Zm1.69-.22a.72.72,0,0,0,.7.37l.16-.16A4.77,4.77,0,0,0,82,9.55a1.05,1.05,0,0,1-.43,0Zm-1.46.13L80,9.84c-.08.37.2.65.3,1l.08,0a2.06,2.06,0,0,1,.23-.7l-.19,0-.06-.31-.21-.09Zm-5.59.4a1.39,1.39,0,0,0-.72.88,1.14,1.14,0,0,0,.67-.19,7.8,7.8,0,0,0,.69-.6,1.14,1.14,0,0,0,.33-.36,4.53,4.53,0,0,1-1,.6,1.37,1.37,0,0,1,.38-.38,5.18,5.18,0,0,0,.57-.31,6.73,6.73,0,0,0-.94.36Zm7.88-.36c.18.14.4.2.58.32a1.38,1.38,0,0,1,.39.37,2.38,2.38,0,0,1-.66-.37.82.82,0,0,0-.35-.2c.3.29.61.57.92.85a1.15,1.15,0,0,0,.79.27,1.41,1.41,0,0,0-.72-.88,6.4,6.4,0,0,0-1-.36Zm-6.62.35v.19a.56.56,0,0,0,.53-.25c0-.09-.06-.17-.08-.25a.92.92,0,0,0-.46.31Zm5.84-.31c0,.11-.12.24,0,.33a.51.51,0,0,0,.48.17A.77.77,0,0,0,82,10a.89.89,0,0,0-.41-.24Zm-5.28.27a1,1,0,0,0-.31.46c.32,0,.74-.23.66-.6a3.65,3.65,0,0,0-.35.14Zm4.85-.14a2.18,2.18,0,0,0,0,.25.71.71,0,0,0,.65.35,1.07,1.07,0,0,0-.34-.5l-.3-.1ZM75.53,10a2.14,2.14,0,0,0-1,1.44.86.86,0,0,0,.41-.13c.28-.16.41-.48.63-.72s.26-.22.21-.4a3.47,3.47,0,0,1-.79.64,1.35,1.35,0,0,1,.28-.35c.18-.17.43-.25.59-.44l-.28,0Zm1.54-.06a1.23,1.23,0,0,0,.15.94.49.49,0,0,0,.35.2c0-.16-.11-.32-.15-.49s-.12-.52-.35-.65Zm3.64,0a4.26,4.26,0,0,0-.43,1.11l.2,0a1,1,0,0,0,.31-1l-.08-.06Zm-3.89.92a.69.69,0,0,0,.17-.74s-.09,0-.14,0L76.78,10a.68.68,0,0,0,0,.85ZM82.05,10a1.5,1.5,0,0,0,.43.33,1.67,1.67,0,0,1,.38.37s0,.07,0,.09a3.69,3.69,0,0,1-.75-.62c0,.07,0,.15,0,.2a6.34,6.34,0,0,1,.51.65.89.89,0,0,0,.7.39,1.85,1.85,0,0,0-.16-.52,3.12,3.12,0,0,0-.89-.92l-.28,0Zm-1.19.08a1.41,1.41,0,0,0,0,.5,1.48,1.48,0,0,0,.16.27.93.93,0,0,0,.19-.37.78.78,0,0,0-.09-.45l-.25,0Zm-2.94.54.15.22a.75.75,0,0,0,.15-.31.68.68,0,0,0-.19-.44.81.81,0,0,0-.11.53Zm.36-.1a.6.6,0,0,0,.22.38c.07-.14.19-.3.15-.47a2.48,2.48,0,0,0-.17-.32c-.08.13-.21.25-.2.41Zm.91,0a.82.82,0,0,0,.17.42c.08-.11.21-.22.21-.37s-.12-.28-.2-.41a.82.82,0,0,0-.18.36Zm.44.05c0,.07.07.14.05.22H79.6a.39.39,0,0,0,0,.55l.09.07a.78.78,0,0,0,.07-.52.57.57,0,0,0,.19-.29.86.86,0,0,0-.12-.46c-.09.13-.22.27-.19.44Zm-.71-.33a2.11,2.11,0,0,0-.18.33c0,.16.11.29.19.41a1.92,1.92,0,0,0,.18-.31c0-.17-.11-.3-.19-.43Zm-3.12.18a1.94,1.94,0,0,0-.63,1.28,1.2,1.2,0,0,0,.55-.33c.19-.23.29-.53.48-.77H76a2.16,2.16,0,0,1-.53.67c.06-.39.39-.62.59-.92-.09,0-.19,0-.25.07Zm6-.06c.23.28.55.53.6.91a2.89,2.89,0,0,1-.54-.66l-.17,0,.37.65a1.09,1.09,0,0,0,.64.47A1.9,1.9,0,0,0,82,10.35Zm-5.31.2a2.09,2.09,0,0,1-.23.82,3.24,3.24,0,0,1,.15-.87,1.69,1.69,0,0,0-.38.71,1.09,1.09,0,0,0,0,.62.75.75,0,0,0,.48-.57,4.56,4.56,0,0,0,.08-.9c0,.06-.12.1-.12.19Zm4.78-.17a3.91,3.91,0,0,0,.13,1,.86.86,0,0,0,.42.44,1,1,0,0,0,0-.73,1.54,1.54,0,0,0-.36-.62,3.89,3.89,0,0,1,.17.89,2,2,0,0,1-.24-.82.2.2,0,0,0-.13-.18Zm-4.59.33a1.7,1.7,0,0,0,.14,1.16,3,3,0,0,0,.2-1.11l-.12.11a1.29,1.29,0,0,1-.08.55,1,1,0,0,1,0-.49c0-.09-.06-.15-.1-.22Zm4.42.12a1.17,1.17,0,0,1,0,.59c-.1-.22,0-.51-.17-.67a2.58,2.58,0,0,0,.2,1.13,1.87,1.87,0,0,0,.14-1.19l-.12.14Zm-4,0a2.32,2.32,0,0,0,.24.91l.12,0a1.61,1.61,0,0,0,0-.62L77.29,11a1.45,1.45,0,0,1,0,.36,1.22,1.22,0,0,1-.13-.46l-.05-.11-.07,0Zm1,.23c0,.14.06.27.1.39a.86.86,0,0,0,.2-.39,1.72,1.72,0,0,0-.11-.29c-.08.09-.18.17-.19.29Zm.57-.24a1,1,0,0,0-.21.38,1.26,1.26,0,0,0,.15.45.87.87,0,0,0,.24-.49c0-.13,0-.29-.18-.34Zm1.89.63a2.29,2.29,0,0,1,0-.37l-.12.07a1.22,1.22,0,0,0,0,.68,1.59,1.59,0,0,0,.3-1.06c-.13.21-.12.47-.23.68ZM79,11.11a.85.85,0,0,0,.22.49.86.86,0,0,0,.15-.49,2.31,2.31,0,0,0-.18-.35.34.34,0,0,0-.19.35Zm-.29.51a1.7,1.7,0,0,0,.18.62,1.73,1.73,0,0,0,.2-.62.93.93,0,0,0-.2-.44.94.94,0,0,0-.18.44Zm-.4-.35-.19.26c-.05.13.06.23.13.33.08-.07.2-.16.19-.29a1.94,1.94,0,0,0-.13-.3Zm1.06.4a.85.85,0,0,0,.14.19s.11-.1.16-.16a.59.59,0,0,1,0-.13c-.07-.11-.15-.21-.22-.31,0,.13-.14.26-.1.41ZM77.57,12a1.21,1.21,0,0,0,.55-.19,2,2,0,0,0,0-.24,2,2,0,0,0-.52.43Zm2.21-.42c0,.08,0,.15-.07.22a1.46,1.46,0,0,0,.55.21,1.51,1.51,0,0,0-.48-.43Zm-1.38.3c-.13.11-.34.14-.4.33.09,0,.2.14.31.07a.75.75,0,0,0,.36-.66,3.31,3.31,0,0,1-.27.26Zm.78-.27c0,.28.15.64.46.7l.22-.11a.51.51,0,0,0-.24-.22,1.21,1.21,0,0,1-.44-.37Zm-3.72.19a.84.84,0,0,0,0,.17.82.82,0,0,0,.37.43c.1.07.26.11.32,0a.3.3,0,0,0-.08-.27.64.64,0,0,0-.56-.31Zm6.27.49.06.17c.27,0,.45-.21.63-.38,0-.11,0-.3-.12-.29a.84.84,0,0,0-.57.5Zm-4-.08H78l.12-.21.21-.09-.11-.08a1.05,1.05,0,0,0-.47.37Zm1.88-.3a.53.53,0,0,1,.33.31h.22a.67.67,0,0,0-.06-.12c-.15-.09-.32-.35-.49-.18Zm-.92.45a.77.77,0,0,1,.09.47l-.21.18h.19l.19-.16a1.33,1.33,0,0,0,.19.14,1.31,1.31,0,0,0,.28.45,1.71,1.71,0,0,0,.56.44.43.43,0,0,0,.1-.09,2.15,2.15,0,0,1-.81-.83c-.07-.07-.16-.14-.16-.25s.15-.36.16-.56a.58.58,0,0,0-.09-.29,3.69,3.69,0,0,1-.23.58,5.77,5.77,0,0,1-.22-.58.5.5,0,0,0,0,.5ZM75.36,12c0,.37-.26.69-.21,1.07s.31.63.48.93h.5c-.07-.19-.34-.07-.46-.2a.62.62,0,0,1-.07-.44.46.46,0,0,1,.65-.29.65.65,0,0,1,.27.46,1.8,1.8,0,0,0,.08-.21.53.53,0,0,0-.19-.31.58.58,0,0,0-.88.16.73.73,0,0,1,.42-.6,1,1,0,0,1-.59-.56ZM77,12.3l.23.09a1.29,1.29,0,0,0,.54-.39,1.15,1.15,0,0,0-.77.3Zm3-.3a1.05,1.05,0,0,0,.5.38l.25-.07c-.17-.24-.49-.26-.75-.31Zm1.81.51a.71.71,0,0,1,.45.56.63.63,0,0,0-.53-.25.6.6,0,0,0-.56.46c-.12-.22-.22-.44-.35-.64s-.17-.06-.26-.09v.17c-.1-.06-.28-.13-.3,0a1.57,1.57,0,0,1,1,1.23l.19,0-.12.08,0,.06c-.14.21.17.34.34.31a.73.73,0,0,0-.26-.29c.11,0,.23-.05.26-.19l-.19,0c.19-.13.43-.12.63-.22-.09-.07-.17-.16-.29-.15s-.24.09-.36.14a.16.16,0,0,1-.17-.2A.53.53,0,0,1,81.7,13a.47.47,0,0,1,.57.48.53.53,0,0,1-.15.33l-.4.07s0,.08.06.1a1.24,1.24,0,0,0,.43,0c.16-.3.45-.53.48-.89s-.18-.71-.2-1.08a1,1,0,0,1-.62.52Zm-4-.27a.86.86,0,0,0-.26.34l.06.18a.29.29,0,0,0,.35-.08l-.25-.06a.33.33,0,0,1,.3-.32v-.05Zm1.85,0a2.21,2.21,0,0,1,.27.12c.06.06.06.15.1.22l-.24.05.06.1c.1,0,.24.06.3-.06a.44.44,0,0,0-.24-.45.53.53,0,0,0-.25,0Zm.34,0,.22.28.24-.11a.86.86,0,0,0-.46-.17Zm-2.71.17.21.11.23-.28a.69.69,0,0,0-.44.17Zm.81.24a1,1,0,0,0-.31.33c.33,0,.46-.33.68-.51a.71.71,0,0,1-.16.34c-.15.17-.4.24-.43.49a.9.9,0,0,0,.7-.68c0-.14-.06-.26-.09-.38-.14.12-.23.31-.39.41Zm1.13-.41a1,1,0,0,0-.09.33.91.91,0,0,0,.72.73c-.09-.36-.6-.42-.58-.83.2.19.34.52.66.5a1,1,0,0,0-.33-.33c-.16-.1-.22-.3-.38-.4Zm-2.35.29c.12,0,.32-.06.38.1h.16a.78.78,0,0,1,.1.15.53.53,0,0,0,0-.12c-.13-.2-.4-.22-.6-.29a1.11,1.11,0,0,0-.07.16Zm3.47,0c-.09,0-.23.11-.18.26a.34.34,0,0,1,.3-.15l0-.08h.34c0-.06,0-.16-.13-.14a1.53,1.53,0,0,0-.38.12ZM77,12.58a4.47,4.47,0,0,0-.5.91,2.53,2.53,0,0,1-.13.22c-.17-.05-.32-.21-.52-.15s-.22.07-.12.16.37.1.54.2l-.18,0c0,.14.16.16.26.2a.41.41,0,0,0-.23.29c.15,0,.43-.1.32-.31l0-.06L76.39,14h.18a2,2,0,0,1,.53-1,1.38,1.38,0,0,1,.46-.25.23.23,0,0,0-.32,0v-.15l-.21,0Zm1.1,1.28a1.74,1.74,0,0,0,.55-.26.54.54,0,0,0,.48,0,1.83,1.83,0,0,0,.53.25,2.53,2.53,0,0,0-.36-.37,2.71,2.71,0,0,1-.41-.55,3.68,3.68,0,0,1-.79.93Zm.4-.77a2.2,2.2,0,0,1-.7.66.59.59,0,0,0,0,.14,2.25,2.25,0,0,0,.9-.86c-.08,0-.18,0-.22.06Zm-1.37,0v.45l.15-.08c.28.38.54.78.82,1.16a1.54,1.54,0,0,0,.08-.19c-.25-.37-.51-.72-.75-1.09l.12-.09-.42-.16Zm3.11.16.12.1L79.23,15l-.6-1.1-.6.92-.14-.07c0,.15,0,.3,0,.45l.42-.16-.12-.11c.12-.24.3-.44.43-.68.21.36.4.72.6,1.08.46-.62.88-1.26,1.33-1.89l.14.1c0-.16,0-.31,0-.47l-.42.17Zm-1.55.45a1.77,1.77,0,0,0,.17.24c.13,0,.16-.18.24-.24a2.8,2.8,0,0,1-.41,0Zm-2.19.37s0,.09,0,.13a3.14,3.14,0,0,0,1.09-.2l-.1-.11a4.86,4.86,0,0,1-1,.18Zm3.75-.19,0,.13a2.94,2.94,0,0,0,1,.18.6.6,0,0,0,.06-.11,5.36,5.36,0,0,1-1.06-.2ZM79,14.33a.16.16,0,0,0,.07.23c.06-.09.1-.18.16-.27s.15.2.23.3c0-.05.1-.09.1-.16s-.22-.35-.33-.52c-.08.14-.16.28-.23.42Zm-3.38-.28a1.36,1.36,0,0,0,.09.23c.15-.07.37-.1.41-.3a1,1,0,0,0-.5.07ZM81.73,14a.56.56,0,0,0,.44.28,1.66,1.66,0,0,0,.06-.21,1.05,1.05,0,0,0-.5-.07Zm-5.88.4h.28l.15-.3c-.18,0-.44.07-.43.29Zm5.71-.28a1.44,1.44,0,0,0,.23.32c.08,0,.24,0,.2-.15a.45.45,0,0,0-.43-.17Zm-3.28.73c.11.17.23.33.34.49a3.26,3.26,0,0,0,.24-.4c0-.08,0-.17,0-.24a3.21,3.21,0,0,0-.19.31l-.22-.3-.12.14Zm1.38.12-.12.08.43.17v-.45l-.15.08-.09-.15a.24.24,0,0,0-.07.27ZM77.54,6.55a.36.36,0,0,1,.07.1l.17-.12-.24,0Zm2.55,0,.16.12s0-.09,0-.12Z"/><path class="cls-3" d="M14.87,8A3.51,3.51,0,0,0,13.74,6a2,2,0,0,0-1.57-.34A2.21,2.21,0,0,0,10.73,7a7.32,7.32,0,0,0-.58,3.08A8.63,8.63,0,0,0,10.58,13a2.86,2.86,0,0,0,.86,1.3,1.93,1.93,0,0,0,1.67.31,2.27,2.27,0,0,0,1.37-1.23,6.35,6.35,0,0,0,.61-2.4A9.63,9.63,0,0,0,14.87,8Zm-1.21,2.8a5.61,5.61,0,0,1-.39,1.91.88.88,0,0,1-.53.55.58.58,0,0,1-.57-.15A2.16,2.16,0,0,1,11.69,12a9.47,9.47,0,0,1-.18-2.44,6.13,6.13,0,0,1,.35-1.86c.13-.29.34-.59.65-.62a.75.75,0,0,1,.72.38,3.84,3.84,0,0,1,.4,1.5A13.22,13.22,0,0,1,13.66,10.75Z"/><path class="cls-3" d="M59.26,8.84c1.1-1.13,2.19-2.29,3.3-3.42,0,.6,0,1.21.06,1.81.08,1.92.15,3.84.22,5.76,0,.5,0,1,.07,1.51H61.45c-.05-1.89-.13-3.78-.19-5.67L59.5,10.67a1.61,1.61,0,0,0-.24.28c0,1.18,0,2.37,0,3.55H57.84V5.84h1.41c0,1,0,2,0,3Z"/><path class="cls-3" d="M68.57,6.07c.22-.2.4-.44.63-.63.12,3,.23,6,.35,9.06H68.11L67.9,8.82c-.62.67-1.26,1.33-1.88,2-.06.06-.13.12-.12.21V14.5H64.49V10.79c0-1.06,0-2.12,0-3.18,0-.59,0-1.18,0-1.77H65.9v3c.32-.3.61-.64.93-1l1.74-1.82Z"/><path class="cls-3" d="M45.36,7.45A3,3,0,0,0,44.3,6a2,2,0,0,0-1.47-.27,1.7,1.7,0,0,0-.69.33,3,3,0,0,0-.9,1.34A7.66,7.66,0,0,0,40.81,10a8.45,8.45,0,0,0,.42,3,2.71,2.71,0,0,0,1,1.4,2,2,0,0,0,1.79.1,2.53,2.53,0,0,0,1.16-1.29,7.81,7.81,0,0,0,.57-3.36A7.53,7.53,0,0,0,45.36,7.45ZM44.14,12a2.47,2.47,0,0,1-.39,1,.63.63,0,0,1-.72.23c-.27-.09-.41-.38-.53-.64a7,7,0,0,1-.35-2.41,8.7,8.7,0,0,1,.14-1.69,3.21,3.21,0,0,1,.36-1A.8.8,0,0,1,43,7.13a.71.71,0,0,1,.78.21,1.84,1.84,0,0,1,.33.69,6.65,6.65,0,0,1,.2,1.55A9.34,9.34,0,0,1,44.14,12Z"/><path class="cls-3" d="M47.7,7.12a3.67,3.67,0,0,1,2.6-1.43,5.91,5.91,0,0,1,.84,0c0,.5,0,1,0,1.51a3.44,3.44,0,0,0-1.38.28A2.49,2.49,0,0,0,48.51,9a4.64,4.64,0,0,0-.12,1.78,2.89,2.89,0,0,0,1,1.91,2.71,2.71,0,0,0,1.75.51v1.54a4.41,4.41,0,0,1-2.49-.65,3.89,3.89,0,0,1-1.34-1.55,5,5,0,0,1-.49-2,5.32,5.32,0,0,1,.86-3.48Z"/><path class="cls-3" d="M53.6,6.53a4.22,4.22,0,0,1,2.88-.88V7.16A3.24,3.24,0,0,0,55,7.52a2.65,2.65,0,0,0-1.21,2,3.92,3.92,0,0,0,.35,2.44,2.46,2.46,0,0,0,1.44,1.18,3.12,3.12,0,0,0,1,.11v1.54A4.26,4.26,0,0,1,53.88,14a4.05,4.05,0,0,1-1.51-2.23,6.8,6.8,0,0,1-.08-2.91A4,4,0,0,1,53.6,6.53Z"/><path class="cls-3" d="M4.22,5.84h4.6V14.5H7.41V7.42c0-.06,0-.18-.09-.15H5.63q0,3.62,0,7.23H4.22c0-2.88,0-5.77,0-8.66Z"/><path class="cls-3" d="M16.11,5.84h1.4V8.22a.68.68,0,0,0,.64.63c.34,0,.69,0,1,0v-3h1.39c0,2.89,0,5.78,0,8.66H19.19c0-1.4,0-2.8,0-4.2H18.11a2,2,0,0,1-1.45-.6,1.87,1.87,0,0,1-.56-1.34c0-.84,0-1.68,0-2.52Z"/><path class="cls-3" d="M21.67,5.84h3.8V7.27h-1.2c0,2.41,0,4.82,0,7.23H22.85V7.27H21.67V5.84Z"/><path class="cls-3" d="M31.28,10.8c-.1-1-.23-2.06-.3-3.1a2.17,2.17,0,0,0-.56-1.3A2.06,2.06,0,0,0,29,5.84H26.76l-.27,8.66h1.42c0-1.4.07-2.81.13-4.22h1.82c.12,1.41.26,2.81.38,4.22h1.43C31.55,13.27,31.41,12,31.28,10.8Zm-3.21-2c0-.52,0-1,0-1.58a2.9,2.9,0,0,1,.93.06.78.78,0,0,1,.45.47,5.43,5.43,0,0,1,.21,1Z"/><path class="cls-3" d="M39.84,8.78A3.81,3.81,0,0,0,39,6.57a2.13,2.13,0,0,0-1.65-.73H35.83V14.5h1.45V12.05a1.37,1.37,0,0,0,1.41.22,2,2,0,0,0,.88-1.11A6.35,6.35,0,0,0,39.84,8.78ZM38.2,10.52c-.09.21-.28.43-.51.34a.7.7,0,0,1-.3-.39,2.26,2.26,0,0,1-.11-.9V7.15a.8.8,0,0,1,.65.32,2.81,2.81,0,0,1,.41,1.45A3.6,3.6,0,0,1,38.2,10.52Z"/></svg>