<svg id="_1" data-name="1" xmlns="http://www.w3.org/2000/svg" viewBox="0 0 90 20"><defs><style>.cls-1{fill:#fff;}.cls-2{fill:#1ab248;fill-rule:evenodd;}</style></defs><title>СДЭК</title><rect class="cls-1" width="90" height="20"/><path class="cls-2" d="M54.64,17.5h3.91l1.68-4.72L62,11.34l1.37,4.26c.43,1.32.87,1.9,1.82,1.9h3L65.08,9.13,72.5,2.5H67.71L63.2,7.22c-.53.55-1.06,1.09-1.59,1.73h0L63.81,2.5h-3.9Z"/><path class="cls-2" d="M54.47,2.5h3.41L57.08,5c-.26.78-.9,1.15-2.32,1.15H46.19L47,3.65c.25-.78.9-1.15,2.31-1.15ZM47.32,8.19H55.9l-.81,2.47c-.26.78-.9,1.15-2.32,1.15H44.2L45,9.34c.25-.78.9-1.15,2.31-1.15Zm6.49,5.68H45.24c-1.42,0-2.06.37-2.32,1.15l-.8,2.48h8.57c1.41,0,2.06-.37,2.31-1.15Z"/><path class="cls-2" d="M36.92,6.11H39c1.79,0,1.38,2.16.47,4.27-.79,1.86-2.21,3.49-3.89,3.49H32.1c-1.39,0-2,.37-2.31,1.15l-.86,2.48h2.56l2.51,0c2.22,0,4-.17,6.17-2s4.87-7,4.42-10c-.35-2.3-1.63-3-4.72-3H34.23l-3.29,9.3H33c1.24,0,1.86,0,2.52-1.71Z"/><path class="cls-2" d="M27.28,6.13H25.7c-3.16,0-5.87,7.74-2.13,7.74H26c1.38,0,2.41.49,2,1.81L27.3,17.5H24.75l-2.07,0c-2.65,0-4.36-1.29-5-3.21-.67-2.08.27-6.41,3-9.19A8.91,8.91,0,0,1,27.3,2.5h5.2l-.81,2.27a1.92,1.92,0,0,1-2.21,1.36Z"/></svg>