<svg id="Capa_1" data-name="Capa 1" xmlns="http://www.w3.org/2000/svg" viewBox="0 0 16 13"><defs><style>.cls-1{fill:#fff;}</style></defs><title>Твиттер</title><path class="cls-1" d="M16,1.54a7.16,7.16,0,0,1-1.89.52A3.26,3.26,0,0,0,15.55.24a6.47,6.47,0,0,1-2.08.8A3.28,3.28,0,0,0,7.8,3.28,3.08,3.08,0,0,0,7.88,4,9.31,9.31,0,0,1,1.11.6,3.32,3.32,0,0,0,.67,2.26,3.28,3.28,0,0,0,2.12,5a3.27,3.27,0,0,1-1.48-.4v0A3.3,3.3,0,0,0,3.27,7.84a3.44,3.44,0,0,1-.86.1,3.18,3.18,0,0,1-.62-.05,3.3,3.3,0,0,0,3.06,2.28,6.53,6.53,0,0,1-4.07,1.4,6.79,6.79,0,0,1-.78,0A9.3,9.3,0,0,0,5,13a9.27,9.27,0,0,0,9.34-9.33c0-.15,0-.29,0-.43A6.63,6.63,0,0,0,16,1.54Z"/></svg>