<svg id="_1" data-name="1" xmlns="http://www.w3.org/2000/svg" viewBox="0 0 63.9 40"><defs><style>.cls-1{fill:#e4363a;}.cls-2{fill:#004a87;}.cls-3{fill:#008286;}.cls-4{fill:#fff;}</style></defs><title>Union pay</title><path class="cls-1" d="M7.51,4.11A5.34,5.34,0,0,1,10.8.35c.21-.09.48-.06.63-.28.44,0,.87-.07,1.31-.07h15.5a3.8,3.8,0,0,1,2,.45A3.18,3.18,0,0,1,31.58,4q-2.17,9.36-4.36,18.71c-1,4.32-2.06,8.64-3,13A5.64,5.64,0,0,1,18.84,40c-5.08-.07-10.16,0-15.24,0-.45,0-.9,0-1.34-.06a.58.58,0,0,0-.37-.17A3.08,3.08,0,0,1,0,37.15a10.43,10.43,0,0,1,.39-2.49S7.05,5.93,7.51,4.11Z"/><path class="cls-2" d="M22,4.11A5.34,5.34,0,0,1,25.25.35c.21-.09.48-.06.64-.28.43,0,.87-.07,1.3-.07h15.5a3.8,3.8,0,0,1,2,.45A3.18,3.18,0,0,1,46,4q-2.19,9.36-4.37,18.71c-1,4.32-2.05,8.64-3,13A5.64,5.64,0,0,1,33.29,40c-5.08-.07-10.16,0-15.24,0-.44,0-.89,0-1.34-.06a.58.58,0,0,0-.37-.17,3.08,3.08,0,0,1-1.89-2.59,10.43,10.43,0,0,1,.39-2.49S21.5,5.93,22,4.11Z"/><path class="cls-3" d="M39.72,4.11A5.34,5.34,0,0,1,43,.35c.21-.09.48-.06.64-.28C44.08.05,44.52,0,45,0h15.5a3.77,3.77,0,0,1,2,.45A3.18,3.18,0,0,1,63.8,4q-2.19,9.36-4.37,18.71c-1,4.32-2,8.64-3,13A5.64,5.64,0,0,1,51.05,40c-5.08-.07-10.16,0-15.23,0-.45,0-.9,0-1.35-.06a.58.58,0,0,0-.36-.17,3.09,3.09,0,0,1-1.9-2.59,10.43,10.43,0,0,1,.39-2.49S39.26,5.93,39.72,4.11Z"/><path class="cls-4" d="M41.8,18.49H40.56c-.17,0-.25.05-.28.23-.2,1-.42,2-.62,3.06,0,.19-.1.26-.3.26q-.73,0-1.47,0c-.24,0-.3-.05-.25-.29.31-1.47.61-2.94.91-4.42s.67-3.21,1-4.82c0-.2.11-.26.31-.25H44a4,4,0,0,1,1,.12,1.87,1.87,0,0,1,1.54,1.75,4,4,0,0,1-2.4,4.11,4.05,4.05,0,0,1-1.46.26Zm.09-1.71h.76a1.61,1.61,0,0,0,1.76-1.53c.13-.79-.12-1.18-.9-1.28a16.64,16.64,0,0,0-2.12,0c-.11,0-.13.06-.15.15-.17.84-.34,1.68-.52,2.51,0,.17,0,.2.16.19Z"/><path class="cls-4" d="M55.6,20a.55.55,0,0,0,.17-.27c.5-1.16,1-2.32,1.49-3.49a.29.29,0,0,1,.33-.22c.42,0,.85,0,1.27,0,.23,0,.24.05.15.24-1.07,2.15-2.13,4.29-3.18,6.44a14.59,14.59,0,0,1-1.55,2.68,3.46,3.46,0,0,1-2.15,1.44,2.15,2.15,0,0,1-.91,0c0-.29.06-.58.1-.86a.17.17,0,0,1,.12-.17,3.77,3.77,0,0,0,1.74-1.7,15.87,15.87,0,0,0,.76-1.48.53.53,0,0,0,0-.33c-.17-2-.32-4-.49-6,0-.22,0-.28.25-.27.49,0,1,0,1.46,0,.25,0,.32.05.33.3C55.54,17.5,55.57,18.71,55.6,20Z"/><path class="cls-4" d="M49.28,22a.25.25,0,0,1-.24-.1c-.13-.25-.31-.2-.52-.11a3.56,3.56,0,0,1-1.28.29A1.46,1.46,0,0,1,45.6,20.7a4.68,4.68,0,0,1,1.06-3.6,2.18,2.18,0,0,1,3-.31c.18.13.31.18.48,0l.33-.33a.16.16,0,0,1,.13-.06L52,16.36c.23,0,.22.09.13.46-.36,1.66-.73,3.32-1.09,5,0,.17-.1.23-.28.22S49.54,22,49.28,22Zm.41-3.23a1.68,1.68,0,0,0-.14-.7.68.68,0,0,0-1-.34,1.14,1.14,0,0,0-.36.26,2.63,2.63,0,0,0-.76,2.13,1.24,1.24,0,0,0,.16.48.67.67,0,0,0,.88.31,1.5,1.5,0,0,0,.48-.34A2.79,2.79,0,0,0,49.69,18.75Z"/><path class="cls-4" d="M28.11,15.84a2.19,2.19,0,0,1,2.38,1.7,3.92,3.92,0,0,1-2.86,4.56,3,3,0,0,1-1.94-.16,2,2,0,0,1-1.19-1.59,4.18,4.18,0,0,1,1.89-4.07A3.55,3.55,0,0,1,28.11,15.84Zm-2.06,3.68c0,.78.27,1.21.78,1.3a1.45,1.45,0,0,0,1.56-.6,3.15,3.15,0,0,0,.55-2.17,1,1,0,0,0-.94-.88,1.46,1.46,0,0,0-1.43.71A3.64,3.64,0,0,0,26.05,19.52Z"/><path class="cls-4" d="M35.77,15.86a2.55,2.55,0,0,0-2.22.89,4.86,4.86,0,0,1,.1-.55c.06-.2,0-.22-.18-.22-.35,0-.7,0-1,0-.18,0-.24.05-.27.23-.13.67-.9,4.48-1.13,5.61,0,.17,0,.21.17.2h1.1c.19,0,.25-.06.28-.24.08-.44.61-3,.72-3.46a1.46,1.46,0,0,1,1.53-1.16.67.67,0,0,1,.71.79,4.11,4.11,0,0,1-.07.47c-.23,1.13-.45,2.27-.69,3.4,0,.17,0,.21.17.2H36c.2,0,.26-.06.29-.24.08-.44.17-.88.26-1.33.18-1,.43-1.94.56-2.93A1.4,1.4,0,0,0,35.77,15.86Z"/><path class="cls-4" d="M17.37,17.19a1.45,1.45,0,0,0-1.27,1.23c-.22,1-.41,2-.6,3-.12.62-.12.62-.75.62h-.68c-.2,0-.23-.05-.2-.23l.75-3.7c.12-.62.25-1.23.37-1.85,0-.18.08-.28.29-.26.36,0,.72,0,1.08,0,.14,0,.18.05.15.18a3.58,3.58,0,0,0-.1.6,3.11,3.11,0,0,1,.32-.31,2.59,2.59,0,0,1,1.87-.6l.27,0A1.38,1.38,0,0,1,20,17.58c-.16,1-.37,1.93-.56,2.9-.08.43-.18.86-.25,1.3,0,.17-.08.25-.28.24H17.82c-.18,0-.24,0-.19-.22.25-1.22.49-2.43.71-3.65C18.48,17.42,18.12,17.07,17.37,17.19Z"/><path class="cls-4" d="M20.91,22a.18.18,0,0,1-.17-.22c.24-1.12.47-2.22.71-3.33.16-.74.33-1.48.48-2.23,0-.18.09-.27.3-.26h1.19c.17,0,.22,0,.18.22-.42,1.87-.81,3.75-1.22,5.62,0,.1,0,.2-.17.2Z"/><path class="cls-4" d="M24,13.79H22.67c-.11,0-.18,0-.2.14l-.24,1.15c0,.13,0,.17.13.17h1.33c.11,0,.18,0,.2-.14L24.13,14C24.16,13.83,24.13,13.78,24,13.79Z"/><path class="cls-4" d="M8.32,22.23a4.56,4.56,0,0,1-2.13-.44,2.31,2.31,0,0,1-1.26-1.94,8,8,0,0,1,.31-2.28C5.61,15.78,6,14,6.35,12.19c.05-.23.14-.31.38-.3.52,0,1,0,1.55,0,.22,0,.25.06.21.25-.38,1.85-.77,3.7-1.15,5.55-.08.38-.17.77-.22,1.16A1.25,1.25,0,0,0,8.33,20.4a2.32,2.32,0,0,0,2.71-2c.42-2.1.86-4.19,1.29-6.29,0-.15.08-.22.25-.22H14.3c.13,0,.19,0,.16.17-.48,2.27-.92,4.55-1.43,6.81a4.12,4.12,0,0,1-3.61,3.26l-.36.05Z"/></svg>