<?xml version="1.0" encoding="utf-8"?>
<!-- Generator: Adobe Illustrator 23.0.6, SVG Export Plug-In . SVG Version: 6.00 Build 0)  -->
<svg version="1.1" id="Слой_3" xmlns="http://www.w3.org/2000/svg" xmlns:xlink="http://www.w3.org/1999/xlink" x="0px" y="0px"
	 viewBox="0 0 60 60" style="enable-background:new 0 0 60 60;" xml:space="preserve">
<style type="text/css">
	.st0{fill:#EAECF0;}
	.st1{fill:#EA5E20;}
	.st2{fill:#2A3141;}
</style>
<title>Видео</title>
<path class="st0" d="M30,54.7c-13.6,0-24.7-11-24.7-24.7S16.4,5.3,30,5.3s24.7,11,24.7,24.7l0,0C54.6,43.6,43.6,54.6,30,54.7z"/>
<path class="st1" d="M30,1.5c15.7,0,28.5,12.8,28.5,28.5S45.7,58.5,30,58.5S1.5,45.7,1.5,30C1.5,14.3,14.3,1.5,30,1.5 M30,0
	C13.4,0,0,13.4,0,30s13.4,30,30,30s30-13.4,30-30S46.6,0,30,0z"/>
<path class="st2" d="M22.7,19.2v21.6l18.3-10.3L22.7,19.2z"/>
</svg>
