<svg id="_1" data-name="1" xmlns="http://www.w3.org/2000/svg" viewBox="0 0 61.81 20"><defs><style>.cls-1{fill:#01549a;}.cls-1,.cls-2{fill-rule:evenodd;}.cls-2{fill:#f7a707;}</style></defs><title>Visa</title><polygon class="cls-1" points="21.78 19.71 24.91 0.34 29.91 0.34 26.78 19.71 21.78 19.71"/><path class="cls-1" d="M44.92.81A12.57,12.57,0,0,0,40.44,0C35.5,0,32,2.63,32,6.4c0,2.79,2.48,4.33,4.38,5.26S39,13.22,39,14.06c0,1.3-1.55,1.89-3,1.89a10.13,10.13,0,0,1-4.72-1l-.63-.3L29.91,19a15.06,15.06,0,0,0,5.58,1c5.25,0,8.67-2.6,8.71-6.61,0-2.22-1.32-3.89-4.2-5.27-1.75-.9-2.82-1.5-2.81-2.41s.91-1.66,2.87-1.66a8.82,8.82,0,0,1,3.74.74l.45.23Z"/><path class="cls-1" d="M51.59,12.85l2-5.42c0,.05.42-1.12.67-1.85l.33,1.67s1,4.63,1.17,5.6ZM57.76.36H53.9A2.48,2.48,0,0,0,51.27,2L43.84,19.72H49.1s.86-2.39,1-2.91h6.41c.16.68.61,2.91.61,2.91h4.65Z"/><path class="cls-1" d="M17.58.36l-4.9,13.21-.52-2.69A14.88,14.88,0,0,0,5.23,2.75l4.48,17H15L22.88.36Z"/><path class="cls-2" d="M8.14.34H.07L0,.74C6.28,2.35,10.43,6.23,12.16,10.88L10.41,2A2.11,2.11,0,0,0,8.14.34Z"/></svg>