<svg id="Bold" xmlns="http://www.w3.org/2000/svg" viewBox="0 0 20 11.67"><defs><style>.cls-1{fill:#fff;}</style></defs><title>ВК</title><path class="cls-1" d="M16.6,6.69c-.33-.41-.23-.59,0-1,0,0,2.67-3.7,2.94-4.95h0c.13-.45,0-.79-.66-.79H16.7a.94.94,0,0,0-.95.61A18.15,18.15,0,0,1,13.06,5c-.51.5-.74.66-1,.66s-.35-.16-.35-.61V.79c0-.55-.16-.79-.62-.79H7.63a.53.53,0,0,0-.55.49c0,.52.79.64.87,2.1V5.75c0,.7-.13.82-.41.82C6.8,6.57,5,3.9,3.93.84,3.71.24,3.5,0,2.94,0H.75C.13,0,0,.29,0,.61,0,1.18.74,4,3.46,7.74a8.55,8.55,0,0,0,6.67,3.93c1.39,0,1.56-.31,1.56-.84,0-2.43-.12-2.66.57-2.66.33,0,.88.16,2.18,1.39C15.93,11,16.17,11.67,17,11.67h2.19c.62,0,.94-.31.76-.91C19.53,9.48,16.72,6.87,16.6,6.69Z"/></svg>