<svg id="Layer_1" data-name="Layer 1" xmlns="http://www.w3.org/2000/svg" viewBox="0 0 95.87 20"><defs><style>.cls-1{fill:#01a4f6;}.cls-2{fill:#0b89e9;}.cls-3{fill:#3bb9f8;}.cls-4{fill:#dcf2fd;}.cls-5{fill:#00edbb;}.cls-6{fill:#098eec;}.cls-7{fill:#0794ee;}.cls-8{fill:#0891ed;}.cls-9{fill:#0a8aea;}.cls-10{fill:#0697f0;}.cls-11{fill:#00a7f7;}.cls-12{fill:#2bbff1;}.cls-13{fill:#049df2;}.cls-14{fill:#0599f1;}.cls-15{fill:#03a0f4;}.cls-16{fill:#02a1f5;}.cls-17{fill:#e0f3fd;}</style></defs><title>Яндекс Касса</title><path class="cls-1" d="M.07,10.93l-.07,0v-.64A.93.93,0,0,0,0,9.7V9.41l.08-.13C.83,8.51,1.59,7.73,2.4,7c.52-.44.87-1,1.42-1.44.22-.16.39-.42.71-.38A5.38,5.38,0,0,1,5,6.31a.87.87,0,0,1-.38.42,2.32,2.32,0,0,0-.72.71A1.91,1.91,0,0,1,3.31,8c-.26.14-.36.41-.56.59L1.18,10.09c-.25.23-.42.54-.68.77-.1.09-.18.2-.32.22S.13,11,.07,10.93Z"/><path class="cls-2" d="M7.73,20c-.09-.21-.32-.3-.43-.5,1.2-1.23,2.43-2.42,3.63-3.66.43-.44.89-.85,1.35-1.27.21-.2.29-.37,0-.58-.08-.07-.16-.16-.08-.28.25.24.49.49.75.71s.19.32,0,.51q-2.38,2.37-4.76,4.75c-.1.1-.23.17-.27.32Z"/><path d="M95.76,14.2a7.71,7.71,0,0,1,0-1.44c0-1.67,0-3.33-.06-5,.25.17,0,.51.21.7V14.2A.07.07,0,0,1,95.76,14.2Z"/><path class="cls-3" d="M0,9.7a.53.53,0,0,1,0,.57Z"/><path d="M95.76,14.2h.11v.6C95.68,14.63,95.76,14.41,95.76,14.2Z"/><path class="cls-4" d="M.08,9.34,0,9.41V9.05H.08C.16,9.15.13,9.24.08,9.34Z"/><path class="cls-5" d="M4.93,6.33a5.77,5.77,0,0,1-.42-1.14,1.43,1.43,0,0,1-.08-.93,2.73,2.73,0,0,1,.63-1.48,1.68,1.68,0,0,1,.24-.29C6.09,1.69,6.88.91,7.66.11,7.81,0,7.89,0,8,.11q2.51,2.52,5,5c.22.21.12.32,0,.48L9,9.67,8.61,10c-.21,0-.29-.2-.43-.31L7.4,9A9.1,9.1,0,0,0,6.33,8a4.38,4.38,0,0,1-.82-.79C5.34,6.88,5,6.69,4.93,6.33Z"/><path class="cls-5" d="M14.76,12.73a2.73,2.73,0,0,1,0-5.45,2.79,2.79,0,0,1,2.72,2.8A2.7,2.7,0,0,1,14.76,12.73Z"/><path d="M36.25,10.76c0,1.36,0,2.72,0,4.07,0,.42-.12.5-.5.49-.93,0-.93,0-.93-.91s0-1.85,0-2.77c0-.31-.07-.45-.41-.43a8.83,8.83,0,0,1-1.26,0c-.34,0-.46.08-.45.44,0,1.09,0,2.18,0,3.27,0,.3-.06.4-.38.4-1,0-1,0-1-1.05,0-2.51,0-5,0-7.54,0-.43.08-.58.54-.56.89,0,.89,0,.89.91s0,1.74,0,2.61c0,.28.06.39.36.37.45,0,.91,0,1.36,0s.41-.06.4-.38c0-1,0-2,0-3,0-.36.07-.49.46-.48,1,0,1,0,1,1Z"/><path d="M56.52,15.31H55.17c-.25,0-.29-.18-.37-.34l-1.95-3.63c-.06-.11-.08-.25-.28-.34v3.92c0,.21,0,.38-.29.4-1.16.07-1.16.08-1.16-1.08,0-2.53,0-5.07,0-7.6,0-.38.12-.47.48-.46,1,0,1,0,1,1v3l.11,0c.59-1.13,1.18-2.27,1.78-3.4.11-.2.14-.51.39-.54a4,4,0,0,1,1.2,0c.24,0,0,.25,0,.35-.61,1.16-1.21,2.32-1.85,3.46a.82.82,0,0,0,0,.91c.72,1.3,1.42,2.61,2.12,3.93C56.37,15,56.43,15.12,56.52,15.31Z"/><path d="M67.15,8.25l1.9-3c.48-.77,1-1.52,1.42-2.31a.89.89,0,0,1,1.19-.46L70.53,4.27C69.76,5.51,69,6.75,68.21,8a.67.67,0,0,0,0,.81c1.2,2,2.37,4.08,3.55,6.12.27.47.27.44-.24.48a.73.73,0,0,1-.79-.44c-1.09-1.94-2.21-3.86-3.33-5.79-.08-.13-.11-.31-.3-.37a.83.83,0,0,0,0,.49c0,1.89,0,3.78,0,5.67,0,.38-.14.45-.47.44s-.48,0-.47-.42q0-6.09,0-12.17c0-.36.11-.44.45-.44s.49.07.49.47c0,1.79,0,3.58,0,5.37Z"/><path class="cls-6" d="M6.58,18.79,5.44,17.64c0-.21.21-.22.31-.34a36.67,36.67,0,0,1,2.64-2.65,28.28,28.28,0,0,1,2.13-2.11c.13-.1.23-.25.43-.13a6.81,6.81,0,0,1,.92.94,10.77,10.77,0,0,1-1.32,1.38c-.63.65-1.33,1.23-1.94,1.9-.32.35-.63.72-.92,1.09,0,0-.05.09-.09.11C7.13,18,6.93,18.49,6.58,18.79Z"/><path class="cls-7" d="M4.58,16.78a9,9,0,0,1-.93-.92c-.08-.12,0-.21.06-.29.44-.46.93-.87,1.37-1.34.62-.68,1.33-1.28,2-2s1.2-1.18,1.8-1.77a.13.13,0,0,1,.19,0,10.2,10.2,0,0,1,.93.93c0,.18-.11.25-.2.35-.45.51-.93,1-1.41,1.45A18.27,18.27,0,0,1,6.9,14.69c-.75.61-1.39,1.35-2.1,2C4.74,16.75,4.68,16.82,4.58,16.78Z"/><path d="M61.47,7.84c-.28-.15-.52-.31-.77-.42a1.44,1.44,0,0,0-2,.73,3.84,3.84,0,0,0-.37,1.25,9.29,9.29,0,0,0,.1,3.24c.37,1.61,1.41,2,2.84,1.17l.18-.08c.47,1.08.36,1.3-.76,1.6a2.75,2.75,0,0,1-3.43-1.63,7.53,7.53,0,0,1,0-5.91,3,3,0,0,1,3.93-1.51c.32.13.54.28.4.7A5.33,5.33,0,0,0,61.47,7.84Z"/><path class="cls-8" d="M4.58,16.78c.52-.52,1.06-1,1.55-1.55a10.52,10.52,0,0,1,.94-.81c.31-.28.54-.62.85-.89s.63-.7,1-1a13.76,13.76,0,0,0,1-1.11,9.44,9.44,0,0,1,1,1c-.17,0-.25.1-.37.19A13.6,13.6,0,0,0,9.15,14c-.71.74-1.47,1.44-2.2,2.16-.37.36-.72.74-1.07,1.13-.13.15-.32.2-.44.34A8.73,8.73,0,0,1,4.58,16.78Z"/><path class="cls-9" d="M6.58,18.79c.23-.33.34-.76.8-.88.14,0,.18-.18.26-.29a7.8,7.8,0,0,1,.87-1,9,9,0,0,1,1.14-1.17c.67-.4,1-1.11,1.67-1.52.2-.13.24-.49.55-.56l.36.36a.38.38,0,0,0,.2.29c.29.2.17.39,0,.56-1.57,1.43-3,3-4.53,4.45-.18.18-.26.48-.58.49Z"/><path class="cls-10" d="M9,10.48c-.27.23-.54.45-.79.69-.75.71-1.41,1.5-2.17,2.19-.41.38-.8.79-1.18,1.21s-.66.64-1,.95c-.1.1-.23.17-.23.34A8.83,8.83,0,0,1,2.79,15,.65.65,0,0,1,3,14.68c.75-.72,1.45-1.48,2.19-2.2s1.73-1.73,2.61-2.59c.1-.11.19-.3.4-.19l.39.34Z"/><path class="cls-11" d="M5.14,2.75a3.54,3.54,0,0,0-.63,2.44A8.79,8.79,0,0,0,3.42,6c-.14.1-.16.28-.26.41a10.76,10.76,0,0,1-1,.84c-.14.14-.28.29-.41.44C1.32,8.25.71,8.65.27,9.23c0,0-.13.07-.19.11V9.06a6.34,6.34,0,0,1,2-3.41c1-.92,1.91-1.84,2.8-2.82A.41.41,0,0,1,5,2.76.08.08,0,0,1,5.14,2.75Z"/><path d="M83.63,7.82a2.64,2.64,0,0,0-1.32-1,1.65,1.65,0,0,0-1.93.81,3.17,3.17,0,0,0-.39,1A9.35,9.35,0,0,0,80,13.13c.52,1.89,2.11,2.29,3.49.9l.11-.1c.4.57.38.72-.15,1.13a2.58,2.58,0,0,1-3.91-.84,7.69,7.69,0,0,1-.65-4.36,6,6,0,0,1,.55-2.23,2.6,2.6,0,0,1,3.35-1.42C83.77,6.52,83.91,6.79,83.63,7.82Z"/><path d="M89.68,7.78A3.1,3.1,0,0,0,88.76,7a1.66,1.66,0,0,0-2.26.63A3.5,3.5,0,0,0,86,9a10.41,10.41,0,0,0,0,3.65c.16.88.39,1.78,1.37,2.12a2.14,2.14,0,0,0,2.36-.82c.4.68.38.77-.24,1.2a2.57,2.57,0,0,1-3.83-.89A6.76,6.76,0,0,1,85,10.91a7.66,7.66,0,0,1,.52-3.14,2.65,2.65,0,0,1,3.7-1.45C90,6.71,90.08,6.93,89.68,7.78Z"/><path class="cls-12" d="M5.14,2.75H5a.94.94,0,0,1,.29-.27C5.29,2.6,5.19,2.66,5.14,2.75Z"/><path class="cls-13" d="M6.38,7.9a5.62,5.62,0,0,1,1.06,1,4.84,4.84,0,0,0-1,.86c-.3.28-.58.58-.9.85s-.54.59-.84.87c-.49.45-1,.93-1.43,1.42A16.32,16.32,0,0,1,2,14.22a4.66,4.66,0,0,1-1-1.16c.65-.52,1.08-1.25,1.75-1.76A14.3,14.3,0,0,0,4,10.06c.2-.21.45-.36.65-.55.39-.38.73-.79,1.08-1.19C5.87,8.11,6,7.85,6.38,7.9Z"/><path class="cls-14" d="M2,14.22c0-.06,0-.14.06-.17a18.4,18.4,0,0,0,1.33-1.32c.41-.4.78-.84,1.22-1.2s.71-.79,1.14-1.13A13.15,13.15,0,0,0,7.08,9c.11-.12.2-.19.36-.13a4.49,4.49,0,0,1,.78.79c-.16,0-.24.14-.34.24-.88.87-1.74,1.76-2.63,2.62S3.66,14.23,2.79,15A7.18,7.18,0,0,1,2,14.22Z"/><path class="cls-15" d="M6.38,7.9c-.46.15-.69.56-1,.89A7.22,7.22,0,0,1,4.28,9.88c-.25.2-.47.46-.71.68a6.11,6.11,0,0,1-1,1,2.68,2.68,0,0,0-.63.67,2.8,2.8,0,0,1-.95.86,2.53,2.53,0,0,1-.51-.92c.09-.34.37-.52.59-.74L3.86,8.62c.44-.45.89-.9,1.34-1.34.1-.1.19-.26.38-.16A5.36,5.36,0,0,0,6.38,7.9Z"/><path class="cls-16" d="M5.58,7.12c-.16,0-.24.14-.34.23l-4,4c-.25.25-.49.51-.73.76a5.37,5.37,0,0,1-.33-.87.14.14,0,0,1,0-.21A13.6,13.6,0,0,0,1.32,9.83,16.81,16.81,0,0,0,2.8,8.39,14.05,14.05,0,0,0,4.2,6.91c.13-.23.49-.37.73-.58Z"/><path class="cls-17" d="M.15,11.06v.21c-.13-.09-.07-.22-.08-.34Z"/><path d="M95.8,14.1c-.07-1.67,0-3.34,0-5a7.39,7.39,0,0,0-.11-1.33,2.08,2.08,0,0,0-1.25-1.53,3,3,0,0,0-2.7.29c-.59.37-.61.57-.21,1.21a2.42,2.42,0,0,1,1.18-.81,1.5,1.5,0,0,1,2.16,1.36c0,.46,0,.94,0,1.4,0,.25-.12.27-.31.27a9.74,9.74,0,0,0-1.21,0,2.46,2.46,0,0,0-2.25,1.51,3.77,3.77,0,0,0,0,2.84,2,2,0,0,0,3.39.53c.14-.16.26-.32.41-.52.21,1.08.21,1.08,1,1.06v-.6C95.76,14.58,95.86,14.33,95.8,14.1Zm-1.46.07a1.49,1.49,0,0,1-1.46.7,1.43,1.43,0,0,1-1.11-1.23,3.42,3.42,0,0,1,0-1.59,1.69,1.69,0,0,1,1.46-1.4h0c1.51-.27,1.58-.21,1.58,1.46A2.74,2.74,0,0,1,94.34,14.17Z"/><path d="M29.48,8.11c0-1.75,0-3.51,0-5.27,0-.32,0-.5-.43-.48-.55,0-1.1,0-1.65,0a3.81,3.81,0,0,0-2.48.81A4.33,4.33,0,0,0,23.6,7.26a3.31,3.31,0,0,0,1.15,2.32c.68.57.67.57.29,1.4l-2,4.4a11.69,11.69,0,0,1,1.2,0,.58.58,0,0,0,.66-.45c.57-1.3,1.18-2.58,1.73-3.9a.88.88,0,0,1,1-.66c.37,0,.43.15.43.47,0,1.21,0,2.42,0,3.62,0,.91,0,.89.93.92.44,0,.51-.15.51-.54C29.47,12.6,29.48,10.36,29.48,8.11Zm-1.79,1.1c-1.64,0-2.36-.56-2.57-2.2a4.48,4.48,0,0,1,.16-1.89,2.19,2.19,0,0,1,2.56-1.53c.26.05.21.21.21.37V6.42c0,.81,0,1.61,0,2.42C28.06,9.12,28,9.2,27.69,9.21Z"/><path d="M43.56,14.49c0-.25-.06-.39-.33-.35s-.44-.13-.43-.46c0-1.17,0-2.34,0-3.51s0-2.41,0-3.62c0-.28-.07-.37-.37-.37q-1.75,0-3.51,0c-.32,0-.4.11-.39.41,0,.58,0,1.17,0,1.75a17.52,17.52,0,0,1-.76,5.39c-.08.23-.14.45-.46.41s-.26.14-.26.33c0,.56,0,1.13,0,1.7,0,1,0,1,1,.94.26,0,.37-.06.35-.34s0-.73,0-1.1.07-.37.36-.37c.89,0,1.78,0,2.66,0s.89,0,.89.9,0,.91.93.9c.27,0,.39-.06.38-.36C43.54,16,43.54,15.24,43.56,14.49ZM41,14.15c-.53,0-1.07,0-1.6,0-.26,0-.37,0-.27-.33a19.33,19.33,0,0,0,.73-6c0-.37.08-.48.46-.47,1.11,0,1.11,0,1.11,1.13v2.26c0,1,0,2,0,3C41.41,14,41.35,14.17,41,14.15Z"/><path d="M49.17,7.31a2,2,0,0,0-1.65-1.23A2.34,2.34,0,0,0,44.9,7.8,8.92,8.92,0,0,0,44.6,13a2.93,2.93,0,0,0,4,2.27c1.14-.35,1.21-.49.74-1.65a4.47,4.47,0,0,1-1.12.51A1.57,1.57,0,0,1,46.13,13a6.19,6.19,0,0,1-.25-1.49c0-.32.06-.43.4-.42,1,0,2,0,3,0,.16,0,.4.08.4-.23A7.81,7.81,0,0,0,49.17,7.31ZM48,9.9h-.9a4.68,4.68,0,0,0-.65,0c-.51.09-.53-.17-.47-.56A5.71,5.71,0,0,1,46.24,8c.18-.42.44-.76,1-.73s.66.39.8.78a5.58,5.58,0,0,1,.22,1.63C48.24,9.88,48.12,9.9,48,9.9Z"/><path d="M77.56,13.55c0-1.59,0-3.18,0-4.77a4.54,4.54,0,0,0-.11-1,1.93,1.93,0,0,0-1.3-1.54,3.1,3.1,0,0,0-2.39.19c-.75.38-.79.53-.49,1.37a2.73,2.73,0,0,1,1.27-.84A1.47,1.47,0,0,1,76.62,8a8.49,8.49,0,0,1,.08,1.75c0,.22-.14.22-.3.23-.41,0-.81,0-1.21,0a2.45,2.45,0,0,0-2.39,1.93,4,4,0,0,0,0,2.23,1.93,1.93,0,0,0,1.58,1.44,2,2,0,0,0,2-.82c.09-.12.11-.32.32-.33.2,1.08.2,1.08,1,.92A8.33,8.33,0,0,1,77.56,13.55Zm-1.44.68a1.42,1.42,0,0,1-1.38.64,1.34,1.34,0,0,1-1.09-1.11,3.2,3.2,0,0,1-.11-.69c-.09-1.9,1.08-2.87,2.95-2.48.22.05.21.18.21.33v1.21A2.67,2.67,0,0,1,76.12,14.23Z"/></svg>